%TF.GenerationSoftware,KiCad,Pcbnew,6.0.4-6f826c9f35~116~ubuntu21.10.1*%
%TF.CreationDate,2022-04-24T13:37:27+09:00*%
%TF.ProjectId,pcb,7063622e-6b69-4636-9164-5f7063625858,rev?*%
%TF.SameCoordinates,Original*%
%TF.FileFunction,Legend,Bot*%
%TF.FilePolarity,Positive*%
%FSLAX46Y46*%
G04 Gerber Fmt 4.6, Leading zero omitted, Abs format (unit mm)*
G04 Created by KiCad (PCBNEW 6.0.4-6f826c9f35~116~ubuntu21.10.1) date 2022-04-24 13:37:27*
%MOMM*%
%LPD*%
G01*
G04 APERTURE LIST*
%ADD10C,0.300000*%
G04 APERTURE END LIST*
D10*
X41561666Y-31831666D02*
X41561666Y-32498333D01*
X42028333Y-31098333D02*
X41561666Y-31831666D01*
X41095000Y-31098333D01*
X40095000Y-32431666D02*
X40228333Y-32498333D01*
X40495000Y-32498333D01*
X40628333Y-32431666D01*
X40695000Y-32298333D01*
X40695000Y-31765000D01*
X40628333Y-31631666D01*
X40495000Y-31565000D01*
X40228333Y-31565000D01*
X40095000Y-31631666D01*
X40028333Y-31765000D01*
X40028333Y-31898333D01*
X40695000Y-32031666D01*
X39228333Y-32498333D02*
X39361666Y-32431666D01*
X39428333Y-32365000D01*
X39495000Y-32231666D01*
X39495000Y-31831666D01*
X39428333Y-31698333D01*
X39361666Y-31631666D01*
X39228333Y-31565000D01*
X39028333Y-31565000D01*
X38895000Y-31631666D01*
X38828333Y-31698333D01*
X38761666Y-31831666D01*
X38761666Y-32231666D01*
X38828333Y-32365000D01*
X38895000Y-32431666D01*
X39028333Y-32498333D01*
X39228333Y-32498333D01*
X38161666Y-31565000D02*
X38161666Y-32498333D01*
X38161666Y-31698333D02*
X38095000Y-31631666D01*
X37961666Y-31565000D01*
X37761666Y-31565000D01*
X37628333Y-31631666D01*
X37561666Y-31765000D01*
X37561666Y-32498333D01*
X36295000Y-32431666D02*
X36428333Y-32498333D01*
X36695000Y-32498333D01*
X36828333Y-32431666D01*
X36895000Y-32365000D01*
X36961666Y-32231666D01*
X36961666Y-31831666D01*
X36895000Y-31698333D01*
X36828333Y-31631666D01*
X36695000Y-31565000D01*
X36428333Y-31565000D01*
X36295000Y-31631666D01*
X35695000Y-32498333D02*
X35695000Y-31098333D01*
X35095000Y-32498333D02*
X35095000Y-31765000D01*
X35161666Y-31631666D01*
X35295000Y-31565000D01*
X35495000Y-31565000D01*
X35628333Y-31631666D01*
X35695000Y-31698333D01*
X34228333Y-32498333D02*
X34361666Y-32431666D01*
X34428333Y-32365000D01*
X34495000Y-32231666D01*
X34495000Y-31831666D01*
X34428333Y-31698333D01*
X34361666Y-31631666D01*
X34228333Y-31565000D01*
X34028333Y-31565000D01*
X33895000Y-31631666D01*
X33828333Y-31698333D01*
X33761666Y-31831666D01*
X33761666Y-32231666D01*
X33828333Y-32365000D01*
X33895000Y-32431666D01*
X34028333Y-32498333D01*
X34228333Y-32498333D01*
X32095000Y-31765000D02*
X31628333Y-31765000D01*
X31428333Y-32498333D02*
X32095000Y-32498333D01*
X32095000Y-31098333D01*
X31428333Y-31098333D01*
X30828333Y-32498333D02*
X30828333Y-31098333D01*
X30295000Y-31098333D01*
X30161666Y-31165000D01*
X30095000Y-31231666D01*
X30028333Y-31365000D01*
X30028333Y-31565000D01*
X30095000Y-31698333D01*
X30161666Y-31765000D01*
X30295000Y-31831666D01*
X30828333Y-31831666D01*
X29428333Y-32498333D02*
X29428333Y-31098333D01*
X27961666Y-32365000D02*
X28028333Y-32431666D01*
X28228333Y-32498333D01*
X28361666Y-32498333D01*
X28561666Y-32431666D01*
X28695000Y-32298333D01*
X28761666Y-32165000D01*
X28828333Y-31898333D01*
X28828333Y-31698333D01*
X28761666Y-31431666D01*
X28695000Y-31298333D01*
X28561666Y-31165000D01*
X28361666Y-31098333D01*
X28228333Y-31098333D01*
X28028333Y-31165000D01*
X27961666Y-31231666D01*
X70694999Y-34219000D02*
X69628333Y-34219000D01*
X68961666Y-34219000D02*
X67894999Y-34219000D01*
X67228333Y-34219000D02*
X66161666Y-34219000D01*
X65494999Y-34219000D02*
X64428333Y-34219000D01*
X63761666Y-34219000D02*
X62694999Y-34219000D01*
X62028333Y-34219000D02*
X60961666Y-34219000D01*
X60294999Y-34219000D02*
X59228333Y-34219000D01*
X58561666Y-34219000D02*
X57494999Y-34219000D01*
X56828333Y-34219000D02*
X55761666Y-34219000D01*
X55094999Y-34219000D02*
X54028333Y-34219000D01*
X53361666Y-34219000D02*
X52294999Y-34219000D01*
X51628333Y-34219000D02*
X50561666Y-34219000D01*
X49894999Y-34219000D02*
X48828333Y-34219000D01*
X48161666Y-34219000D02*
X47094999Y-34219000D01*
X46428333Y-34219000D02*
X45361666Y-34219000D01*
X44694999Y-34219000D02*
X43628333Y-34219000D01*
X42961666Y-34219000D02*
X41894999Y-34219000D01*
X41228333Y-34219000D02*
X40161666Y-34219000D01*
X39494999Y-34219000D02*
X38428333Y-34219000D01*
X37761666Y-34219000D02*
X36694999Y-34219000D01*
X36028333Y-34219000D02*
X34961666Y-34219000D01*
X34294999Y-34219000D02*
X33228333Y-34219000D01*
X32561666Y-34219000D02*
X31494999Y-34219000D01*
X30828333Y-34219000D02*
X29761666Y-34219000D01*
X29094999Y-34219000D02*
X28028333Y-34219000D01*
X48961666Y-35606333D02*
X48695000Y-35606333D01*
X48561666Y-35673000D01*
X48428333Y-35806333D01*
X48361666Y-36073000D01*
X48361666Y-36539666D01*
X48428333Y-36806333D01*
X48561666Y-36939666D01*
X48695000Y-37006333D01*
X48961666Y-37006333D01*
X49095000Y-36939666D01*
X49228333Y-36806333D01*
X49295000Y-36539666D01*
X49295000Y-36073000D01*
X49228333Y-35806333D01*
X49095000Y-35673000D01*
X48961666Y-35606333D01*
X47761666Y-36073000D02*
X47761666Y-37473000D01*
X47761666Y-36139666D02*
X47628333Y-36073000D01*
X47361666Y-36073000D01*
X47228333Y-36139666D01*
X47161666Y-36206333D01*
X47095000Y-36339666D01*
X47095000Y-36739666D01*
X47161666Y-36873000D01*
X47228333Y-36939666D01*
X47361666Y-37006333D01*
X47628333Y-37006333D01*
X47761666Y-36939666D01*
X45961666Y-36939666D02*
X46095000Y-37006333D01*
X46361666Y-37006333D01*
X46495000Y-36939666D01*
X46561666Y-36806333D01*
X46561666Y-36273000D01*
X46495000Y-36139666D01*
X46361666Y-36073000D01*
X46095000Y-36073000D01*
X45961666Y-36139666D01*
X45895000Y-36273000D01*
X45895000Y-36406333D01*
X46561666Y-36539666D01*
X45295000Y-36073000D02*
X45295000Y-37006333D01*
X45295000Y-36206333D02*
X45228333Y-36139666D01*
X45095000Y-36073000D01*
X44895000Y-36073000D01*
X44761666Y-36139666D01*
X44695000Y-36273000D01*
X44695000Y-37006333D01*
X43028333Y-36939666D02*
X42828333Y-37006333D01*
X42495000Y-37006333D01*
X42361666Y-36939666D01*
X42295000Y-36873000D01*
X42228333Y-36739666D01*
X42228333Y-36606333D01*
X42295000Y-36473000D01*
X42361666Y-36406333D01*
X42495000Y-36339666D01*
X42761666Y-36273000D01*
X42895000Y-36206333D01*
X42961666Y-36139666D01*
X43028333Y-36006333D01*
X43028333Y-35873000D01*
X42961666Y-35739666D01*
X42895000Y-35673000D01*
X42761666Y-35606333D01*
X42428333Y-35606333D01*
X42228333Y-35673000D01*
X41428333Y-37006333D02*
X41561666Y-36939666D01*
X41628333Y-36873000D01*
X41695000Y-36739666D01*
X41695000Y-36339666D01*
X41628333Y-36206333D01*
X41561666Y-36139666D01*
X41428333Y-36073000D01*
X41228333Y-36073000D01*
X41095000Y-36139666D01*
X41028333Y-36206333D01*
X40961666Y-36339666D01*
X40961666Y-36739666D01*
X41028333Y-36873000D01*
X41095000Y-36939666D01*
X41228333Y-37006333D01*
X41428333Y-37006333D01*
X39761666Y-36073000D02*
X39761666Y-37006333D01*
X40361666Y-36073000D02*
X40361666Y-36806333D01*
X40295000Y-36939666D01*
X40161666Y-37006333D01*
X39961666Y-37006333D01*
X39828333Y-36939666D01*
X39761666Y-36873000D01*
X39095000Y-37006333D02*
X39095000Y-36073000D01*
X39095000Y-36339666D02*
X39028333Y-36206333D01*
X38961666Y-36139666D01*
X38828333Y-36073000D01*
X38695000Y-36073000D01*
X37628333Y-36939666D02*
X37761666Y-37006333D01*
X38028333Y-37006333D01*
X38161666Y-36939666D01*
X38228333Y-36873000D01*
X38295000Y-36739666D01*
X38295000Y-36339666D01*
X38228333Y-36206333D01*
X38161666Y-36139666D01*
X38028333Y-36073000D01*
X37761666Y-36073000D01*
X37628333Y-36139666D01*
X36495000Y-36939666D02*
X36628333Y-37006333D01*
X36895000Y-37006333D01*
X37028333Y-36939666D01*
X37095000Y-36806333D01*
X37095000Y-36273000D01*
X37028333Y-36139666D01*
X36895000Y-36073000D01*
X36628333Y-36073000D01*
X36495000Y-36139666D01*
X36428333Y-36273000D01*
X36428333Y-36406333D01*
X37095000Y-36539666D01*
X34761666Y-37006333D02*
X34761666Y-35606333D01*
X34228333Y-35606333D01*
X34095000Y-35673000D01*
X34028333Y-35739666D01*
X33961666Y-35873000D01*
X33961666Y-36073000D01*
X34028333Y-36206333D01*
X34095000Y-36273000D01*
X34228333Y-36339666D01*
X34761666Y-36339666D01*
X33361666Y-37006333D02*
X33361666Y-36073000D01*
X33361666Y-36339666D02*
X33295000Y-36206333D01*
X33228333Y-36139666D01*
X33095000Y-36073000D01*
X32961666Y-36073000D01*
X32295000Y-37006333D02*
X32428333Y-36939666D01*
X32495000Y-36873000D01*
X32561666Y-36739666D01*
X32561666Y-36339666D01*
X32495000Y-36206333D01*
X32428333Y-36139666D01*
X32295000Y-36073000D01*
X32095000Y-36073000D01*
X31961666Y-36139666D01*
X31895000Y-36206333D01*
X31828333Y-36339666D01*
X31828333Y-36739666D01*
X31895000Y-36873000D01*
X31961666Y-36939666D01*
X32095000Y-37006333D01*
X32295000Y-37006333D01*
X31228333Y-36073000D02*
X31228333Y-37273000D01*
X31295000Y-37406333D01*
X31428333Y-37473000D01*
X31495000Y-37473000D01*
X31228333Y-35606333D02*
X31295000Y-35673000D01*
X31228333Y-35739666D01*
X31161666Y-35673000D01*
X31228333Y-35606333D01*
X31228333Y-35739666D01*
X30028333Y-36939666D02*
X30161666Y-37006333D01*
X30428333Y-37006333D01*
X30561666Y-36939666D01*
X30628333Y-36806333D01*
X30628333Y-36273000D01*
X30561666Y-36139666D01*
X30428333Y-36073000D01*
X30161666Y-36073000D01*
X30028333Y-36139666D01*
X29961666Y-36273000D01*
X29961666Y-36406333D01*
X30628333Y-36539666D01*
X28761666Y-36939666D02*
X28895000Y-37006333D01*
X29161666Y-37006333D01*
X29295000Y-36939666D01*
X29361666Y-36873000D01*
X29428333Y-36739666D01*
X29428333Y-36339666D01*
X29361666Y-36206333D01*
X29295000Y-36139666D01*
X29161666Y-36073000D01*
X28895000Y-36073000D01*
X28761666Y-36139666D01*
X28361666Y-36073000D02*
X27828333Y-36073000D01*
X28161666Y-35606333D02*
X28161666Y-36806333D01*
X28095000Y-36939666D01*
X27961666Y-37006333D01*
X27828333Y-37006333D01*
X69495000Y-38327000D02*
X69495000Y-39460333D01*
X69561666Y-39593666D01*
X69628333Y-39660333D01*
X69761666Y-39727000D01*
X69961666Y-39727000D01*
X70095000Y-39660333D01*
X69495000Y-39193666D02*
X69628333Y-39260333D01*
X69895000Y-39260333D01*
X70028333Y-39193666D01*
X70095000Y-39127000D01*
X70161666Y-38993666D01*
X70161666Y-38593666D01*
X70095000Y-38460333D01*
X70028333Y-38393666D01*
X69895000Y-38327000D01*
X69628333Y-38327000D01*
X69495000Y-38393666D01*
X68828333Y-39260333D02*
X68828333Y-38327000D01*
X68828333Y-37860333D02*
X68895000Y-37927000D01*
X68828333Y-37993666D01*
X68761666Y-37927000D01*
X68828333Y-37860333D01*
X68828333Y-37993666D01*
X68361666Y-38327000D02*
X67828333Y-38327000D01*
X68161666Y-37860333D02*
X68161666Y-39060333D01*
X68095000Y-39193666D01*
X67961666Y-39260333D01*
X67828333Y-39260333D01*
X67361666Y-39260333D02*
X67361666Y-37860333D01*
X66761666Y-39260333D02*
X66761666Y-38527000D01*
X66828333Y-38393666D01*
X66961666Y-38327000D01*
X67161666Y-38327000D01*
X67295000Y-38393666D01*
X67361666Y-38460333D01*
X65495000Y-38327000D02*
X65495000Y-39260333D01*
X66095000Y-38327000D02*
X66095000Y-39060333D01*
X66028333Y-39193666D01*
X65895000Y-39260333D01*
X65695000Y-39260333D01*
X65561666Y-39193666D01*
X65495000Y-39127000D01*
X64828333Y-39260333D02*
X64828333Y-37860333D01*
X64828333Y-38393666D02*
X64695000Y-38327000D01*
X64428333Y-38327000D01*
X64295000Y-38393666D01*
X64228333Y-38460333D01*
X64161666Y-38593666D01*
X64161666Y-38993666D01*
X64228333Y-39127000D01*
X64295000Y-39193666D01*
X64428333Y-39260333D01*
X64695000Y-39260333D01*
X64828333Y-39193666D01*
X63561666Y-39127000D02*
X63495000Y-39193666D01*
X63561666Y-39260333D01*
X63628333Y-39193666D01*
X63561666Y-39127000D01*
X63561666Y-39260333D01*
X62295000Y-39193666D02*
X62428333Y-39260333D01*
X62695000Y-39260333D01*
X62828333Y-39193666D01*
X62895000Y-39127000D01*
X62961666Y-38993666D01*
X62961666Y-38593666D01*
X62895000Y-38460333D01*
X62828333Y-38393666D01*
X62695000Y-38327000D01*
X62428333Y-38327000D01*
X62295000Y-38393666D01*
X61495000Y-39260333D02*
X61628333Y-39193666D01*
X61695000Y-39127000D01*
X61761666Y-38993666D01*
X61761666Y-38593666D01*
X61695000Y-38460333D01*
X61628333Y-38393666D01*
X61495000Y-38327000D01*
X61295000Y-38327000D01*
X61161666Y-38393666D01*
X61095000Y-38460333D01*
X61028333Y-38593666D01*
X61028333Y-38993666D01*
X61095000Y-39127000D01*
X61161666Y-39193666D01*
X61295000Y-39260333D01*
X61495000Y-39260333D01*
X60428333Y-39260333D02*
X60428333Y-38327000D01*
X60428333Y-38460333D02*
X60361666Y-38393666D01*
X60228333Y-38327000D01*
X60028333Y-38327000D01*
X59895000Y-38393666D01*
X59828333Y-38527000D01*
X59828333Y-39260333D01*
X59828333Y-38527000D02*
X59761666Y-38393666D01*
X59628333Y-38327000D01*
X59428333Y-38327000D01*
X59295000Y-38393666D01*
X59228333Y-38527000D01*
X59228333Y-39260333D01*
X57561666Y-37793666D02*
X58761666Y-39593666D01*
X56895000Y-39260333D02*
X57028333Y-39193666D01*
X57095000Y-39060333D01*
X57095000Y-37860333D01*
X55828333Y-39193666D02*
X55961666Y-39260333D01*
X56228333Y-39260333D01*
X56361666Y-39193666D01*
X56428333Y-39060333D01*
X56428333Y-38527000D01*
X56361666Y-38393666D01*
X56228333Y-38327000D01*
X55961666Y-38327000D01*
X55828333Y-38393666D01*
X55761666Y-38527000D01*
X55761666Y-38660333D01*
X56428333Y-38793666D01*
X54628333Y-39193666D02*
X54761666Y-39260333D01*
X55028333Y-39260333D01*
X55161666Y-39193666D01*
X55228333Y-39060333D01*
X55228333Y-38527000D01*
X55161666Y-38393666D01*
X55028333Y-38327000D01*
X54761666Y-38327000D01*
X54628333Y-38393666D01*
X54561666Y-38527000D01*
X54561666Y-38660333D01*
X55228333Y-38793666D01*
X53361666Y-39193666D02*
X53495000Y-39260333D01*
X53761666Y-39260333D01*
X53895000Y-39193666D01*
X53961666Y-39127000D01*
X54028333Y-38993666D01*
X54028333Y-38593666D01*
X53961666Y-38460333D01*
X53895000Y-38393666D01*
X53761666Y-38327000D01*
X53495000Y-38327000D01*
X53361666Y-38393666D01*
X52161666Y-38327000D02*
X52161666Y-39260333D01*
X52761666Y-38327000D02*
X52761666Y-39060333D01*
X52695000Y-39193666D01*
X52561666Y-39260333D01*
X52361666Y-39260333D01*
X52228333Y-39193666D01*
X52161666Y-39127000D01*
X51495000Y-39260333D02*
X51495000Y-38327000D01*
X51495000Y-38593666D02*
X51428333Y-38460333D01*
X51361666Y-38393666D01*
X51228333Y-38327000D01*
X51095000Y-38327000D01*
X50628333Y-39260333D02*
X50628333Y-38327000D01*
X50628333Y-38593666D02*
X50561666Y-38460333D01*
X50495000Y-38393666D01*
X50361666Y-38327000D01*
X50228333Y-38327000D01*
X49228333Y-39193666D02*
X49361666Y-39260333D01*
X49628333Y-39260333D01*
X49761666Y-39193666D01*
X49828333Y-39060333D01*
X49828333Y-38527000D01*
X49761666Y-38393666D01*
X49628333Y-38327000D01*
X49361666Y-38327000D01*
X49228333Y-38393666D01*
X49161666Y-38527000D01*
X49161666Y-38660333D01*
X49828333Y-38793666D01*
X48561666Y-38327000D02*
X48561666Y-39260333D01*
X48561666Y-38460333D02*
X48495000Y-38393666D01*
X48361666Y-38327000D01*
X48161666Y-38327000D01*
X48028333Y-38393666D01*
X47961666Y-38527000D01*
X47961666Y-39260333D01*
X47495000Y-38327000D02*
X46961666Y-38327000D01*
X47295000Y-37860333D02*
X47295000Y-39060333D01*
X47228333Y-39193666D01*
X47095000Y-39260333D01*
X46961666Y-39260333D01*
X46228333Y-37860333D02*
X46095000Y-37860333D01*
X45961666Y-37927000D01*
X45895000Y-37993666D01*
X45828333Y-38127000D01*
X45761666Y-38393666D01*
X45761666Y-38727000D01*
X45828333Y-38993666D01*
X45895000Y-39127000D01*
X45961666Y-39193666D01*
X46095000Y-39260333D01*
X46228333Y-39260333D01*
X46361666Y-39193666D01*
X46428333Y-39127000D01*
X46495000Y-38993666D01*
X46561666Y-38727000D01*
X46561666Y-38393666D01*
X46495000Y-38127000D01*
X46428333Y-37993666D01*
X46361666Y-37927000D01*
X46228333Y-37860333D01*
X44561666Y-38327000D02*
X44561666Y-39260333D01*
X44895000Y-37793666D02*
X45228333Y-38793666D01*
X44361666Y-38793666D01*
X42828333Y-37793666D02*
X44028333Y-39593666D01*
X42361666Y-38527000D02*
X41895000Y-38527000D01*
X41695000Y-39260333D02*
X42361666Y-39260333D01*
X42361666Y-37860333D01*
X41695000Y-37860333D01*
X41095000Y-38327000D02*
X41095000Y-39727000D01*
X41095000Y-38393666D02*
X40961666Y-38327000D01*
X40695000Y-38327000D01*
X40561666Y-38393666D01*
X40495000Y-38460333D01*
X40428333Y-38593666D01*
X40428333Y-38993666D01*
X40495000Y-39127000D01*
X40561666Y-39193666D01*
X40695000Y-39260333D01*
X40961666Y-39260333D01*
X41095000Y-39193666D01*
X39828333Y-39260333D02*
X39828333Y-38327000D01*
X39828333Y-37860333D02*
X39895000Y-37927000D01*
X39828333Y-37993666D01*
X39761666Y-37927000D01*
X39828333Y-37860333D01*
X39828333Y-37993666D01*
X38561666Y-39193666D02*
X38695000Y-39260333D01*
X38961666Y-39260333D01*
X39095000Y-39193666D01*
X39161666Y-39127000D01*
X39228333Y-38993666D01*
X39228333Y-38593666D01*
X39161666Y-38460333D01*
X39095000Y-38393666D01*
X38961666Y-38327000D01*
X38695000Y-38327000D01*
X38561666Y-38393666D01*
X38295000Y-39393666D02*
X37228333Y-39393666D01*
X36895000Y-39260333D02*
X36895000Y-37860333D01*
X36561666Y-37860333D01*
X36361666Y-37927000D01*
X36228333Y-38060333D01*
X36161666Y-38193666D01*
X36095000Y-38460333D01*
X36095000Y-38660333D01*
X36161666Y-38927000D01*
X36228333Y-39060333D01*
X36361666Y-39193666D01*
X36561666Y-39260333D01*
X36895000Y-39260333D01*
X35295000Y-39260333D02*
X35428333Y-39193666D01*
X35495000Y-39127000D01*
X35561666Y-38993666D01*
X35561666Y-38593666D01*
X35495000Y-38460333D01*
X35428333Y-38393666D01*
X35295000Y-38327000D01*
X35095000Y-38327000D01*
X34961666Y-38393666D01*
X34895000Y-38460333D01*
X34828333Y-38593666D01*
X34828333Y-38993666D01*
X34895000Y-39127000D01*
X34961666Y-39193666D01*
X35095000Y-39260333D01*
X35295000Y-39260333D01*
X34028333Y-39260333D02*
X34161666Y-39193666D01*
X34228333Y-39127000D01*
X34295000Y-38993666D01*
X34295000Y-38593666D01*
X34228333Y-38460333D01*
X34161666Y-38393666D01*
X34028333Y-38327000D01*
X33828333Y-38327000D01*
X33695000Y-38393666D01*
X33628333Y-38460333D01*
X33561666Y-38593666D01*
X33561666Y-38993666D01*
X33628333Y-39127000D01*
X33695000Y-39193666D01*
X33828333Y-39260333D01*
X34028333Y-39260333D01*
X32961666Y-39260333D02*
X32961666Y-38327000D01*
X32961666Y-38593666D02*
X32895000Y-38460333D01*
X32828333Y-38393666D01*
X32695000Y-38327000D01*
X32561666Y-38327000D01*
X31428333Y-39260333D02*
X32095000Y-39260333D01*
X32095000Y-37860333D01*
X30761666Y-39260333D02*
X30895000Y-39193666D01*
X30961666Y-39127000D01*
X31028333Y-38993666D01*
X31028333Y-38593666D01*
X30961666Y-38460333D01*
X30895000Y-38393666D01*
X30761666Y-38327000D01*
X30561666Y-38327000D01*
X30428333Y-38393666D01*
X30361666Y-38460333D01*
X30295000Y-38593666D01*
X30295000Y-38993666D01*
X30361666Y-39127000D01*
X30428333Y-39193666D01*
X30561666Y-39260333D01*
X30761666Y-39260333D01*
X29095000Y-39193666D02*
X29228333Y-39260333D01*
X29495000Y-39260333D01*
X29628333Y-39193666D01*
X29695000Y-39127000D01*
X29761666Y-38993666D01*
X29761666Y-38593666D01*
X29695000Y-38460333D01*
X29628333Y-38393666D01*
X29495000Y-38327000D01*
X29228333Y-38327000D01*
X29095000Y-38393666D01*
X28495000Y-39260333D02*
X28495000Y-37860333D01*
X28361666Y-38727000D02*
X27961666Y-39260333D01*
X27961666Y-38327000D02*
X28495000Y-38860333D01*
X70694999Y-40981000D02*
X69628333Y-40981000D01*
X68961666Y-40981000D02*
X67894999Y-40981000D01*
X67228333Y-40981000D02*
X66161666Y-40981000D01*
X65494999Y-40981000D02*
X64428333Y-40981000D01*
X63761666Y-40981000D02*
X62694999Y-40981000D01*
X62028333Y-40981000D02*
X60961666Y-40981000D01*
X60294999Y-40981000D02*
X59228333Y-40981000D01*
X58561666Y-40981000D02*
X57494999Y-40981000D01*
X56828333Y-40981000D02*
X55761666Y-40981000D01*
X55094999Y-40981000D02*
X54028333Y-40981000D01*
X53361666Y-40981000D02*
X52294999Y-40981000D01*
X51628333Y-40981000D02*
X50561666Y-40981000D01*
X49894999Y-40981000D02*
X48828333Y-40981000D01*
X48161666Y-40981000D02*
X47094999Y-40981000D01*
X46428333Y-40981000D02*
X45361666Y-40981000D01*
X44694999Y-40981000D02*
X43628333Y-40981000D01*
X42961666Y-40981000D02*
X41894999Y-40981000D01*
X41228333Y-40981000D02*
X40161666Y-40981000D01*
X39494999Y-40981000D02*
X38428333Y-40981000D01*
X37761666Y-40981000D02*
X36694999Y-40981000D01*
X36028333Y-40981000D02*
X34961666Y-40981000D01*
X34294999Y-40981000D02*
X33228333Y-40981000D01*
X32561666Y-40981000D02*
X31494999Y-40981000D01*
X30828333Y-40981000D02*
X29761666Y-40981000D01*
X29094999Y-40981000D02*
X28028333Y-40981000D01*
X43695000Y-42501666D02*
X43628333Y-42435000D01*
X43495000Y-42368333D01*
X43161666Y-42368333D01*
X43028333Y-42435000D01*
X42961666Y-42501666D01*
X42895000Y-42635000D01*
X42895000Y-42768333D01*
X42961666Y-42968333D01*
X43761666Y-43768333D01*
X42895000Y-43768333D01*
X42028333Y-42368333D02*
X41895000Y-42368333D01*
X41761666Y-42435000D01*
X41695000Y-42501666D01*
X41628333Y-42635000D01*
X41561666Y-42901666D01*
X41561666Y-43235000D01*
X41628333Y-43501666D01*
X41695000Y-43635000D01*
X41761666Y-43701666D01*
X41895000Y-43768333D01*
X42028333Y-43768333D01*
X42161666Y-43701666D01*
X42228333Y-43635000D01*
X42295000Y-43501666D01*
X42361666Y-43235000D01*
X42361666Y-42901666D01*
X42295000Y-42635000D01*
X42228333Y-42501666D01*
X42161666Y-42435000D01*
X42028333Y-42368333D01*
X41028333Y-42501666D02*
X40961666Y-42435000D01*
X40828333Y-42368333D01*
X40495000Y-42368333D01*
X40361666Y-42435000D01*
X40295000Y-42501666D01*
X40228333Y-42635000D01*
X40228333Y-42768333D01*
X40295000Y-42968333D01*
X41095000Y-43768333D01*
X40228333Y-43768333D01*
X39695000Y-42501666D02*
X39628333Y-42435000D01*
X39495000Y-42368333D01*
X39161666Y-42368333D01*
X39028333Y-42435000D01*
X38961666Y-42501666D01*
X38895000Y-42635000D01*
X38895000Y-42768333D01*
X38961666Y-42968333D01*
X39761666Y-43768333D01*
X38895000Y-43768333D01*
X38295000Y-43635000D02*
X38228333Y-43701666D01*
X38295000Y-43768333D01*
X38361666Y-43701666D01*
X38295000Y-43635000D01*
X38295000Y-43768333D01*
X37361666Y-42368333D02*
X37228333Y-42368333D01*
X37095000Y-42435000D01*
X37028333Y-42501666D01*
X36961666Y-42635000D01*
X36895000Y-42901666D01*
X36895000Y-43235000D01*
X36961666Y-43501666D01*
X37028333Y-43635000D01*
X37095000Y-43701666D01*
X37228333Y-43768333D01*
X37361666Y-43768333D01*
X37495000Y-43701666D01*
X37561666Y-43635000D01*
X37628333Y-43501666D01*
X37695000Y-43235000D01*
X37695000Y-42901666D01*
X37628333Y-42635000D01*
X37561666Y-42501666D01*
X37495000Y-42435000D01*
X37361666Y-42368333D01*
X35695000Y-42835000D02*
X35695000Y-43768333D01*
X36028333Y-42301666D02*
X36361666Y-43301666D01*
X35495000Y-43301666D01*
X34961666Y-43635000D02*
X34895000Y-43701666D01*
X34961666Y-43768333D01*
X35028333Y-43701666D01*
X34961666Y-43635000D01*
X34961666Y-43768333D01*
X34028333Y-42368333D02*
X33895000Y-42368333D01*
X33761666Y-42435000D01*
X33695000Y-42501666D01*
X33628333Y-42635000D01*
X33561666Y-42901666D01*
X33561666Y-43235000D01*
X33628333Y-43501666D01*
X33695000Y-43635000D01*
X33761666Y-43701666D01*
X33895000Y-43768333D01*
X34028333Y-43768333D01*
X34161666Y-43701666D01*
X34228333Y-43635000D01*
X34295000Y-43501666D01*
X34361666Y-43235000D01*
X34361666Y-42901666D01*
X34295000Y-42635000D01*
X34228333Y-42501666D01*
X34161666Y-42435000D01*
X34028333Y-42368333D01*
X32761666Y-42968333D02*
X32895000Y-42901666D01*
X32961666Y-42835000D01*
X33028333Y-42701666D01*
X33028333Y-42635000D01*
X32961666Y-42501666D01*
X32895000Y-42435000D01*
X32761666Y-42368333D01*
X32495000Y-42368333D01*
X32361666Y-42435000D01*
X32295000Y-42501666D01*
X32228333Y-42635000D01*
X32228333Y-42701666D01*
X32295000Y-42835000D01*
X32361666Y-42901666D01*
X32495000Y-42968333D01*
X32761666Y-42968333D01*
X32895000Y-43035000D01*
X32961666Y-43101666D01*
X33028333Y-43235000D01*
X33028333Y-43501666D01*
X32961666Y-43635000D01*
X32895000Y-43701666D01*
X32761666Y-43768333D01*
X32495000Y-43768333D01*
X32361666Y-43701666D01*
X32295000Y-43635000D01*
X32228333Y-43501666D01*
X32228333Y-43235000D01*
X32295000Y-43101666D01*
X32361666Y-43035000D01*
X32495000Y-42968333D01*
X31628333Y-43235000D02*
X30561666Y-43235000D01*
X30095000Y-42368333D02*
X29628333Y-43768333D01*
X29161666Y-42368333D01*
X28828333Y-42368333D02*
X27961666Y-42368333D01*
X28428333Y-42901666D01*
X28228333Y-42901666D01*
X28095000Y-42968333D01*
X28028333Y-43035000D01*
X27961666Y-43168333D01*
X27961666Y-43501666D01*
X28028333Y-43635000D01*
X28095000Y-43701666D01*
X28228333Y-43768333D01*
X28628333Y-43768333D01*
X28761666Y-43701666D01*
X28828333Y-43635000D01*
M02*
