%TF.GenerationSoftware,KiCad,Pcbnew,6.0.4-6f826c9f35~116~ubuntu21.10.1*%
%TF.CreationDate,2022-04-24T13:37:27+09:00*%
%TF.ProjectId,pcb,7063622e-6b69-4636-9164-5f7063625858,rev?*%
%TF.SameCoordinates,Original*%
%TF.FileFunction,Legend,Top*%
%TF.FilePolarity,Positive*%
%FSLAX46Y46*%
G04 Gerber Fmt 4.6, Leading zero omitted, Abs format (unit mm)*
G04 Created by KiCad (PCBNEW 6.0.4-6f826c9f35~116~ubuntu21.10.1) date 2022-04-24 13:37:27*
%MOMM*%
%LPD*%
G01*
G04 APERTURE LIST*
%ADD10C,0.187500*%
%ADD11C,0.300000*%
%ADD12C,0.150000*%
%ADD13C,0.120000*%
%ADD14C,0.010000*%
G04 APERTURE END LIST*
D10*
X31188571Y-77155000D02*
X31117142Y-77119285D01*
X31010000Y-77119285D01*
X30902857Y-77155000D01*
X30831428Y-77226428D01*
X30795714Y-77297857D01*
X30760000Y-77440714D01*
X30760000Y-77547857D01*
X30795714Y-77690714D01*
X30831428Y-77762142D01*
X30902857Y-77833571D01*
X31010000Y-77869285D01*
X31081428Y-77869285D01*
X31188571Y-77833571D01*
X31224285Y-77797857D01*
X31224285Y-77547857D01*
X31081428Y-77547857D01*
X31545714Y-77869285D02*
X31545714Y-77119285D01*
X31974285Y-77869285D01*
X31974285Y-77119285D01*
X32331428Y-77869285D02*
X32331428Y-77119285D01*
X32510000Y-77119285D01*
X32617142Y-77155000D01*
X32688571Y-77226428D01*
X32724285Y-77297857D01*
X32760000Y-77440714D01*
X32760000Y-77547857D01*
X32724285Y-77690714D01*
X32688571Y-77762142D01*
X32617142Y-77833571D01*
X32510000Y-77869285D01*
X32331428Y-77869285D01*
X76170714Y-28708571D02*
X75992142Y-28708571D01*
X76063571Y-28530000D02*
X75992142Y-28708571D01*
X76063571Y-28887142D01*
X75849285Y-28601428D02*
X75992142Y-28708571D01*
X75849285Y-28815714D01*
X75456428Y-29708571D02*
X75420714Y-29815714D01*
X75420714Y-29994285D01*
X75456428Y-30065714D01*
X75492142Y-30101428D01*
X75563571Y-30137142D01*
X75635000Y-30137142D01*
X75706428Y-30101428D01*
X75742142Y-30065714D01*
X75777857Y-29994285D01*
X75813571Y-29851428D01*
X75849285Y-29780000D01*
X75885000Y-29744285D01*
X75956428Y-29708571D01*
X76027857Y-29708571D01*
X76099285Y-29744285D01*
X76135000Y-29780000D01*
X76170714Y-29851428D01*
X76170714Y-30030000D01*
X76135000Y-30137142D01*
X75456428Y-30744285D02*
X75420714Y-30672857D01*
X75420714Y-30530000D01*
X75456428Y-30458571D01*
X75527857Y-30422857D01*
X75813571Y-30422857D01*
X75885000Y-30458571D01*
X75920714Y-30530000D01*
X75920714Y-30672857D01*
X75885000Y-30744285D01*
X75813571Y-30780000D01*
X75742142Y-30780000D01*
X75670714Y-30422857D01*
X75420714Y-31101428D02*
X75920714Y-31101428D01*
X75777857Y-31101428D02*
X75849285Y-31137142D01*
X75885000Y-31172857D01*
X75920714Y-31244285D01*
X75920714Y-31315714D01*
X75920714Y-31494285D02*
X75420714Y-31672857D01*
X75920714Y-31851428D01*
X75420714Y-32244285D02*
X75456428Y-32172857D01*
X75492142Y-32137142D01*
X75563571Y-32101428D01*
X75777857Y-32101428D01*
X75849285Y-32137142D01*
X75885000Y-32172857D01*
X75920714Y-32244285D01*
X75920714Y-32351428D01*
X75885000Y-32422857D01*
X75849285Y-32458571D01*
X75777857Y-32494285D01*
X75563571Y-32494285D01*
X75492142Y-32458571D01*
X75456428Y-32422857D01*
X75420714Y-32351428D01*
X75420714Y-32244285D01*
X29152857Y-66369285D02*
X29152857Y-65619285D01*
X29938571Y-66297857D02*
X29902857Y-66333571D01*
X29795714Y-66369285D01*
X29724285Y-66369285D01*
X29617142Y-66333571D01*
X29545714Y-66262142D01*
X29510000Y-66190714D01*
X29474285Y-66047857D01*
X29474285Y-65940714D01*
X29510000Y-65797857D01*
X29545714Y-65726428D01*
X29617142Y-65655000D01*
X29724285Y-65619285D01*
X29795714Y-65619285D01*
X29902857Y-65655000D01*
X29938571Y-65690714D01*
X30224285Y-66333571D02*
X30331428Y-66369285D01*
X30510000Y-66369285D01*
X30581428Y-66333571D01*
X30617142Y-66297857D01*
X30652857Y-66226428D01*
X30652857Y-66155000D01*
X30617142Y-66083571D01*
X30581428Y-66047857D01*
X30510000Y-66012142D01*
X30367142Y-65976428D01*
X30295714Y-65940714D01*
X30260000Y-65905000D01*
X30224285Y-65833571D01*
X30224285Y-65762142D01*
X30260000Y-65690714D01*
X30295714Y-65655000D01*
X30367142Y-65619285D01*
X30545714Y-65619285D01*
X30652857Y-65655000D01*
X30974285Y-66369285D02*
X30974285Y-65619285D01*
X31260000Y-65619285D01*
X31331428Y-65655000D01*
X31367142Y-65690714D01*
X31402857Y-65762142D01*
X31402857Y-65869285D01*
X31367142Y-65940714D01*
X31331428Y-65976428D01*
X31260000Y-66012142D01*
X30974285Y-66012142D01*
X38688571Y-81905000D02*
X38617142Y-81869285D01*
X38510000Y-81869285D01*
X38402857Y-81905000D01*
X38331428Y-81976428D01*
X38295714Y-82047857D01*
X38260000Y-82190714D01*
X38260000Y-82297857D01*
X38295714Y-82440714D01*
X38331428Y-82512142D01*
X38402857Y-82583571D01*
X38510000Y-82619285D01*
X38581428Y-82619285D01*
X38688571Y-82583571D01*
X38724285Y-82547857D01*
X38724285Y-82297857D01*
X38581428Y-82297857D01*
X39045714Y-82619285D02*
X39045714Y-81869285D01*
X39474285Y-82619285D01*
X39474285Y-81869285D01*
X39831428Y-82619285D02*
X39831428Y-81869285D01*
X40010000Y-81869285D01*
X40117142Y-81905000D01*
X40188571Y-81976428D01*
X40224285Y-82047857D01*
X40260000Y-82190714D01*
X40260000Y-82297857D01*
X40224285Y-82440714D01*
X40188571Y-82512142D01*
X40117142Y-82583571D01*
X40010000Y-82619285D01*
X39831428Y-82619285D01*
X43510000Y-81869285D02*
X43760000Y-82619285D01*
X44010000Y-81869285D01*
X44688571Y-82547857D02*
X44652857Y-82583571D01*
X44545714Y-82619285D01*
X44474285Y-82619285D01*
X44367142Y-82583571D01*
X44295714Y-82512142D01*
X44260000Y-82440714D01*
X44224285Y-82297857D01*
X44224285Y-82190714D01*
X44260000Y-82047857D01*
X44295714Y-81976428D01*
X44367142Y-81905000D01*
X44474285Y-81869285D01*
X44545714Y-81869285D01*
X44652857Y-81905000D01*
X44688571Y-81940714D01*
X45438571Y-82547857D02*
X45402857Y-82583571D01*
X45295714Y-82619285D01*
X45224285Y-82619285D01*
X45117142Y-82583571D01*
X45045714Y-82512142D01*
X45010000Y-82440714D01*
X44974285Y-82297857D01*
X44974285Y-82190714D01*
X45010000Y-82047857D01*
X45045714Y-81976428D01*
X45117142Y-81905000D01*
X45224285Y-81869285D01*
X45295714Y-81869285D01*
X45402857Y-81905000D01*
X45438571Y-81940714D01*
X75760000Y-38119285D02*
X75760000Y-38297857D01*
X75581428Y-38226428D02*
X75760000Y-38297857D01*
X75938571Y-38226428D01*
X75652857Y-38440714D02*
X75760000Y-38297857D01*
X75867142Y-38440714D01*
D11*
X84081428Y-80994285D02*
X84081428Y-80280000D01*
X83367142Y-80208571D01*
X83438571Y-80280000D01*
X83510000Y-80422857D01*
X83510000Y-80780000D01*
X83438571Y-80922857D01*
X83367142Y-80994285D01*
X83224285Y-81065714D01*
X82867142Y-81065714D01*
X82724285Y-80994285D01*
X82652857Y-80922857D01*
X82581428Y-80780000D01*
X82581428Y-80422857D01*
X82652857Y-80280000D01*
X82724285Y-80208571D01*
X84081428Y-81494285D02*
X82581428Y-81994285D01*
X84081428Y-82494285D01*
X56380714Y-32455357D02*
X56880714Y-32455357D01*
X57095000Y-33241071D02*
X56380714Y-33241071D01*
X56380714Y-31741071D01*
X57095000Y-31741071D01*
X57737857Y-33241071D02*
X57737857Y-31741071D01*
X58309285Y-31741071D01*
X58452142Y-31812500D01*
X58523571Y-31883928D01*
X58595000Y-32026785D01*
X58595000Y-32241071D01*
X58523571Y-32383928D01*
X58452142Y-32455357D01*
X58309285Y-32526785D01*
X57737857Y-32526785D01*
X59237857Y-33241071D02*
X59237857Y-31741071D01*
X60809285Y-33098214D02*
X60737857Y-33169642D01*
X60523571Y-33241071D01*
X60380714Y-33241071D01*
X60166428Y-33169642D01*
X60023571Y-33026785D01*
X59952142Y-32883928D01*
X59880714Y-32598214D01*
X59880714Y-32383928D01*
X59952142Y-32098214D01*
X60023571Y-31955357D01*
X60166428Y-31812500D01*
X60380714Y-31741071D01*
X60523571Y-31741071D01*
X60737857Y-31812500D01*
X60809285Y-31883928D01*
X44809285Y-35656071D02*
X44309285Y-34941785D01*
X43952142Y-35656071D02*
X43952142Y-34156071D01*
X44523571Y-34156071D01*
X44666428Y-34227500D01*
X44737857Y-34298928D01*
X44809285Y-34441785D01*
X44809285Y-34656071D01*
X44737857Y-34798928D01*
X44666428Y-34870357D01*
X44523571Y-34941785D01*
X43952142Y-34941785D01*
X45952142Y-34870357D02*
X45452142Y-34870357D01*
X45452142Y-35656071D02*
X45452142Y-34156071D01*
X46166428Y-34156071D01*
X46737857Y-35656071D02*
X46737857Y-34156071D01*
X47452142Y-35656071D02*
X47452142Y-34156071D01*
X47809285Y-34156071D01*
X48023571Y-34227500D01*
X48166428Y-34370357D01*
X48237857Y-34513214D01*
X48309285Y-34798928D01*
X48309285Y-35013214D01*
X48237857Y-35298928D01*
X48166428Y-35441785D01*
X48023571Y-35584642D01*
X47809285Y-35656071D01*
X47452142Y-35656071D01*
X50095000Y-35656071D02*
X50095000Y-34156071D01*
X50452142Y-34156071D01*
X50666428Y-34227500D01*
X50809285Y-34370357D01*
X50880714Y-34513214D01*
X50952142Y-34798928D01*
X50952142Y-35013214D01*
X50880714Y-35298928D01*
X50809285Y-35441785D01*
X50666428Y-35584642D01*
X50452142Y-35656071D01*
X50095000Y-35656071D01*
X51809285Y-35656071D02*
X51666428Y-35584642D01*
X51595000Y-35513214D01*
X51523571Y-35370357D01*
X51523571Y-34941785D01*
X51595000Y-34798928D01*
X51666428Y-34727500D01*
X51809285Y-34656071D01*
X52023571Y-34656071D01*
X52166428Y-34727500D01*
X52237857Y-34798928D01*
X52309285Y-34941785D01*
X52309285Y-35370357D01*
X52237857Y-35513214D01*
X52166428Y-35584642D01*
X52023571Y-35656071D01*
X51809285Y-35656071D01*
X53166428Y-35656071D02*
X53023571Y-35584642D01*
X52952142Y-35513214D01*
X52880714Y-35370357D01*
X52880714Y-34941785D01*
X52952142Y-34798928D01*
X53023571Y-34727500D01*
X53166428Y-34656071D01*
X53380714Y-34656071D01*
X53523571Y-34727500D01*
X53595000Y-34798928D01*
X53666428Y-34941785D01*
X53666428Y-35370357D01*
X53595000Y-35513214D01*
X53523571Y-35584642D01*
X53380714Y-35656071D01*
X53166428Y-35656071D01*
X54309285Y-35656071D02*
X54309285Y-34656071D01*
X54309285Y-34941785D02*
X54380714Y-34798928D01*
X54452142Y-34727500D01*
X54595000Y-34656071D01*
X54737857Y-34656071D01*
X57095000Y-35656071D02*
X56380714Y-35656071D01*
X56380714Y-34156071D01*
X57809285Y-35656071D02*
X57666428Y-35584642D01*
X57595000Y-35513214D01*
X57523571Y-35370357D01*
X57523571Y-34941785D01*
X57595000Y-34798928D01*
X57666428Y-34727500D01*
X57809285Y-34656071D01*
X58023571Y-34656071D01*
X58166428Y-34727500D01*
X58237857Y-34798928D01*
X58309285Y-34941785D01*
X58309285Y-35370357D01*
X58237857Y-35513214D01*
X58166428Y-35584642D01*
X58023571Y-35656071D01*
X57809285Y-35656071D01*
X59595000Y-35584642D02*
X59452142Y-35656071D01*
X59166428Y-35656071D01*
X59023571Y-35584642D01*
X58952142Y-35513214D01*
X58880714Y-35370357D01*
X58880714Y-34941785D01*
X58952142Y-34798928D01*
X59023571Y-34727500D01*
X59166428Y-34656071D01*
X59452142Y-34656071D01*
X59595000Y-34727500D01*
X60237857Y-35656071D02*
X60237857Y-34156071D01*
X60380714Y-35084642D02*
X60809285Y-35656071D01*
X60809285Y-34656071D02*
X60237857Y-35227500D01*
D10*
X83670714Y-28690714D02*
X83492142Y-28690714D01*
X83563571Y-28512142D02*
X83492142Y-28690714D01*
X83563571Y-28869285D01*
X83349285Y-28583571D02*
X83492142Y-28690714D01*
X83349285Y-28797857D01*
X82920714Y-29726428D02*
X83670714Y-29726428D01*
X82920714Y-30512142D02*
X83277857Y-30262142D01*
X82920714Y-30083571D02*
X83670714Y-30083571D01*
X83670714Y-30369285D01*
X83635000Y-30440714D01*
X83599285Y-30476428D01*
X83527857Y-30512142D01*
X83420714Y-30512142D01*
X83349285Y-30476428D01*
X83313571Y-30440714D01*
X83277857Y-30369285D01*
X83277857Y-30083571D01*
X33760000Y-75440714D02*
X33760000Y-75262142D01*
X33938571Y-75333571D02*
X33760000Y-75262142D01*
X33581428Y-75333571D01*
X33867142Y-75119285D02*
X33760000Y-75262142D01*
X33652857Y-75119285D01*
X41599285Y-82547857D02*
X41563571Y-82583571D01*
X41456428Y-82619285D01*
X41385000Y-82619285D01*
X41277857Y-82583571D01*
X41206428Y-82512142D01*
X41170714Y-82440714D01*
X41135000Y-82297857D01*
X41135000Y-82190714D01*
X41170714Y-82047857D01*
X41206428Y-81976428D01*
X41277857Y-81905000D01*
X41385000Y-81869285D01*
X41456428Y-81869285D01*
X41563571Y-81905000D01*
X41599285Y-81940714D01*
X41813571Y-81869285D02*
X42242142Y-81869285D01*
X42027857Y-82619285D02*
X42027857Y-81869285D01*
X42456428Y-82583571D02*
X42563571Y-82619285D01*
X42742142Y-82619285D01*
X42813571Y-82583571D01*
X42849285Y-82547857D01*
X42885000Y-82476428D01*
X42885000Y-82405000D01*
X42849285Y-82333571D01*
X42813571Y-82297857D01*
X42742142Y-82262142D01*
X42599285Y-82226428D01*
X42527857Y-82190714D01*
X42492142Y-82155000D01*
X42456428Y-82083571D01*
X42456428Y-82012142D01*
X42492142Y-81940714D01*
X42527857Y-81905000D01*
X42599285Y-81869285D01*
X42777857Y-81869285D01*
X42885000Y-81905000D01*
X51152857Y-82619285D02*
X51152857Y-81869285D01*
X51331428Y-81869285D01*
X51438571Y-81905000D01*
X51510000Y-81976428D01*
X51545714Y-82047857D01*
X51581428Y-82190714D01*
X51581428Y-82297857D01*
X51545714Y-82440714D01*
X51510000Y-82512142D01*
X51438571Y-82583571D01*
X51331428Y-82619285D01*
X51152857Y-82619285D01*
X51795714Y-81869285D02*
X52224285Y-81869285D01*
X52010000Y-82619285D02*
X52010000Y-81869285D01*
X52902857Y-82619285D02*
X52652857Y-82262142D01*
X52474285Y-82619285D02*
X52474285Y-81869285D01*
X52760000Y-81869285D01*
X52831428Y-81905000D01*
X52867142Y-81940714D01*
X52902857Y-82012142D01*
X52902857Y-82119285D01*
X52867142Y-82190714D01*
X52831428Y-82226428D01*
X52760000Y-82262142D01*
X52474285Y-82262142D01*
X28349285Y-77869285D02*
X28099285Y-77512142D01*
X27920714Y-77869285D02*
X27920714Y-77119285D01*
X28206428Y-77119285D01*
X28277857Y-77155000D01*
X28313571Y-77190714D01*
X28349285Y-77262142D01*
X28349285Y-77369285D01*
X28313571Y-77440714D01*
X28277857Y-77476428D01*
X28206428Y-77512142D01*
X27920714Y-77512142D01*
X28635000Y-77833571D02*
X28742142Y-77869285D01*
X28920714Y-77869285D01*
X28992142Y-77833571D01*
X29027857Y-77797857D01*
X29063571Y-77726428D01*
X29063571Y-77655000D01*
X29027857Y-77583571D01*
X28992142Y-77547857D01*
X28920714Y-77512142D01*
X28777857Y-77476428D01*
X28706428Y-77440714D01*
X28670714Y-77405000D01*
X28635000Y-77333571D01*
X28635000Y-77262142D01*
X28670714Y-77190714D01*
X28706428Y-77155000D01*
X28777857Y-77119285D01*
X28956428Y-77119285D01*
X29063571Y-77155000D01*
X29277857Y-77119285D02*
X29706428Y-77119285D01*
X29492142Y-77869285D02*
X29492142Y-77119285D01*
X76617142Y-23119285D02*
X76617142Y-23297857D01*
X76438571Y-23226428D02*
X76617142Y-23297857D01*
X76795714Y-23226428D01*
X76510000Y-23440714D02*
X76617142Y-23297857D01*
X76724285Y-23440714D01*
X77617142Y-23833571D02*
X77724285Y-23869285D01*
X77902857Y-23869285D01*
X77974285Y-23833571D01*
X78010000Y-23797857D01*
X78045714Y-23726428D01*
X78045714Y-23655000D01*
X78010000Y-23583571D01*
X77974285Y-23547857D01*
X77902857Y-23512142D01*
X77760000Y-23476428D01*
X77688571Y-23440714D01*
X77652857Y-23405000D01*
X77617142Y-23333571D01*
X77617142Y-23262142D01*
X77652857Y-23190714D01*
X77688571Y-23155000D01*
X77760000Y-23119285D01*
X77938571Y-23119285D01*
X78045714Y-23155000D01*
X78295714Y-23119285D02*
X78474285Y-23869285D01*
X78617142Y-23333571D01*
X78760000Y-23869285D01*
X78938571Y-23119285D01*
X79045714Y-23940714D02*
X79617142Y-23940714D01*
X79795714Y-23869285D02*
X79795714Y-23119285D01*
X79974285Y-23119285D01*
X80081428Y-23155000D01*
X80152857Y-23226428D01*
X80188571Y-23297857D01*
X80224285Y-23440714D01*
X80224285Y-23547857D01*
X80188571Y-23690714D01*
X80152857Y-23762142D01*
X80081428Y-23833571D01*
X79974285Y-23869285D01*
X79795714Y-23869285D01*
X80652857Y-23869285D02*
X80581428Y-23833571D01*
X80545714Y-23797857D01*
X80510000Y-23726428D01*
X80510000Y-23512142D01*
X80545714Y-23440714D01*
X80581428Y-23405000D01*
X80652857Y-23369285D01*
X80760000Y-23369285D01*
X80831428Y-23405000D01*
X80867142Y-23440714D01*
X80902857Y-23512142D01*
X80902857Y-23726428D01*
X80867142Y-23797857D01*
X80831428Y-23833571D01*
X80760000Y-23869285D01*
X80652857Y-23869285D01*
X81331428Y-23869285D02*
X81260000Y-23833571D01*
X81224285Y-23797857D01*
X81188571Y-23726428D01*
X81188571Y-23512142D01*
X81224285Y-23440714D01*
X81260000Y-23405000D01*
X81331428Y-23369285D01*
X81438571Y-23369285D01*
X81510000Y-23405000D01*
X81545714Y-23440714D01*
X81581428Y-23512142D01*
X81581428Y-23726428D01*
X81545714Y-23797857D01*
X81510000Y-23833571D01*
X81438571Y-23869285D01*
X81331428Y-23869285D01*
X81902857Y-23869285D02*
X81902857Y-23369285D01*
X81902857Y-23512142D02*
X81938571Y-23440714D01*
X81974285Y-23405000D01*
X82045714Y-23369285D01*
X82117142Y-23369285D01*
X49385000Y-82619285D02*
X49135000Y-82262142D01*
X48956428Y-82619285D02*
X48956428Y-81869285D01*
X49242142Y-81869285D01*
X49313571Y-81905000D01*
X49349285Y-81940714D01*
X49385000Y-82012142D01*
X49385000Y-82119285D01*
X49349285Y-82190714D01*
X49313571Y-82226428D01*
X49242142Y-82262142D01*
X48956428Y-82262142D01*
X49635000Y-81869285D02*
X50135000Y-82619285D01*
X50135000Y-81869285D02*
X49635000Y-82619285D01*
X46438571Y-81869285D02*
X46867142Y-81869285D01*
X46652857Y-82619285D02*
X46652857Y-81869285D01*
X47045714Y-81869285D02*
X47545714Y-82619285D01*
X47545714Y-81869285D02*
X47045714Y-82619285D01*
D12*
%TO.C,HOLE1*%
%TO.C,HOLE3*%
%TO.C,HOLE4*%
%TO.C,HOLE2*%
D13*
%TO.C,R2*%
X74237258Y-26522500D02*
X73762742Y-26522500D01*
X74237258Y-25477500D02*
X73762742Y-25477500D01*
%TO.C,J_INNER1*%
X79560000Y-27445000D02*
X79560000Y-24845000D01*
X76960000Y-35125000D02*
X82160000Y-35125000D01*
X76960000Y-24845000D02*
X78290000Y-24845000D01*
X76960000Y-27445000D02*
X79560000Y-27445000D01*
X76960000Y-26175000D02*
X76960000Y-24845000D01*
X79560000Y-24845000D02*
X82160000Y-24845000D01*
X76960000Y-27445000D02*
X76960000Y-35125000D01*
X82160000Y-24845000D02*
X82160000Y-35125000D01*
D12*
%TO.C,U1*%
X41135000Y-50655000D02*
X41135000Y-50330000D01*
X48385000Y-43405000D02*
X48060000Y-43405000D01*
X48385000Y-50655000D02*
X48060000Y-50655000D01*
X48385000Y-50655000D02*
X48385000Y-50430000D01*
X41135000Y-50655000D02*
X41460000Y-50655000D01*
X48385000Y-43405000D02*
X48385000Y-43730000D01*
X48385000Y-50430000D02*
X49810000Y-50430000D01*
X41135000Y-43405000D02*
X41135000Y-43730000D01*
X41135000Y-43405000D02*
X41460000Y-43405000D01*
D13*
%TO.C,C5*%
X58660000Y-81465000D02*
X62570000Y-81465000D01*
X62570000Y-79595000D02*
X58660000Y-79595000D01*
X62570000Y-81465000D02*
X62570000Y-79595000D01*
%TO.C,POWER_JACK1*%
X72502500Y-68980000D02*
X72502500Y-67930000D01*
X81902500Y-68130000D02*
X81902500Y-70030000D01*
X72702500Y-82830000D02*
X72702500Y-68130000D01*
X73552500Y-67930000D02*
X72502500Y-67930000D01*
X72702500Y-68130000D02*
X75302500Y-68130000D01*
X79202500Y-68130000D02*
X81902500Y-68130000D01*
X81902500Y-74030000D02*
X81902500Y-82830000D01*
X81902500Y-82830000D02*
X72702500Y-82830000D01*
%TO.C,R9*%
X31997258Y-32507500D02*
X31522742Y-32507500D01*
X31997258Y-33552500D02*
X31522742Y-33552500D01*
%TO.C,REF_ESD*%
G36*
X70747528Y-76764619D02*
G01*
X70758908Y-76783693D01*
X70784488Y-76827421D01*
X70823002Y-76893619D01*
X70873186Y-76980102D01*
X70933775Y-77084685D01*
X71003503Y-77205183D01*
X71081107Y-77339412D01*
X71165320Y-77485187D01*
X71254879Y-77640323D01*
X71346998Y-77800000D01*
X71441076Y-77963117D01*
X71531402Y-78119709D01*
X71616665Y-78267506D01*
X71695557Y-78404240D01*
X71766769Y-78527642D01*
X71828991Y-78635444D01*
X71880913Y-78725377D01*
X71921228Y-78795173D01*
X71948624Y-78842564D01*
X71961507Y-78864786D01*
X71982507Y-78902330D01*
X71993925Y-78925831D01*
X71994551Y-78929920D01*
X71980636Y-78922242D01*
X71941941Y-78900203D01*
X71880487Y-78864971D01*
X71798298Y-78817711D01*
X71697396Y-78759589D01*
X71579805Y-78691771D01*
X71447546Y-78615424D01*
X71302642Y-78531714D01*
X71147117Y-78441806D01*
X70982992Y-78346867D01*
X70920549Y-78310732D01*
X70753487Y-78214083D01*
X70594074Y-78121938D01*
X70444355Y-78035475D01*
X70306376Y-77955871D01*
X70182185Y-77884305D01*
X70073827Y-77821955D01*
X69983348Y-77769998D01*
X69912796Y-77729613D01*
X69864215Y-77701978D01*
X69839654Y-77688272D01*
X69837085Y-77686974D01*
X69844569Y-77675220D01*
X69870614Y-77643795D01*
X69912559Y-77595594D01*
X69967746Y-77533510D01*
X70033517Y-77460439D01*
X70107212Y-77379276D01*
X70186173Y-77292916D01*
X70267740Y-77204253D01*
X70349254Y-77116182D01*
X70428057Y-77031599D01*
X70501490Y-76953397D01*
X70566893Y-76884472D01*
X70621608Y-76827719D01*
X70662977Y-76786032D01*
X70677164Y-76772363D01*
X70724180Y-76728201D01*
X70747528Y-76764619D01*
G37*
D14*
X70747528Y-76764619D02*
X70758908Y-76783693D01*
X70784488Y-76827421D01*
X70823002Y-76893619D01*
X70873186Y-76980102D01*
X70933775Y-77084685D01*
X71003503Y-77205183D01*
X71081107Y-77339412D01*
X71165320Y-77485187D01*
X71254879Y-77640323D01*
X71346998Y-77800000D01*
X71441076Y-77963117D01*
X71531402Y-78119709D01*
X71616665Y-78267506D01*
X71695557Y-78404240D01*
X71766769Y-78527642D01*
X71828991Y-78635444D01*
X71880913Y-78725377D01*
X71921228Y-78795173D01*
X71948624Y-78842564D01*
X71961507Y-78864786D01*
X71982507Y-78902330D01*
X71993925Y-78925831D01*
X71994551Y-78929920D01*
X71980636Y-78922242D01*
X71941941Y-78900203D01*
X71880487Y-78864971D01*
X71798298Y-78817711D01*
X71697396Y-78759589D01*
X71579805Y-78691771D01*
X71447546Y-78615424D01*
X71302642Y-78531714D01*
X71147117Y-78441806D01*
X70982992Y-78346867D01*
X70920549Y-78310732D01*
X70753487Y-78214083D01*
X70594074Y-78121938D01*
X70444355Y-78035475D01*
X70306376Y-77955871D01*
X70182185Y-77884305D01*
X70073827Y-77821955D01*
X69983348Y-77769998D01*
X69912796Y-77729613D01*
X69864215Y-77701978D01*
X69839654Y-77688272D01*
X69837085Y-77686974D01*
X69844569Y-77675220D01*
X69870614Y-77643795D01*
X69912559Y-77595594D01*
X69967746Y-77533510D01*
X70033517Y-77460439D01*
X70107212Y-77379276D01*
X70186173Y-77292916D01*
X70267740Y-77204253D01*
X70349254Y-77116182D01*
X70428057Y-77031599D01*
X70501490Y-76953397D01*
X70566893Y-76884472D01*
X70621608Y-76827719D01*
X70662977Y-76786032D01*
X70677164Y-76772363D01*
X70724180Y-76728201D01*
X70747528Y-76764619D01*
G36*
X68924043Y-73615835D02*
G01*
X68947065Y-73653245D01*
X68982534Y-73712514D01*
X69028996Y-73791118D01*
X69084996Y-73886538D01*
X69149081Y-73996250D01*
X69219796Y-74117734D01*
X69295687Y-74248468D01*
X69375299Y-74385930D01*
X69457178Y-74527598D01*
X69539870Y-74670951D01*
X69621921Y-74813467D01*
X69701876Y-74952624D01*
X69778281Y-75085901D01*
X69849682Y-75210776D01*
X69914624Y-75324727D01*
X69971653Y-75425233D01*
X70019315Y-75509772D01*
X70056155Y-75575822D01*
X70080720Y-75620862D01*
X70091554Y-75642370D01*
X70091951Y-75643714D01*
X70078501Y-75661965D01*
X70041114Y-75689882D01*
X69984235Y-75724725D01*
X69912312Y-75763754D01*
X69837015Y-75800843D01*
X69734560Y-75845817D01*
X69626817Y-75886226D01*
X69510073Y-75922969D01*
X69380618Y-75956942D01*
X69234740Y-75989044D01*
X69068726Y-76020173D01*
X68878866Y-76051227D01*
X68682469Y-76080145D01*
X68511834Y-76105800D01*
X68368545Y-76131198D01*
X68249008Y-76157602D01*
X68149630Y-76186273D01*
X68066818Y-76218473D01*
X67996978Y-76255465D01*
X67936518Y-76298512D01*
X67881845Y-76348875D01*
X67864214Y-76367583D01*
X67826000Y-76411139D01*
X67797732Y-76446682D01*
X67784618Y-76467583D01*
X67784268Y-76469297D01*
X67779680Y-76479806D01*
X67763758Y-76479924D01*
X67733266Y-76468254D01*
X67684968Y-76443396D01*
X67615627Y-76403952D01*
X67567439Y-76375587D01*
X67495583Y-76331247D01*
X67439742Y-76293279D01*
X67403667Y-76264416D01*
X67391113Y-76247388D01*
X67391121Y-76247264D01*
X67398906Y-76231037D01*
X67420892Y-76190400D01*
X67455803Y-76127567D01*
X67502363Y-76044752D01*
X67559295Y-75944172D01*
X67625323Y-75828040D01*
X67699172Y-75698571D01*
X67779564Y-75557980D01*
X67865224Y-75408482D01*
X67954876Y-75252292D01*
X68047243Y-75091624D01*
X68141049Y-74928693D01*
X68235018Y-74765713D01*
X68327874Y-74604900D01*
X68418340Y-74448468D01*
X68505141Y-74298633D01*
X68587000Y-74157608D01*
X68662641Y-74027609D01*
X68730787Y-73910849D01*
X68790163Y-73809545D01*
X68839493Y-73725911D01*
X68877500Y-73662162D01*
X68902907Y-73620511D01*
X68914440Y-73603175D01*
X68914923Y-73602805D01*
X68924043Y-73615835D01*
G37*
X68924043Y-73615835D02*
X68947065Y-73653245D01*
X68982534Y-73712514D01*
X69028996Y-73791118D01*
X69084996Y-73886538D01*
X69149081Y-73996250D01*
X69219796Y-74117734D01*
X69295687Y-74248468D01*
X69375299Y-74385930D01*
X69457178Y-74527598D01*
X69539870Y-74670951D01*
X69621921Y-74813467D01*
X69701876Y-74952624D01*
X69778281Y-75085901D01*
X69849682Y-75210776D01*
X69914624Y-75324727D01*
X69971653Y-75425233D01*
X70019315Y-75509772D01*
X70056155Y-75575822D01*
X70080720Y-75620862D01*
X70091554Y-75642370D01*
X70091951Y-75643714D01*
X70078501Y-75661965D01*
X70041114Y-75689882D01*
X69984235Y-75724725D01*
X69912312Y-75763754D01*
X69837015Y-75800843D01*
X69734560Y-75845817D01*
X69626817Y-75886226D01*
X69510073Y-75922969D01*
X69380618Y-75956942D01*
X69234740Y-75989044D01*
X69068726Y-76020173D01*
X68878866Y-76051227D01*
X68682469Y-76080145D01*
X68511834Y-76105800D01*
X68368545Y-76131198D01*
X68249008Y-76157602D01*
X68149630Y-76186273D01*
X68066818Y-76218473D01*
X67996978Y-76255465D01*
X67936518Y-76298512D01*
X67881845Y-76348875D01*
X67864214Y-76367583D01*
X67826000Y-76411139D01*
X67797732Y-76446682D01*
X67784618Y-76467583D01*
X67784268Y-76469297D01*
X67779680Y-76479806D01*
X67763758Y-76479924D01*
X67733266Y-76468254D01*
X67684968Y-76443396D01*
X67615627Y-76403952D01*
X67567439Y-76375587D01*
X67495583Y-76331247D01*
X67439742Y-76293279D01*
X67403667Y-76264416D01*
X67391113Y-76247388D01*
X67391121Y-76247264D01*
X67398906Y-76231037D01*
X67420892Y-76190400D01*
X67455803Y-76127567D01*
X67502363Y-76044752D01*
X67559295Y-75944172D01*
X67625323Y-75828040D01*
X67699172Y-75698571D01*
X67779564Y-75557980D01*
X67865224Y-75408482D01*
X67954876Y-75252292D01*
X68047243Y-75091624D01*
X68141049Y-74928693D01*
X68235018Y-74765713D01*
X68327874Y-74604900D01*
X68418340Y-74448468D01*
X68505141Y-74298633D01*
X68587000Y-74157608D01*
X68662641Y-74027609D01*
X68730787Y-73910849D01*
X68790163Y-73809545D01*
X68839493Y-73725911D01*
X68877500Y-73662162D01*
X68902907Y-73620511D01*
X68914440Y-73603175D01*
X68914923Y-73602805D01*
X68924043Y-73615835D01*
G36*
X67082094Y-76821158D02*
G01*
X67114619Y-76833736D01*
X67164193Y-76858712D01*
X67235374Y-76897876D01*
X67240916Y-76900988D01*
X67306474Y-76938476D01*
X67361798Y-76971319D01*
X67401455Y-76996205D01*
X67420012Y-77009820D01*
X67420531Y-77010487D01*
X67416048Y-77029390D01*
X67395486Y-77071605D01*
X67360183Y-77134832D01*
X67311480Y-77216772D01*
X67250718Y-77315122D01*
X67179236Y-77427585D01*
X67161445Y-77455165D01*
X67115093Y-77531699D01*
X67081342Y-77597556D01*
X67063153Y-77646782D01*
X67061286Y-77656507D01*
X67062115Y-77699312D01*
X67071394Y-77767209D01*
X67087968Y-77855843D01*
X67110680Y-77960859D01*
X67138373Y-78077902D01*
X67169890Y-78202616D01*
X67204075Y-78330645D01*
X67239771Y-78457634D01*
X67275821Y-78579228D01*
X67311068Y-78691072D01*
X67344356Y-78788810D01*
X67374528Y-78868087D01*
X67395561Y-78915122D01*
X67420337Y-78965225D01*
X67443730Y-79013168D01*
X67444997Y-79015793D01*
X67483699Y-79064220D01*
X67540184Y-79096828D01*
X67605939Y-79112454D01*
X67672451Y-79109937D01*
X67731205Y-79088114D01*
X67764258Y-79059382D01*
X67811859Y-78980583D01*
X67846739Y-78882378D01*
X67865877Y-78774779D01*
X67868588Y-78713780D01*
X67857670Y-78599935D01*
X67825624Y-78505660D01*
X67770726Y-78426379D01*
X67753607Y-78408733D01*
X67702661Y-78359235D01*
X67699163Y-78009362D01*
X67695664Y-77659489D01*
X67784818Y-77524531D01*
X67826654Y-77463445D01*
X67866945Y-77408493D01*
X67899943Y-77367336D01*
X67914126Y-77352192D01*
X67954281Y-77314810D01*
X68008665Y-77344098D01*
X68043039Y-77365084D01*
X68061846Y-77381378D01*
X68063049Y-77384307D01*
X68075903Y-77396728D01*
X68097896Y-77405977D01*
X68119150Y-77414313D01*
X68151694Y-77430149D01*
X68198322Y-77455033D01*
X68261829Y-77490509D01*
X68345008Y-77538123D01*
X68450653Y-77599422D01*
X68508062Y-77632932D01*
X68575594Y-77673071D01*
X68619885Y-77701659D01*
X68644855Y-77722039D01*
X68654423Y-77737553D01*
X68652508Y-77751546D01*
X68650911Y-77754796D01*
X68635376Y-77775266D01*
X68602136Y-77813665D01*
X68555062Y-77865696D01*
X68498028Y-77927066D01*
X68448700Y-77979090D01*
X68335030Y-78102567D01*
X68246105Y-78209591D01*
X68181134Y-78301240D01*
X68139321Y-78378588D01*
X68125217Y-78417866D01*
X68119392Y-78452249D01*
X68113375Y-78510899D01*
X68107696Y-78587117D01*
X68102884Y-78674202D01*
X68100619Y-78729268D01*
X68097459Y-78824464D01*
X68096069Y-78894062D01*
X68096858Y-78943409D01*
X68100235Y-78977854D01*
X68106608Y-79002743D01*
X68116387Y-79023425D01*
X68124067Y-79036053D01*
X68168421Y-79084726D01*
X68225574Y-79118645D01*
X68285708Y-79133438D01*
X68330773Y-79128086D01*
X68371576Y-79104930D01*
X68422724Y-79063462D01*
X68477042Y-79010912D01*
X68527357Y-78954516D01*
X68566494Y-78901505D01*
X68580905Y-78875889D01*
X68602491Y-78840814D01*
X68641753Y-78787389D01*
X68695102Y-78719789D01*
X68758952Y-78642190D01*
X68829715Y-78558768D01*
X68903804Y-78473698D01*
X68977632Y-78391155D01*
X69047611Y-78315316D01*
X69110155Y-78250356D01*
X69159260Y-78202669D01*
X69213779Y-78155032D01*
X69259642Y-78119908D01*
X69291811Y-78100949D01*
X69302489Y-78098864D01*
X69318853Y-78107274D01*
X69359671Y-78129846D01*
X69422586Y-78165224D01*
X69505244Y-78212054D01*
X69605289Y-78268981D01*
X69720366Y-78334649D01*
X69848119Y-78407703D01*
X69986194Y-78486788D01*
X70132234Y-78570548D01*
X70283884Y-78657629D01*
X70438790Y-78746676D01*
X70594595Y-78836332D01*
X70748944Y-78925243D01*
X70899482Y-79012054D01*
X71043854Y-79095409D01*
X71179704Y-79173954D01*
X71304677Y-79246333D01*
X71416417Y-79311190D01*
X71512570Y-79367171D01*
X71590779Y-79412920D01*
X71648689Y-79447083D01*
X71683946Y-79468304D01*
X71694165Y-79474963D01*
X71680402Y-79476280D01*
X71637104Y-79477559D01*
X71565714Y-79478796D01*
X71467673Y-79479983D01*
X71344422Y-79481115D01*
X71197403Y-79482186D01*
X71028057Y-79483189D01*
X70837826Y-79484119D01*
X70628151Y-79484968D01*
X70400473Y-79485732D01*
X70156235Y-79486403D01*
X69896877Y-79486976D01*
X69623841Y-79487444D01*
X69338568Y-79487802D01*
X69042500Y-79488042D01*
X68737079Y-79488159D01*
X68608924Y-79488171D01*
X65508970Y-79488171D01*
X65730053Y-79104847D01*
X65776856Y-79023680D01*
X65837102Y-78919166D01*
X65908778Y-78794801D01*
X65989869Y-78654082D01*
X66078362Y-78500503D01*
X66172240Y-78337562D01*
X66269491Y-78168754D01*
X66368100Y-77997575D01*
X66466053Y-77827521D01*
X66490825Y-77784512D01*
X66581152Y-77627857D01*
X66667289Y-77478803D01*
X66747942Y-77339568D01*
X66821816Y-77212371D01*
X66887617Y-77099432D01*
X66944050Y-77002968D01*
X66989821Y-76925200D01*
X67023635Y-76868346D01*
X67044198Y-76834625D01*
X67049953Y-76826040D01*
X67062058Y-76819189D01*
X67082094Y-76821158D01*
G37*
X67082094Y-76821158D02*
X67114619Y-76833736D01*
X67164193Y-76858712D01*
X67235374Y-76897876D01*
X67240916Y-76900988D01*
X67306474Y-76938476D01*
X67361798Y-76971319D01*
X67401455Y-76996205D01*
X67420012Y-77009820D01*
X67420531Y-77010487D01*
X67416048Y-77029390D01*
X67395486Y-77071605D01*
X67360183Y-77134832D01*
X67311480Y-77216772D01*
X67250718Y-77315122D01*
X67179236Y-77427585D01*
X67161445Y-77455165D01*
X67115093Y-77531699D01*
X67081342Y-77597556D01*
X67063153Y-77646782D01*
X67061286Y-77656507D01*
X67062115Y-77699312D01*
X67071394Y-77767209D01*
X67087968Y-77855843D01*
X67110680Y-77960859D01*
X67138373Y-78077902D01*
X67169890Y-78202616D01*
X67204075Y-78330645D01*
X67239771Y-78457634D01*
X67275821Y-78579228D01*
X67311068Y-78691072D01*
X67344356Y-78788810D01*
X67374528Y-78868087D01*
X67395561Y-78915122D01*
X67420337Y-78965225D01*
X67443730Y-79013168D01*
X67444997Y-79015793D01*
X67483699Y-79064220D01*
X67540184Y-79096828D01*
X67605939Y-79112454D01*
X67672451Y-79109937D01*
X67731205Y-79088114D01*
X67764258Y-79059382D01*
X67811859Y-78980583D01*
X67846739Y-78882378D01*
X67865877Y-78774779D01*
X67868588Y-78713780D01*
X67857670Y-78599935D01*
X67825624Y-78505660D01*
X67770726Y-78426379D01*
X67753607Y-78408733D01*
X67702661Y-78359235D01*
X67699163Y-78009362D01*
X67695664Y-77659489D01*
X67784818Y-77524531D01*
X67826654Y-77463445D01*
X67866945Y-77408493D01*
X67899943Y-77367336D01*
X67914126Y-77352192D01*
X67954281Y-77314810D01*
X68008665Y-77344098D01*
X68043039Y-77365084D01*
X68061846Y-77381378D01*
X68063049Y-77384307D01*
X68075903Y-77396728D01*
X68097896Y-77405977D01*
X68119150Y-77414313D01*
X68151694Y-77430149D01*
X68198322Y-77455033D01*
X68261829Y-77490509D01*
X68345008Y-77538123D01*
X68450653Y-77599422D01*
X68508062Y-77632932D01*
X68575594Y-77673071D01*
X68619885Y-77701659D01*
X68644855Y-77722039D01*
X68654423Y-77737553D01*
X68652508Y-77751546D01*
X68650911Y-77754796D01*
X68635376Y-77775266D01*
X68602136Y-77813665D01*
X68555062Y-77865696D01*
X68498028Y-77927066D01*
X68448700Y-77979090D01*
X68335030Y-78102567D01*
X68246105Y-78209591D01*
X68181134Y-78301240D01*
X68139321Y-78378588D01*
X68125217Y-78417866D01*
X68119392Y-78452249D01*
X68113375Y-78510899D01*
X68107696Y-78587117D01*
X68102884Y-78674202D01*
X68100619Y-78729268D01*
X68097459Y-78824464D01*
X68096069Y-78894062D01*
X68096858Y-78943409D01*
X68100235Y-78977854D01*
X68106608Y-79002743D01*
X68116387Y-79023425D01*
X68124067Y-79036053D01*
X68168421Y-79084726D01*
X68225574Y-79118645D01*
X68285708Y-79133438D01*
X68330773Y-79128086D01*
X68371576Y-79104930D01*
X68422724Y-79063462D01*
X68477042Y-79010912D01*
X68527357Y-78954516D01*
X68566494Y-78901505D01*
X68580905Y-78875889D01*
X68602491Y-78840814D01*
X68641753Y-78787389D01*
X68695102Y-78719789D01*
X68758952Y-78642190D01*
X68829715Y-78558768D01*
X68903804Y-78473698D01*
X68977632Y-78391155D01*
X69047611Y-78315316D01*
X69110155Y-78250356D01*
X69159260Y-78202669D01*
X69213779Y-78155032D01*
X69259642Y-78119908D01*
X69291811Y-78100949D01*
X69302489Y-78098864D01*
X69318853Y-78107274D01*
X69359671Y-78129846D01*
X69422586Y-78165224D01*
X69505244Y-78212054D01*
X69605289Y-78268981D01*
X69720366Y-78334649D01*
X69848119Y-78407703D01*
X69986194Y-78486788D01*
X70132234Y-78570548D01*
X70283884Y-78657629D01*
X70438790Y-78746676D01*
X70594595Y-78836332D01*
X70748944Y-78925243D01*
X70899482Y-79012054D01*
X71043854Y-79095409D01*
X71179704Y-79173954D01*
X71304677Y-79246333D01*
X71416417Y-79311190D01*
X71512570Y-79367171D01*
X71590779Y-79412920D01*
X71648689Y-79447083D01*
X71683946Y-79468304D01*
X71694165Y-79474963D01*
X71680402Y-79476280D01*
X71637104Y-79477559D01*
X71565714Y-79478796D01*
X71467673Y-79479983D01*
X71344422Y-79481115D01*
X71197403Y-79482186D01*
X71028057Y-79483189D01*
X70837826Y-79484119D01*
X70628151Y-79484968D01*
X70400473Y-79485732D01*
X70156235Y-79486403D01*
X69896877Y-79486976D01*
X69623841Y-79487444D01*
X69338568Y-79487802D01*
X69042500Y-79488042D01*
X68737079Y-79488159D01*
X68608924Y-79488171D01*
X65508970Y-79488171D01*
X65730053Y-79104847D01*
X65776856Y-79023680D01*
X65837102Y-78919166D01*
X65908778Y-78794801D01*
X65989869Y-78654082D01*
X66078362Y-78500503D01*
X66172240Y-78337562D01*
X66269491Y-78168754D01*
X66368100Y-77997575D01*
X66466053Y-77827521D01*
X66490825Y-77784512D01*
X66581152Y-77627857D01*
X66667289Y-77478803D01*
X66747942Y-77339568D01*
X66821816Y-77212371D01*
X66887617Y-77099432D01*
X66944050Y-77002968D01*
X66989821Y-76925200D01*
X67023635Y-76868346D01*
X67044198Y-76834625D01*
X67049953Y-76826040D01*
X67062058Y-76819189D01*
X67082094Y-76821158D01*
D13*
%TO.C,J_UART1*%
X40680000Y-78700000D02*
X53440000Y-78700000D01*
X40680000Y-81360000D02*
X53440000Y-81360000D01*
X53440000Y-81360000D02*
X53440000Y-78700000D01*
X39410000Y-81360000D02*
X38080000Y-81360000D01*
X38080000Y-81360000D02*
X38080000Y-80030000D01*
X40680000Y-81360000D02*
X40680000Y-78700000D01*
%TO.C,R8*%
X31997258Y-37507500D02*
X31522742Y-37507500D01*
X31997258Y-38552500D02*
X31522742Y-38552500D01*
%TO.C,C2*%
X61770000Y-47170580D02*
X61770000Y-46889420D01*
X60750000Y-47170580D02*
X60750000Y-46889420D01*
%TO.C,C1*%
X47490000Y-74859420D02*
X47490000Y-75140580D01*
X48510000Y-74859420D02*
X48510000Y-75140580D01*
%TO.C,BZ1*%
X34260000Y-53030000D02*
G75*
G03*
X34260000Y-53030000I-4500000J0D01*
G01*
D14*
X32560000Y-53030000D02*
G75*
G03*
X32560000Y-53030000I-2800000J0D01*
G01*
D13*
%TO.C,R10*%
X50477500Y-71237258D02*
X50477500Y-70762742D01*
X51522500Y-71237258D02*
X51522500Y-70762742D01*
%TO.C,D1*%
X64360000Y-67180000D02*
X69760000Y-67180000D01*
X64360000Y-63880000D02*
X69760000Y-63880000D01*
X64360000Y-63880000D02*
X64360000Y-67180000D01*
%TO.C,R7*%
X31997258Y-42507500D02*
X31522742Y-42507500D01*
X31997258Y-43552500D02*
X31522742Y-43552500D01*
%TO.C,SW3*%
X55510000Y-23030000D02*
X60010000Y-23030000D01*
X60010000Y-16530000D02*
X55510000Y-16530000D01*
X54260000Y-19030000D02*
X54260000Y-20530000D01*
X61260000Y-20530000D02*
X61260000Y-19030000D01*
%TO.C,SW4*%
X72010000Y-20530000D02*
X72010000Y-19030000D01*
X70760000Y-16530000D02*
X66260000Y-16530000D01*
X65010000Y-19030000D02*
X65010000Y-20530000D01*
X66260000Y-23030000D02*
X70760000Y-23030000D01*
%TO.C,D2*%
X26775000Y-43765000D02*
X29060000Y-43765000D01*
X26775000Y-42295000D02*
X26775000Y-43765000D01*
X29060000Y-42295000D02*
X26775000Y-42295000D01*
%TO.C,SW2*%
X34600000Y-21600000D02*
X34600000Y-18460000D01*
X46900000Y-13880000D02*
X46900000Y-16600000D01*
X46900000Y-23460000D02*
X46900000Y-26180000D01*
X46900000Y-26180000D02*
X34600000Y-26180000D01*
X46900000Y-18460000D02*
X46900000Y-21600000D01*
X34600000Y-13880000D02*
X46900000Y-13880000D01*
X34600000Y-26180000D02*
X34600000Y-23460000D01*
X34600000Y-16600000D02*
X34600000Y-13880000D01*
X45229050Y-19990000D02*
G75*
G03*
X45229050Y-19990000I-4579050J0D01*
G01*
%TO.C,SW1*%
X28985000Y-81360000D02*
X27655000Y-81360000D01*
X32855000Y-81360000D02*
X32855000Y-78700000D01*
X30255000Y-81360000D02*
X32855000Y-81360000D01*
X30255000Y-81360000D02*
X30255000Y-78700000D01*
X30255000Y-78700000D02*
X32855000Y-78700000D01*
X27655000Y-81360000D02*
X27655000Y-80030000D01*
%TO.C,R4*%
X49997500Y-23592258D02*
X49997500Y-23117742D01*
X51042500Y-23592258D02*
X51042500Y-23117742D01*
%TO.C,J_SPI1*%
X27665000Y-74860000D02*
X27665000Y-67120000D01*
X32865000Y-67120000D02*
X27665000Y-67120000D01*
X32865000Y-72260000D02*
X32865000Y-67120000D01*
X30265000Y-72260000D02*
X30265000Y-74860000D01*
X32865000Y-72260000D02*
X30265000Y-72260000D01*
X32865000Y-73530000D02*
X32865000Y-74860000D01*
X30265000Y-74860000D02*
X27665000Y-74860000D01*
X32865000Y-74860000D02*
X31535000Y-74860000D01*
%TO.C,R11*%
X50477500Y-66762742D02*
X50477500Y-67237258D01*
X51522500Y-66762742D02*
X51522500Y-67237258D01*
%TO.C,R6*%
X64737500Y-25767258D02*
X64737500Y-25292742D01*
X65782500Y-25767258D02*
X65782500Y-25292742D01*
%TO.C,REF_OSHW*%
G36*
X65855814Y-31268931D02*
G01*
X65939635Y-31713555D01*
X66248920Y-31841053D01*
X66558206Y-31968551D01*
X66929246Y-31716246D01*
X67033157Y-31645996D01*
X67127087Y-31583272D01*
X67206652Y-31530938D01*
X67267470Y-31491857D01*
X67305157Y-31468893D01*
X67315421Y-31463942D01*
X67333910Y-31476676D01*
X67373420Y-31511882D01*
X67429522Y-31565062D01*
X67497787Y-31631718D01*
X67573786Y-31707354D01*
X67653092Y-31787472D01*
X67731275Y-31867574D01*
X67803907Y-31943164D01*
X67866559Y-32009745D01*
X67914803Y-32062818D01*
X67944210Y-32097887D01*
X67951241Y-32109623D01*
X67941123Y-32131260D01*
X67912759Y-32178662D01*
X67869129Y-32247193D01*
X67813218Y-32332215D01*
X67748006Y-32429093D01*
X67710219Y-32484350D01*
X67641343Y-32585248D01*
X67580140Y-32676299D01*
X67529578Y-32752970D01*
X67492628Y-32810728D01*
X67472258Y-32845043D01*
X67469197Y-32852254D01*
X67476136Y-32872748D01*
X67495051Y-32920513D01*
X67523087Y-32988832D01*
X67557391Y-33070989D01*
X67595109Y-33160270D01*
X67633387Y-33249958D01*
X67669370Y-33333338D01*
X67700206Y-33403694D01*
X67723039Y-33454310D01*
X67735017Y-33478471D01*
X67735724Y-33479422D01*
X67754531Y-33484036D01*
X67804618Y-33494328D01*
X67880793Y-33509287D01*
X67977865Y-33527901D01*
X68090643Y-33549159D01*
X68156442Y-33561418D01*
X68276950Y-33584362D01*
X68385797Y-33606195D01*
X68477476Y-33625722D01*
X68546481Y-33641748D01*
X68587304Y-33653079D01*
X68595511Y-33656674D01*
X68603548Y-33681006D01*
X68610033Y-33735959D01*
X68614970Y-33815108D01*
X68618364Y-33912026D01*
X68620218Y-34020287D01*
X68620538Y-34133465D01*
X68619327Y-34245135D01*
X68616590Y-34348868D01*
X68612331Y-34438241D01*
X68606555Y-34506826D01*
X68599267Y-34548197D01*
X68594895Y-34556810D01*
X68568764Y-34567133D01*
X68513393Y-34581892D01*
X68436107Y-34599352D01*
X68344230Y-34617780D01*
X68312158Y-34623741D01*
X68157524Y-34652066D01*
X68035375Y-34674876D01*
X67941673Y-34693080D01*
X67872384Y-34707583D01*
X67823471Y-34719292D01*
X67790897Y-34729115D01*
X67770628Y-34737956D01*
X67758626Y-34746724D01*
X67756947Y-34748457D01*
X67740184Y-34776371D01*
X67714614Y-34830695D01*
X67682788Y-34904777D01*
X67647260Y-34991965D01*
X67610583Y-35085608D01*
X67575311Y-35179052D01*
X67543996Y-35265647D01*
X67519193Y-35338740D01*
X67503454Y-35391678D01*
X67499332Y-35417811D01*
X67499676Y-35418726D01*
X67513641Y-35440086D01*
X67545322Y-35487084D01*
X67591391Y-35554827D01*
X67648518Y-35638423D01*
X67713373Y-35732982D01*
X67731843Y-35759854D01*
X67797699Y-35857275D01*
X67855650Y-35946163D01*
X67902538Y-36021412D01*
X67935207Y-36077920D01*
X67950500Y-36110581D01*
X67951241Y-36114593D01*
X67938392Y-36135684D01*
X67902888Y-36177464D01*
X67849293Y-36235445D01*
X67782171Y-36305135D01*
X67706087Y-36382045D01*
X67625604Y-36461683D01*
X67545287Y-36539561D01*
X67469699Y-36611186D01*
X67403405Y-36672070D01*
X67350969Y-36717721D01*
X67316955Y-36743650D01*
X67307545Y-36747883D01*
X67285643Y-36737912D01*
X67240800Y-36711020D01*
X67180321Y-36671736D01*
X67133789Y-36640117D01*
X67049475Y-36582098D01*
X66949626Y-36513784D01*
X66849473Y-36445579D01*
X66795627Y-36409075D01*
X66613371Y-36285800D01*
X66460381Y-36368520D01*
X66390682Y-36404759D01*
X66331414Y-36432926D01*
X66291311Y-36448991D01*
X66281103Y-36451226D01*
X66268829Y-36434722D01*
X66244613Y-36388082D01*
X66210263Y-36315609D01*
X66167588Y-36221606D01*
X66118394Y-36110374D01*
X66064490Y-35986215D01*
X66007684Y-35853432D01*
X65949782Y-35716327D01*
X65892593Y-35579202D01*
X65837924Y-35446358D01*
X65787584Y-35322098D01*
X65743380Y-35210725D01*
X65707119Y-35116539D01*
X65680609Y-35043844D01*
X65665658Y-34996941D01*
X65663254Y-34980833D01*
X65682311Y-34960286D01*
X65724036Y-34926933D01*
X65779706Y-34887702D01*
X65784378Y-34884599D01*
X65928264Y-34769423D01*
X66044283Y-34635053D01*
X66131430Y-34485784D01*
X66188699Y-34325913D01*
X66215086Y-34159737D01*
X66209585Y-33991552D01*
X66171190Y-33825655D01*
X66098895Y-33666342D01*
X66077626Y-33631487D01*
X65966996Y-33490737D01*
X65836302Y-33377714D01*
X65690064Y-33293003D01*
X65532808Y-33237194D01*
X65369057Y-33210874D01*
X65203333Y-33214630D01*
X65040162Y-33249050D01*
X64884065Y-33314723D01*
X64739567Y-33412235D01*
X64694869Y-33451813D01*
X64581112Y-33575703D01*
X64498218Y-33706124D01*
X64441356Y-33852315D01*
X64409687Y-33997088D01*
X64401869Y-34159860D01*
X64427938Y-34323440D01*
X64485245Y-34482298D01*
X64571144Y-34630906D01*
X64682986Y-34763735D01*
X64818123Y-34875256D01*
X64835883Y-34887011D01*
X64892150Y-34925508D01*
X64934923Y-34958863D01*
X64955372Y-34980160D01*
X64955669Y-34980833D01*
X64951279Y-35003871D01*
X64933876Y-35056157D01*
X64905268Y-35133390D01*
X64867265Y-35231268D01*
X64821674Y-35345491D01*
X64770303Y-35471758D01*
X64714962Y-35605767D01*
X64657458Y-35743218D01*
X64599601Y-35879808D01*
X64543198Y-36011237D01*
X64490058Y-36133205D01*
X64441990Y-36241409D01*
X64400801Y-36331549D01*
X64368301Y-36399323D01*
X64346297Y-36440430D01*
X64337436Y-36451226D01*
X64310360Y-36442819D01*
X64259697Y-36420272D01*
X64194183Y-36387613D01*
X64158159Y-36368520D01*
X64005168Y-36285800D01*
X63822912Y-36409075D01*
X63729875Y-36472228D01*
X63628015Y-36541727D01*
X63532562Y-36607165D01*
X63484750Y-36640117D01*
X63417505Y-36685273D01*
X63360564Y-36721057D01*
X63321354Y-36742938D01*
X63308619Y-36747563D01*
X63290083Y-36735085D01*
X63249059Y-36700252D01*
X63189525Y-36646678D01*
X63115458Y-36577983D01*
X63030835Y-36497781D01*
X62977315Y-36446286D01*
X62883681Y-36354286D01*
X62802759Y-36271999D01*
X62737823Y-36202945D01*
X62692142Y-36150644D01*
X62668989Y-36118616D01*
X62666768Y-36112116D01*
X62677076Y-36087394D01*
X62705561Y-36037405D01*
X62749063Y-35967212D01*
X62804423Y-35881875D01*
X62868480Y-35786456D01*
X62886697Y-35759854D01*
X62953073Y-35663167D01*
X63012622Y-35576117D01*
X63062016Y-35503595D01*
X63097925Y-35450493D01*
X63117019Y-35421703D01*
X63118864Y-35418726D01*
X63116105Y-35395782D01*
X63101462Y-35345336D01*
X63077487Y-35274041D01*
X63046734Y-35188547D01*
X63011756Y-35095507D01*
X62975107Y-35001574D01*
X62939339Y-34913399D01*
X62907006Y-34837634D01*
X62880662Y-34780931D01*
X62862858Y-34749943D01*
X62861593Y-34748457D01*
X62850706Y-34739601D01*
X62832318Y-34730843D01*
X62802394Y-34721277D01*
X62756897Y-34709996D01*
X62691791Y-34696093D01*
X62603039Y-34678663D01*
X62486607Y-34656798D01*
X62338458Y-34629591D01*
X62306382Y-34623741D01*
X62211314Y-34605374D01*
X62128435Y-34587405D01*
X62065070Y-34571569D01*
X62028542Y-34559600D01*
X62023644Y-34556810D01*
X62015573Y-34532072D01*
X62009013Y-34476790D01*
X62003967Y-34397389D01*
X62000441Y-34300296D01*
X61998439Y-34191938D01*
X61997964Y-34078740D01*
X61999023Y-33967128D01*
X62001618Y-33863529D01*
X62005754Y-33774368D01*
X62011437Y-33706072D01*
X62018669Y-33665066D01*
X62023029Y-33656674D01*
X62047302Y-33648208D01*
X62102574Y-33634435D01*
X62183338Y-33616550D01*
X62284088Y-33595748D01*
X62399317Y-33573223D01*
X62462098Y-33561418D01*
X62581213Y-33539151D01*
X62687435Y-33518979D01*
X62775573Y-33501915D01*
X62840434Y-33488969D01*
X62876826Y-33481155D01*
X62882816Y-33479422D01*
X62892939Y-33459890D01*
X62914338Y-33412843D01*
X62944161Y-33345003D01*
X62979555Y-33263091D01*
X63017668Y-33173828D01*
X63055647Y-33083935D01*
X63090640Y-33000135D01*
X63119794Y-32929147D01*
X63140257Y-32877694D01*
X63149177Y-32852497D01*
X63149343Y-32851396D01*
X63139231Y-32831519D01*
X63110883Y-32785777D01*
X63067277Y-32718717D01*
X63011394Y-32634884D01*
X62946213Y-32538826D01*
X62908321Y-32483650D01*
X62839275Y-32382481D01*
X62777950Y-32290630D01*
X62727337Y-32212744D01*
X62690429Y-32153469D01*
X62670218Y-32117451D01*
X62667299Y-32109377D01*
X62679847Y-32090584D01*
X62714537Y-32050457D01*
X62766937Y-31993493D01*
X62832616Y-31924185D01*
X62907144Y-31847031D01*
X62986087Y-31766525D01*
X63065017Y-31687163D01*
X63139500Y-31613440D01*
X63205106Y-31549852D01*
X63257404Y-31500894D01*
X63291961Y-31471061D01*
X63303522Y-31463942D01*
X63322346Y-31473953D01*
X63367369Y-31502078D01*
X63434213Y-31545454D01*
X63518501Y-31601218D01*
X63615856Y-31666506D01*
X63689293Y-31716246D01*
X64060333Y-31968551D01*
X64678905Y-31713555D01*
X64762725Y-31268931D01*
X64846546Y-30824307D01*
X65771994Y-30824307D01*
X65855814Y-31268931D01*
G37*
D14*
X65855814Y-31268931D02*
X65939635Y-31713555D01*
X66248920Y-31841053D01*
X66558206Y-31968551D01*
X66929246Y-31716246D01*
X67033157Y-31645996D01*
X67127087Y-31583272D01*
X67206652Y-31530938D01*
X67267470Y-31491857D01*
X67305157Y-31468893D01*
X67315421Y-31463942D01*
X67333910Y-31476676D01*
X67373420Y-31511882D01*
X67429522Y-31565062D01*
X67497787Y-31631718D01*
X67573786Y-31707354D01*
X67653092Y-31787472D01*
X67731275Y-31867574D01*
X67803907Y-31943164D01*
X67866559Y-32009745D01*
X67914803Y-32062818D01*
X67944210Y-32097887D01*
X67951241Y-32109623D01*
X67941123Y-32131260D01*
X67912759Y-32178662D01*
X67869129Y-32247193D01*
X67813218Y-32332215D01*
X67748006Y-32429093D01*
X67710219Y-32484350D01*
X67641343Y-32585248D01*
X67580140Y-32676299D01*
X67529578Y-32752970D01*
X67492628Y-32810728D01*
X67472258Y-32845043D01*
X67469197Y-32852254D01*
X67476136Y-32872748D01*
X67495051Y-32920513D01*
X67523087Y-32988832D01*
X67557391Y-33070989D01*
X67595109Y-33160270D01*
X67633387Y-33249958D01*
X67669370Y-33333338D01*
X67700206Y-33403694D01*
X67723039Y-33454310D01*
X67735017Y-33478471D01*
X67735724Y-33479422D01*
X67754531Y-33484036D01*
X67804618Y-33494328D01*
X67880793Y-33509287D01*
X67977865Y-33527901D01*
X68090643Y-33549159D01*
X68156442Y-33561418D01*
X68276950Y-33584362D01*
X68385797Y-33606195D01*
X68477476Y-33625722D01*
X68546481Y-33641748D01*
X68587304Y-33653079D01*
X68595511Y-33656674D01*
X68603548Y-33681006D01*
X68610033Y-33735959D01*
X68614970Y-33815108D01*
X68618364Y-33912026D01*
X68620218Y-34020287D01*
X68620538Y-34133465D01*
X68619327Y-34245135D01*
X68616590Y-34348868D01*
X68612331Y-34438241D01*
X68606555Y-34506826D01*
X68599267Y-34548197D01*
X68594895Y-34556810D01*
X68568764Y-34567133D01*
X68513393Y-34581892D01*
X68436107Y-34599352D01*
X68344230Y-34617780D01*
X68312158Y-34623741D01*
X68157524Y-34652066D01*
X68035375Y-34674876D01*
X67941673Y-34693080D01*
X67872384Y-34707583D01*
X67823471Y-34719292D01*
X67790897Y-34729115D01*
X67770628Y-34737956D01*
X67758626Y-34746724D01*
X67756947Y-34748457D01*
X67740184Y-34776371D01*
X67714614Y-34830695D01*
X67682788Y-34904777D01*
X67647260Y-34991965D01*
X67610583Y-35085608D01*
X67575311Y-35179052D01*
X67543996Y-35265647D01*
X67519193Y-35338740D01*
X67503454Y-35391678D01*
X67499332Y-35417811D01*
X67499676Y-35418726D01*
X67513641Y-35440086D01*
X67545322Y-35487084D01*
X67591391Y-35554827D01*
X67648518Y-35638423D01*
X67713373Y-35732982D01*
X67731843Y-35759854D01*
X67797699Y-35857275D01*
X67855650Y-35946163D01*
X67902538Y-36021412D01*
X67935207Y-36077920D01*
X67950500Y-36110581D01*
X67951241Y-36114593D01*
X67938392Y-36135684D01*
X67902888Y-36177464D01*
X67849293Y-36235445D01*
X67782171Y-36305135D01*
X67706087Y-36382045D01*
X67625604Y-36461683D01*
X67545287Y-36539561D01*
X67469699Y-36611186D01*
X67403405Y-36672070D01*
X67350969Y-36717721D01*
X67316955Y-36743650D01*
X67307545Y-36747883D01*
X67285643Y-36737912D01*
X67240800Y-36711020D01*
X67180321Y-36671736D01*
X67133789Y-36640117D01*
X67049475Y-36582098D01*
X66949626Y-36513784D01*
X66849473Y-36445579D01*
X66795627Y-36409075D01*
X66613371Y-36285800D01*
X66460381Y-36368520D01*
X66390682Y-36404759D01*
X66331414Y-36432926D01*
X66291311Y-36448991D01*
X66281103Y-36451226D01*
X66268829Y-36434722D01*
X66244613Y-36388082D01*
X66210263Y-36315609D01*
X66167588Y-36221606D01*
X66118394Y-36110374D01*
X66064490Y-35986215D01*
X66007684Y-35853432D01*
X65949782Y-35716327D01*
X65892593Y-35579202D01*
X65837924Y-35446358D01*
X65787584Y-35322098D01*
X65743380Y-35210725D01*
X65707119Y-35116539D01*
X65680609Y-35043844D01*
X65665658Y-34996941D01*
X65663254Y-34980833D01*
X65682311Y-34960286D01*
X65724036Y-34926933D01*
X65779706Y-34887702D01*
X65784378Y-34884599D01*
X65928264Y-34769423D01*
X66044283Y-34635053D01*
X66131430Y-34485784D01*
X66188699Y-34325913D01*
X66215086Y-34159737D01*
X66209585Y-33991552D01*
X66171190Y-33825655D01*
X66098895Y-33666342D01*
X66077626Y-33631487D01*
X65966996Y-33490737D01*
X65836302Y-33377714D01*
X65690064Y-33293003D01*
X65532808Y-33237194D01*
X65369057Y-33210874D01*
X65203333Y-33214630D01*
X65040162Y-33249050D01*
X64884065Y-33314723D01*
X64739567Y-33412235D01*
X64694869Y-33451813D01*
X64581112Y-33575703D01*
X64498218Y-33706124D01*
X64441356Y-33852315D01*
X64409687Y-33997088D01*
X64401869Y-34159860D01*
X64427938Y-34323440D01*
X64485245Y-34482298D01*
X64571144Y-34630906D01*
X64682986Y-34763735D01*
X64818123Y-34875256D01*
X64835883Y-34887011D01*
X64892150Y-34925508D01*
X64934923Y-34958863D01*
X64955372Y-34980160D01*
X64955669Y-34980833D01*
X64951279Y-35003871D01*
X64933876Y-35056157D01*
X64905268Y-35133390D01*
X64867265Y-35231268D01*
X64821674Y-35345491D01*
X64770303Y-35471758D01*
X64714962Y-35605767D01*
X64657458Y-35743218D01*
X64599601Y-35879808D01*
X64543198Y-36011237D01*
X64490058Y-36133205D01*
X64441990Y-36241409D01*
X64400801Y-36331549D01*
X64368301Y-36399323D01*
X64346297Y-36440430D01*
X64337436Y-36451226D01*
X64310360Y-36442819D01*
X64259697Y-36420272D01*
X64194183Y-36387613D01*
X64158159Y-36368520D01*
X64005168Y-36285800D01*
X63822912Y-36409075D01*
X63729875Y-36472228D01*
X63628015Y-36541727D01*
X63532562Y-36607165D01*
X63484750Y-36640117D01*
X63417505Y-36685273D01*
X63360564Y-36721057D01*
X63321354Y-36742938D01*
X63308619Y-36747563D01*
X63290083Y-36735085D01*
X63249059Y-36700252D01*
X63189525Y-36646678D01*
X63115458Y-36577983D01*
X63030835Y-36497781D01*
X62977315Y-36446286D01*
X62883681Y-36354286D01*
X62802759Y-36271999D01*
X62737823Y-36202945D01*
X62692142Y-36150644D01*
X62668989Y-36118616D01*
X62666768Y-36112116D01*
X62677076Y-36087394D01*
X62705561Y-36037405D01*
X62749063Y-35967212D01*
X62804423Y-35881875D01*
X62868480Y-35786456D01*
X62886697Y-35759854D01*
X62953073Y-35663167D01*
X63012622Y-35576117D01*
X63062016Y-35503595D01*
X63097925Y-35450493D01*
X63117019Y-35421703D01*
X63118864Y-35418726D01*
X63116105Y-35395782D01*
X63101462Y-35345336D01*
X63077487Y-35274041D01*
X63046734Y-35188547D01*
X63011756Y-35095507D01*
X62975107Y-35001574D01*
X62939339Y-34913399D01*
X62907006Y-34837634D01*
X62880662Y-34780931D01*
X62862858Y-34749943D01*
X62861593Y-34748457D01*
X62850706Y-34739601D01*
X62832318Y-34730843D01*
X62802394Y-34721277D01*
X62756897Y-34709996D01*
X62691791Y-34696093D01*
X62603039Y-34678663D01*
X62486607Y-34656798D01*
X62338458Y-34629591D01*
X62306382Y-34623741D01*
X62211314Y-34605374D01*
X62128435Y-34587405D01*
X62065070Y-34571569D01*
X62028542Y-34559600D01*
X62023644Y-34556810D01*
X62015573Y-34532072D01*
X62009013Y-34476790D01*
X62003967Y-34397389D01*
X62000441Y-34300296D01*
X61998439Y-34191938D01*
X61997964Y-34078740D01*
X61999023Y-33967128D01*
X62001618Y-33863529D01*
X62005754Y-33774368D01*
X62011437Y-33706072D01*
X62018669Y-33665066D01*
X62023029Y-33656674D01*
X62047302Y-33648208D01*
X62102574Y-33634435D01*
X62183338Y-33616550D01*
X62284088Y-33595748D01*
X62399317Y-33573223D01*
X62462098Y-33561418D01*
X62581213Y-33539151D01*
X62687435Y-33518979D01*
X62775573Y-33501915D01*
X62840434Y-33488969D01*
X62876826Y-33481155D01*
X62882816Y-33479422D01*
X62892939Y-33459890D01*
X62914338Y-33412843D01*
X62944161Y-33345003D01*
X62979555Y-33263091D01*
X63017668Y-33173828D01*
X63055647Y-33083935D01*
X63090640Y-33000135D01*
X63119794Y-32929147D01*
X63140257Y-32877694D01*
X63149177Y-32852497D01*
X63149343Y-32851396D01*
X63139231Y-32831519D01*
X63110883Y-32785777D01*
X63067277Y-32718717D01*
X63011394Y-32634884D01*
X62946213Y-32538826D01*
X62908321Y-32483650D01*
X62839275Y-32382481D01*
X62777950Y-32290630D01*
X62727337Y-32212744D01*
X62690429Y-32153469D01*
X62670218Y-32117451D01*
X62667299Y-32109377D01*
X62679847Y-32090584D01*
X62714537Y-32050457D01*
X62766937Y-31993493D01*
X62832616Y-31924185D01*
X62907144Y-31847031D01*
X62986087Y-31766525D01*
X63065017Y-31687163D01*
X63139500Y-31613440D01*
X63205106Y-31549852D01*
X63257404Y-31500894D01*
X63291961Y-31471061D01*
X63303522Y-31463942D01*
X63322346Y-31473953D01*
X63367369Y-31502078D01*
X63434213Y-31545454D01*
X63518501Y-31601218D01*
X63615856Y-31666506D01*
X63689293Y-31716246D01*
X64060333Y-31968551D01*
X64678905Y-31713555D01*
X64762725Y-31268931D01*
X64846546Y-30824307D01*
X65771994Y-30824307D01*
X65855814Y-31268931D01*
D13*
%TO.C,R5*%
X54782500Y-25767258D02*
X54782500Y-25292742D01*
X53737500Y-25767258D02*
X53737500Y-25292742D01*
%TO.C,U3*%
X42520000Y-60900000D02*
X42520000Y-71180000D01*
X42520000Y-71180000D02*
X47020000Y-71180000D01*
X47020000Y-60900000D02*
X45770000Y-60900000D01*
X50020000Y-71240000D02*
X50020000Y-60840000D01*
X39520000Y-71240000D02*
X50020000Y-71240000D01*
X39520000Y-60840000D02*
X39520000Y-71240000D01*
X43770000Y-60900000D02*
X42520000Y-60900000D01*
X50020000Y-60840000D02*
X39520000Y-60840000D01*
X47020000Y-71180000D02*
X47020000Y-60900000D01*
X43770000Y-60900000D02*
G75*
G03*
X45770000Y-60900000I1000000J0D01*
G01*
%TO.C,J_OUTPUT1*%
X82160000Y-38625000D02*
X82160000Y-51445000D01*
X76960000Y-39955000D02*
X76960000Y-38625000D01*
X79560000Y-38625000D02*
X82160000Y-38625000D01*
X76960000Y-51445000D02*
X82160000Y-51445000D01*
X76960000Y-41225000D02*
X76960000Y-51445000D01*
X76960000Y-41225000D02*
X79560000Y-41225000D01*
X79560000Y-41225000D02*
X79560000Y-38625000D01*
X76960000Y-38625000D02*
X78290000Y-38625000D01*
%TO.C,D3*%
X29060000Y-37295000D02*
X26775000Y-37295000D01*
X26775000Y-38765000D02*
X29060000Y-38765000D01*
X26775000Y-37295000D02*
X26775000Y-38765000D01*
%TO.C,R3*%
X74977500Y-40262742D02*
X74977500Y-40737258D01*
X76022500Y-40262742D02*
X76022500Y-40737258D01*
%TO.C,Y1*%
X59285000Y-41820000D02*
X59285000Y-48220000D01*
X54235000Y-41820000D02*
X54235000Y-48220000D01*
X54235000Y-48220000D02*
G75*
G03*
X59285000Y-48220000I2525000J0D01*
G01*
X59285000Y-41820000D02*
G75*
G03*
X54235000Y-41820000I-2525000J0D01*
G01*
%TO.C,R1*%
X48782500Y-58767258D02*
X48782500Y-58292742D01*
X47737500Y-58767258D02*
X47737500Y-58292742D01*
%TO.C,C4*%
X58660000Y-70465000D02*
X62570000Y-70465000D01*
X62570000Y-68595000D02*
X58660000Y-68595000D01*
X62570000Y-70465000D02*
X62570000Y-68595000D01*
%TO.C,D4*%
X29060000Y-32295000D02*
X26775000Y-32295000D01*
X26775000Y-33765000D02*
X29060000Y-33765000D01*
X26775000Y-32295000D02*
X26775000Y-33765000D01*
%TO.C,U2*%
X58700000Y-71620000D02*
X58700000Y-72880000D01*
X62460000Y-71620000D02*
X58700000Y-71620000D01*
X58700000Y-78440000D02*
X58700000Y-77180000D01*
X64710000Y-78440000D02*
X58700000Y-78440000D01*
%TO.C,C3*%
X61770000Y-42889420D02*
X61770000Y-43170580D01*
X60750000Y-42889420D02*
X60750000Y-43170580D01*
%TD*%
M02*
