M48
; DRILL file {KiCad 6.0.4-6f826c9f35~116~ubuntu21.10.1} date 2022년 04월 24일 (일) 오후 01시 37분 23초
; FORMAT={-:-/ absolute / inch / decimal}
; #@! TF.CreationDate,2022-04-24T13:37:23+09:00
; #@! TF.GenerationSoftware,Kicad,Pcbnew,6.0.4-6f826c9f35~116~ubuntu21.10.1
; #@! TF.FileFunction,Plated,1,2,PTH
FMAT,2
INCH
; #@! TA.AperFunction,Plated,PTH,ViaDrill
T1C0.0157
; #@! TA.AperFunction,Plated,PTH,ComponentDrill
T2C0.0315
; #@! TA.AperFunction,Plated,PTH,ComponentDrill
T3C0.0323
; #@! TA.AperFunction,Plated,PTH,ComponentDrill
T4C0.0394
; #@! TA.AperFunction,Plated,PTH,ComponentDrill
T5C0.0433
; #@! TA.AperFunction,Plated,PTH,ComponentDrill
T6C0.0512
; #@! TA.AperFunction,Plated,PTH,ComponentDrill
T7C0.1260
%
G90
G05
T1
X1.3673Y-2.4016
X1.437Y-1.752
X1.437Y-2.2638
X1.437Y-2.4213
X1.4567Y-1.6339
X1.4961Y-1.7079
X1.4961Y-2.2638
X1.8213Y-1.8516
X1.8307Y-2.8346
X1.9291Y-2.0669
X1.9488Y-2.9331
X1.9685Y-2.0079
X2.0276Y-1.9685
X2.126Y-1.811
X2.185Y-2.4213
X2.2244Y-2.5787
X2.5197Y-2.4409
X2.5197Y-2.7559
X2.5394Y-2.0669
X2.7362Y-1.3976
X2.7756Y-1.3583
X2.815Y-1.3189
X2.9331Y-1.2402
X2.9724Y-1.5157
X2.9921Y-1.1811
X3.0315Y-1.4173
X3.0315Y-1.4764
T2
X1.6126Y-2.45
X1.6126Y-2.55
X1.6126Y-2.65
X1.6126Y-2.75
X1.9126Y-2.45
X1.9126Y-2.55
X1.9126Y-2.65
X1.9126Y-2.75
X2.2346Y-1.6764
X2.2346Y-1.8685
T3
X1.0614Y-2.0878
X1.2819Y-2.0878
T4
X1.1411Y-3.1508
X1.1415Y-2.6949
X1.1415Y-2.7949
X1.1415Y-2.8949
X1.2411Y-3.1508
X1.2415Y-2.6949
X1.2415Y-2.7949
X1.2415Y-2.8949
X1.5516Y-3.1508
X1.6516Y-3.1508
X1.7516Y-3.1508
X1.8516Y-3.1508
X1.9516Y-3.1508
X2.0516Y-3.1508
X3.0823Y-1.0305
X3.0823Y-1.1305
X3.0823Y-1.2305
X3.0823Y-1.3305
X3.0823Y-1.573
X3.0823Y-1.673
X3.0823Y-1.773
X3.0823Y-1.873
X3.0823Y-1.973
X3.1823Y-1.0305
X3.1823Y-1.1305
X3.1823Y-1.2305
X3.1823Y-1.3305
X3.1823Y-1.573
X3.1823Y-1.673
X3.1823Y-1.773
X3.1823Y-1.873
X3.1823Y-1.973
T5
X2.1461Y-0.6902
X2.1461Y-0.8673
X2.402Y-0.6902
X2.402Y-0.8673
X2.5693Y-0.6902
X2.5693Y-0.8673
X2.8252Y-0.6902
X2.8252Y-0.8673
T6
X1.3583Y-0.6902
X1.3583Y-0.887
X1.8504Y-0.6902
X1.8504Y-0.887
T7
X1.1717Y-0.7098
X1.1717Y-2.4815
X3.1402Y-0.7098
X3.1402Y-2.4815
T4
G00X3.004Y-2.7177
M15
G01X3.0828Y-2.7177
M16
G05
G00X3.004Y-2.9539
M15
G01X3.0828Y-2.9539
M16
G05
G00X3.2284Y-2.8752
M15
G01X3.2284Y-2.7965
M16
G05
T0
M30
