%TF.GenerationSoftware,KiCad,Pcbnew,6.0.4-6f826c9f35~116~ubuntu21.10.1*%
%TF.CreationDate,2022-04-24T13:37:26+09:00*%
%TF.ProjectId,pcb,7063622e-6b69-4636-9164-5f7063625858,rev?*%
%TF.SameCoordinates,Original*%
%TF.FileFunction,Copper,L2,Bot*%
%TF.FilePolarity,Positive*%
%FSLAX46Y46*%
G04 Gerber Fmt 4.6, Leading zero omitted, Abs format (unit mm)*
G04 Created by KiCad (PCBNEW 6.0.4-6f826c9f35~116~ubuntu21.10.1) date 2022-04-24 13:37:26*
%MOMM*%
%LPD*%
G01*
G04 APERTURE LIST*
G04 Aperture macros list*
%AMRoundRect*
0 Rectangle with rounded corners*
0 $1 Rounding radius*
0 $2 $3 $4 $5 $6 $7 $8 $9 X,Y pos of 4 corners*
0 Add a 4 corners polygon primitive as box body*
4,1,4,$2,$3,$4,$5,$6,$7,$8,$9,$2,$3,0*
0 Add four circle primitives for the rounded corners*
1,1,$1+$1,$2,$3*
1,1,$1+$1,$4,$5*
1,1,$1+$1,$6,$7*
1,1,$1+$1,$8,$9*
0 Add four rect primitives between the rounded corners*
20,1,$1+$1,$2,$3,$4,$5,0*
20,1,$1+$1,$4,$5,$6,$7,0*
20,1,$1+$1,$6,$7,$8,$9,0*
20,1,$1+$1,$8,$9,$2,$3,0*%
G04 Aperture macros list end*
%TA.AperFunction,ComponentPad*%
%ADD10R,1.700000X1.700000*%
%TD*%
%TA.AperFunction,ComponentPad*%
%ADD11O,1.700000X1.700000*%
%TD*%
%TA.AperFunction,ComponentPad*%
%ADD12C,4.000000*%
%TD*%
%TA.AperFunction,ComponentPad*%
%ADD13R,3.500000X3.500000*%
%TD*%
%TA.AperFunction,ComponentPad*%
%ADD14RoundRect,0.750000X1.000000X-0.750000X1.000000X0.750000X-1.000000X0.750000X-1.000000X-0.750000X0*%
%TD*%
%TA.AperFunction,ComponentPad*%
%ADD15RoundRect,0.875000X0.875000X-0.875000X0.875000X0.875000X-0.875000X0.875000X-0.875000X-0.875000X0*%
%TD*%
%TA.AperFunction,ComponentPad*%
%ADD16C,1.524000*%
%TD*%
%TA.AperFunction,ComponentPad*%
%ADD17C,2.000000*%
%TD*%
%TA.AperFunction,ComponentPad*%
%ADD18O,3.048000X1.850000*%
%TD*%
%TA.AperFunction,ComponentPad*%
%ADD19R,2.400000X1.600000*%
%TD*%
%TA.AperFunction,ComponentPad*%
%ADD20O,2.400000X1.600000*%
%TD*%
%TA.AperFunction,ComponentPad*%
%ADD21C,1.500000*%
%TD*%
%TA.AperFunction,ViaPad*%
%ADD22C,0.800000*%
%TD*%
%TA.AperFunction,Conductor*%
%ADD23C,0.750000*%
%TD*%
%TA.AperFunction,Conductor*%
%ADD24C,0.300000*%
%TD*%
%TA.AperFunction,Conductor*%
%ADD25C,0.400000*%
%TD*%
G04 APERTURE END LIST*
D10*
%TO.P,J_INNER1,1,Pin_1*%
%TO.N,/PD6*%
X78290000Y-26175000D03*
D11*
%TO.P,J_INNER1,2,Pin_2*%
%TO.N,GND*%
X80830000Y-26175000D03*
%TO.P,J_INNER1,3,Pin_3*%
%TO.N,+5V*%
X78290000Y-28715000D03*
%TO.P,J_INNER1,4,Pin_4*%
X80830000Y-28715000D03*
%TO.P,J_INNER1,5,Pin_5*%
%TO.N,/PD5*%
X78290000Y-31255000D03*
%TO.P,J_INNER1,6,Pin_6*%
%TO.N,/PD7*%
X80830000Y-31255000D03*
%TO.P,J_INNER1,7,Pin_7*%
%TO.N,GND*%
X78290000Y-33795000D03*
%TO.P,J_INNER1,8,Pin_8*%
X80830000Y-33795000D03*
%TD*%
D12*
%TO.P,HOLE1,*%
%TO.N,*%
X29760000Y-18030000D03*
%TD*%
D13*
%TO.P,POWER_JACK1,1*%
%TO.N,Net-(D1-Pad2)*%
X77302500Y-69030000D03*
D14*
%TO.P,POWER_JACK1,2*%
%TO.N,GND*%
X77302500Y-75030000D03*
D15*
%TO.P,POWER_JACK1,3*%
X82002500Y-72030000D03*
%TD*%
D10*
%TO.P,J_UART1,1,Pin_1*%
%TO.N,GND*%
X39410000Y-80030000D03*
D11*
%TO.P,J_UART1,2,Pin_2*%
X41950000Y-80030000D03*
%TO.P,J_UART1,3,Pin_3*%
%TO.N,+5V*%
X44490000Y-80030000D03*
%TO.P,J_UART1,4,Pin_4*%
%TO.N,/RXD*%
X47030000Y-80030000D03*
%TO.P,J_UART1,5,Pin_5*%
%TO.N,/TXD*%
X49570000Y-80030000D03*
%TO.P,J_UART1,6,Pin_6*%
%TO.N,/DTR*%
X52110000Y-80030000D03*
%TD*%
D12*
%TO.P,HOLE3,*%
%TO.N,*%
X29760000Y-63030000D03*
%TD*%
D16*
%TO.P,BZ1,1,-*%
%TO.N,/PC3*%
X32560000Y-53030000D03*
%TO.P,BZ1,2,+*%
%TO.N,GND*%
X26960000Y-53030000D03*
%TD*%
D12*
%TO.P,HOLE4,*%
%TO.N,*%
X79760000Y-63030000D03*
%TD*%
D17*
%TO.P,SW3,1,1*%
%TO.N,/PD3*%
X54510000Y-22030000D03*
X61010000Y-22030000D03*
%TO.P,SW3,2,2*%
%TO.N,GND*%
X61010000Y-17530000D03*
X54510000Y-17530000D03*
%TD*%
%TO.P,SW4,1,1*%
%TO.N,/PD4*%
X65260000Y-22030000D03*
X71760000Y-22030000D03*
%TO.P,SW4,2,2*%
%TO.N,GND*%
X71760000Y-17530000D03*
X65260000Y-17530000D03*
%TD*%
D12*
%TO.P,HOLE2,*%
%TO.N,*%
X79760000Y-18030000D03*
%TD*%
D18*
%TO.P,SW2,1,1*%
%TO.N,/PD2*%
X47000000Y-22530000D03*
X34500000Y-22530000D03*
%TO.P,SW2,2,2*%
%TO.N,GND*%
X47000000Y-17530000D03*
X34500000Y-17530000D03*
%TD*%
D10*
%TO.P,SW1,1,1*%
%TO.N,/RESET*%
X28985000Y-80030000D03*
D11*
%TO.P,SW1,2,2*%
%TO.N,GND*%
X31525000Y-80030000D03*
%TD*%
D10*
%TO.P,J_SPI1,1,Pin_1*%
%TO.N,/MISO(PB4)*%
X31535000Y-73530000D03*
D11*
%TO.P,J_SPI1,2,Pin_2*%
%TO.N,+5V*%
X28995000Y-73530000D03*
%TO.P,J_SPI1,3,Pin_3*%
%TO.N,/SCK(PB5)*%
X31535000Y-70990000D03*
%TO.P,J_SPI1,4,Pin_4*%
%TO.N,/MOSI(PB3)*%
X28995000Y-70990000D03*
%TO.P,J_SPI1,5,Pin_5*%
%TO.N,/RESET*%
X31535000Y-68450000D03*
%TO.P,J_SPI1,6,Pin_6*%
%TO.N,GND*%
X28995000Y-68450000D03*
%TD*%
D19*
%TO.P,U3,1*%
%TO.N,N/C*%
X40960000Y-62230000D03*
D20*
%TO.P,U3,2*%
X40960000Y-64770000D03*
%TO.P,U3,3*%
X40960000Y-67310000D03*
%TO.P,U3,4,GND*%
%TO.N,GND*%
X40960000Y-69850000D03*
%TO.P,U3,5,SDA*%
%TO.N,/SDA(PC4)*%
X48580000Y-69850000D03*
%TO.P,U3,6,SCL*%
%TO.N,/SCL(PC5)*%
X48580000Y-67310000D03*
%TO.P,U3,7,WP*%
%TO.N,unconnected-(U3-Pad7)*%
X48580000Y-64770000D03*
%TO.P,U3,8,VCC*%
%TO.N,+5V*%
X48580000Y-62230000D03*
%TD*%
D10*
%TO.P,J_OUTPUT1,1,Pin_1*%
%TO.N,+3V3*%
X78290000Y-39955000D03*
D11*
%TO.P,J_OUTPUT1,2,Pin_2*%
X80830000Y-39955000D03*
%TO.P,J_OUTPUT1,3,Pin_3*%
%TO.N,Net-(J_OUTPUT1-Pad3)*%
X78290000Y-42495000D03*
%TO.P,J_OUTPUT1,4,Pin_4*%
%TO.N,/PB1*%
X80830000Y-42495000D03*
%TO.P,J_OUTPUT1,5,Pin_5*%
%TO.N,/PB2*%
X78290000Y-45035000D03*
%TO.P,J_OUTPUT1,6,Pin_6*%
%TO.N,/MOSI(PB3)*%
X80830000Y-45035000D03*
%TO.P,J_OUTPUT1,7,Pin_7*%
%TO.N,/MISO(PB4)*%
X78290000Y-47575000D03*
%TO.P,J_OUTPUT1,8,Pin_8*%
%TO.N,/SCK(PB5)*%
X80830000Y-47575000D03*
%TO.P,J_OUTPUT1,9,Pin_9*%
%TO.N,GND*%
X78290000Y-50115000D03*
%TO.P,J_OUTPUT1,10,Pin_10*%
X80830000Y-50115000D03*
%TD*%
D21*
%TO.P,Y1,1,1*%
%TO.N,Net-(C3-Pad1)*%
X56760000Y-42580000D03*
%TO.P,Y1,2,2*%
%TO.N,Net-(C2-Pad1)*%
X56760000Y-47460000D03*
%TD*%
D22*
%TO.N,GND*%
X46260000Y-47030000D03*
X54000000Y-46000000D03*
%TO.N,+5V*%
X46500000Y-72000000D03*
X55500000Y-61500000D03*
X56500000Y-65500000D03*
%TO.N,+3V3*%
X64500000Y-52500000D03*
X64000000Y-62000000D03*
X64000000Y-70000000D03*
%TO.N,/PD7*%
X76000000Y-30000000D03*
%TO.N,/PB1*%
X77000000Y-37500000D03*
X70500000Y-34500000D03*
%TO.N,/PB2*%
X71500000Y-33500000D03*
X77000000Y-36000000D03*
%TO.N,/MOSI(PB3)*%
X37000000Y-41500000D03*
%TO.N,/MISO(PB4)*%
X38000000Y-43380500D03*
X38000000Y-57500000D03*
X36500000Y-61500000D03*
%TO.N,/SCK(PB5)*%
X34730500Y-61000000D03*
X36500000Y-57500000D03*
X36500000Y-44500000D03*
%TO.N,/PB0*%
X75500000Y-38500000D03*
X69500000Y-35500000D03*
%TO.N,/PD2*%
X49000000Y-52500000D03*
%TO.N,/PD3*%
X50000000Y-51000000D03*
%TO.N,/PD4*%
X51500000Y-50000000D03*
%TO.N,/PD6*%
X74500000Y-31500000D03*
%TO.N,/DTR*%
X49500000Y-74500000D03*
%TD*%
D23*
%TO.N,GND*%
X40960000Y-78540000D02*
X40960000Y-80020000D01*
X82002500Y-72030000D02*
X82384511Y-71647989D01*
X82384511Y-71647989D02*
X82384511Y-51669511D01*
X78290000Y-50115000D02*
X80830000Y-50115000D01*
X80830000Y-26175000D02*
X80830000Y-24330000D01*
X83760000Y-33530000D02*
X83495000Y-33795000D01*
X83495000Y-33795000D02*
X80830000Y-33795000D01*
X82002500Y-72030000D02*
X82002500Y-74287500D01*
X39980000Y-79460000D02*
X39410000Y-80030000D01*
X71760000Y-17530000D02*
X74030000Y-17530000D01*
X83580978Y-50115000D02*
X80830000Y-50115000D01*
X82002500Y-74287500D02*
X81260000Y-75030000D01*
X74030000Y-17530000D02*
X78000000Y-21500000D01*
X80830000Y-33795000D02*
X78290000Y-33795000D01*
X83405000Y-26175000D02*
X80830000Y-26175000D01*
X40960000Y-79460000D02*
X41380000Y-79460000D01*
X80830000Y-24330000D02*
X78000000Y-21500000D01*
X40970000Y-80030000D02*
X41950000Y-80030000D01*
X40960000Y-79460000D02*
X40960000Y-78540000D01*
X47290000Y-46000000D02*
X46260000Y-47030000D01*
X83760000Y-23240000D02*
X83760000Y-26530000D01*
X54000000Y-46000000D02*
X47290000Y-46000000D01*
X83760000Y-26530000D02*
X83405000Y-26175000D01*
X81260000Y-75030000D02*
X77302500Y-75030000D01*
X83760000Y-50294022D02*
X82384511Y-51669511D01*
X82020000Y-21500000D02*
X83760000Y-23240000D01*
X83760000Y-33530000D02*
X83760000Y-50294022D01*
X78000000Y-21500000D02*
X82020000Y-21500000D01*
X40960000Y-78540000D02*
X40960000Y-69850000D01*
X41380000Y-79460000D02*
X41950000Y-80030000D01*
X83760000Y-26530000D02*
X83760000Y-33530000D01*
X40960000Y-80020000D02*
X40970000Y-80030000D01*
X82384511Y-51669511D02*
X80830000Y-50115000D01*
X40960000Y-79460000D02*
X39980000Y-79460000D01*
X39410000Y-80030000D02*
X40970000Y-80030000D01*
X83760000Y-50294022D02*
X83580978Y-50115000D01*
%TO.N,+5V*%
X44490000Y-66320000D02*
X44490000Y-71990000D01*
X55500000Y-80290000D02*
X55500000Y-65500000D01*
X26760000Y-73530000D02*
X25760000Y-74530000D01*
X28995000Y-73530000D02*
X26760000Y-73530000D01*
X44490000Y-81300000D02*
X44490000Y-80030000D01*
X56500000Y-65500000D02*
X56500000Y-62500000D01*
X56500000Y-62500000D02*
X55500000Y-61500000D01*
X43760000Y-82030000D02*
X44490000Y-81300000D01*
X48580000Y-62230000D02*
X44490000Y-66320000D01*
X55500000Y-62500000D02*
X55500000Y-61500000D01*
X44490000Y-71990000D02*
X44490000Y-80030000D01*
X46490000Y-71990000D02*
X46500000Y-72000000D01*
X25760000Y-74530000D02*
X25760000Y-81030000D01*
X55230000Y-62230000D02*
X55500000Y-62500000D01*
X53760000Y-82030000D02*
X55500000Y-80290000D01*
X44490000Y-71990000D02*
X46490000Y-71990000D01*
X48580000Y-62230000D02*
X55230000Y-62230000D01*
X25760000Y-81030000D02*
X26760000Y-82030000D01*
X43760000Y-82030000D02*
X53760000Y-82030000D01*
X26760000Y-82030000D02*
X43760000Y-82030000D01*
X55500000Y-65500000D02*
X55500000Y-62500000D01*
X56500000Y-65500000D02*
X55500000Y-65500000D01*
%TO.N,+3V3*%
X75545000Y-39955000D02*
X64500000Y-51000000D01*
X64000000Y-62000000D02*
X64000000Y-70000000D01*
X64500000Y-51000000D02*
X64500000Y-52500000D01*
X78290000Y-39955000D02*
X75545000Y-39955000D01*
D24*
%TO.N,/PD7*%
X78802076Y-30000000D02*
X76000000Y-30000000D01*
X80830000Y-31255000D02*
X80057076Y-31255000D01*
X80057076Y-31255000D02*
X78802076Y-30000000D01*
D25*
%TO.N,/PB1*%
X74000000Y-34500000D02*
X77000000Y-37500000D01*
X70500000Y-34500000D02*
X74000000Y-34500000D01*
%TO.N,/PB2*%
X71500000Y-33500000D02*
X74500000Y-33500000D01*
X74500000Y-33500000D02*
X77000000Y-36000000D01*
D24*
%TO.N,/MOSI(PB3)*%
X28000000Y-66000000D02*
X27000000Y-67000000D01*
X33450480Y-59772382D02*
X33450480Y-65500000D01*
D25*
X35000000Y-57400960D02*
X33499999Y-58900961D01*
D24*
X32950480Y-66000000D02*
X28000000Y-66000000D01*
X33450480Y-65500000D02*
X32950480Y-66000000D01*
X60821902Y-58900960D02*
X75937373Y-43785489D01*
X60821902Y-58900960D02*
X34321901Y-58900961D01*
X27000000Y-70500000D02*
X27490000Y-70990000D01*
X27490000Y-70990000D02*
X28995000Y-70990000D01*
X27000000Y-67000000D02*
X27000000Y-70500000D01*
X34321901Y-58900961D02*
X33499999Y-58900961D01*
X80830000Y-45035000D02*
X79580489Y-43785489D01*
D25*
X37000000Y-41500000D02*
X35000000Y-43500000D01*
D24*
X75937373Y-43785489D02*
X79580489Y-43785489D01*
D25*
X35000000Y-43500000D02*
X35000000Y-57400960D01*
D24*
X34321901Y-58900961D02*
X33450480Y-59772382D01*
%TO.N,/MISO(PB4)*%
X73925000Y-47575000D02*
X78290000Y-47575000D01*
X35530000Y-61530000D02*
X35530000Y-60530000D01*
X35560000Y-61500000D02*
X35530000Y-61530000D01*
X36060000Y-60000000D02*
X61500000Y-60000000D01*
D25*
X38000000Y-57500000D02*
X38000000Y-43500000D01*
D24*
X35530000Y-71530000D02*
X35530000Y-61530000D01*
X35530000Y-60530000D02*
X36060000Y-60000000D01*
X33530000Y-73530000D02*
X35530000Y-71530000D01*
X31535000Y-73530000D02*
X33530000Y-73530000D01*
X36500000Y-61500000D02*
X35560000Y-61500000D01*
X61500000Y-60000000D02*
X73925000Y-47575000D01*
%TO.N,/SCK(PB5)*%
X34000000Y-60000000D02*
X34549520Y-59450480D01*
X61049520Y-59450480D02*
X74174511Y-46325489D01*
D25*
X34730500Y-61000000D02*
X34050000Y-61000000D01*
D24*
X74174511Y-46325489D02*
X79580489Y-46325489D01*
X34549520Y-59450480D02*
X61049520Y-59450480D01*
D25*
X36500000Y-44500000D02*
X36500000Y-57500000D01*
D24*
X79580489Y-46325489D02*
X80830000Y-47575000D01*
X34000000Y-70000000D02*
X34000000Y-61000000D01*
X34000000Y-61000000D02*
X34000000Y-60000000D01*
X33010000Y-70990000D02*
X34000000Y-70000000D01*
X31535000Y-70990000D02*
X33010000Y-70990000D01*
D25*
%TO.N,/PB0*%
X73500000Y-35500000D02*
X75500000Y-37500000D01*
X69500000Y-35500000D02*
X73500000Y-35500000D01*
X75500000Y-37500000D02*
X75500000Y-38500000D01*
%TO.N,/PD2*%
X46000000Y-26000000D02*
X44000000Y-26000000D01*
X39500000Y-30500000D02*
X39500000Y-50000000D01*
X47000000Y-22530000D02*
X47000000Y-25000000D01*
X42000000Y-52500000D02*
X49000000Y-52500000D01*
X44000000Y-26000000D02*
X39500000Y-30500000D01*
X47000000Y-25000000D02*
X46000000Y-26000000D01*
X39500000Y-50000000D02*
X42000000Y-52500000D01*
%TO.N,/PD3*%
X40149520Y-49149520D02*
X42000000Y-51000000D01*
X43918560Y-27000000D02*
X40149520Y-30769040D01*
X42000000Y-51000000D02*
X50000000Y-51000000D01*
X54510000Y-25990000D02*
X53500000Y-27000000D01*
X54510000Y-22030000D02*
X54510000Y-25990000D01*
X40149520Y-30769040D02*
X40149520Y-49149520D01*
X53500000Y-27000000D02*
X43918560Y-27000000D01*
%TO.N,/PD4*%
X41918560Y-50000000D02*
X41109040Y-49190480D01*
X63500000Y-28000000D02*
X65260000Y-26240000D01*
X65260000Y-26240000D02*
X65260000Y-22030000D01*
X41109040Y-30890960D02*
X44000000Y-28000000D01*
X41109040Y-49190480D02*
X41109040Y-30890960D01*
X51500000Y-50000000D02*
X41918560Y-50000000D01*
X44000000Y-28000000D02*
X63500000Y-28000000D01*
%TO.N,/PD6*%
X74500000Y-28500000D02*
X74500000Y-31500000D01*
X78290000Y-26175000D02*
X76825000Y-26175000D01*
X76825000Y-26175000D02*
X74500000Y-28500000D01*
%TO.N,/DTR*%
X49500000Y-77420000D02*
X52110000Y-80030000D01*
X49500000Y-74500000D02*
X49500000Y-77420000D01*
%TD*%
%TA.AperFunction,Conductor*%
%TO.N,GND*%
G36*
X83425500Y-14019962D02*
G01*
X83480038Y-14074500D01*
X83500000Y-14149000D01*
X83500000Y-81851000D01*
X83480038Y-81925500D01*
X83425500Y-81980038D01*
X83351000Y-82000000D01*
X55670704Y-82000000D01*
X55596204Y-81980038D01*
X55541666Y-81925500D01*
X55521704Y-81851000D01*
X55541666Y-81776500D01*
X55565345Y-81745641D01*
X56188026Y-81122961D01*
X56196027Y-81115526D01*
X56200164Y-81111955D01*
X56205950Y-81107851D01*
X56210851Y-81102732D01*
X56210855Y-81102728D01*
X56267908Y-81043129D01*
X56270181Y-81040806D01*
X56296749Y-81014238D01*
X56300707Y-81009445D01*
X56307943Y-81001309D01*
X56347866Y-80959604D01*
X56351720Y-80953636D01*
X56364649Y-80933614D01*
X56374930Y-80919566D01*
X56390114Y-80901178D01*
X56394630Y-80895710D01*
X56422310Y-80845047D01*
X56427883Y-80835680D01*
X56455341Y-80793157D01*
X56455345Y-80793149D01*
X56459189Y-80787196D01*
X56470754Y-80758499D01*
X56478193Y-80742762D01*
X56489626Y-80721838D01*
X56489629Y-80721832D01*
X56493027Y-80715612D01*
X56510627Y-80660631D01*
X56514334Y-80650363D01*
X56533249Y-80603429D01*
X56533250Y-80603427D01*
X56535901Y-80596848D01*
X56541831Y-80566483D01*
X56546158Y-80549633D01*
X56553432Y-80526908D01*
X56555593Y-80520157D01*
X56562477Y-80462845D01*
X56564176Y-80452065D01*
X56574206Y-80400708D01*
X56574208Y-80400693D01*
X56575236Y-80395428D01*
X56575500Y-80390030D01*
X56575500Y-80363354D01*
X56576563Y-80345584D01*
X56579223Y-80323438D01*
X56580069Y-80316396D01*
X56575872Y-80257113D01*
X56575500Y-80246591D01*
X56575500Y-69971069D01*
X62895164Y-69971069D01*
X62897496Y-70006646D01*
X62900564Y-70053452D01*
X62908392Y-70172894D01*
X62958178Y-70368928D01*
X62961036Y-70375128D01*
X62961038Y-70375133D01*
X63030051Y-70524832D01*
X63042856Y-70552607D01*
X63109184Y-70646460D01*
X63147557Y-70700756D01*
X63159588Y-70717780D01*
X63164484Y-70722549D01*
X63164487Y-70722553D01*
X63299569Y-70854143D01*
X63304466Y-70858913D01*
X63472637Y-70971282D01*
X63658470Y-71051122D01*
X63855740Y-71095760D01*
X63862562Y-71096028D01*
X64051013Y-71103432D01*
X64051016Y-71103432D01*
X64057842Y-71103700D01*
X64258007Y-71074678D01*
X64404721Y-71024875D01*
X64443065Y-71011859D01*
X64443066Y-71011859D01*
X64449531Y-71009664D01*
X64580433Y-70936356D01*
X64620041Y-70914175D01*
X64620043Y-70914174D01*
X64626001Y-70910837D01*
X64781505Y-70781505D01*
X64910837Y-70626001D01*
X65009664Y-70449531D01*
X65074678Y-70258007D01*
X65098315Y-70094981D01*
X65103070Y-70062190D01*
X65103071Y-70062183D01*
X65103700Y-70057842D01*
X65105215Y-70000000D01*
X65101638Y-69961066D01*
X65087333Y-69805393D01*
X65086708Y-69798591D01*
X65081094Y-69778685D01*
X65075500Y-69738241D01*
X65075500Y-67224007D01*
X74852000Y-67224007D01*
X74852001Y-70835992D01*
X74852314Y-70839396D01*
X74852314Y-70839402D01*
X74854928Y-70867848D01*
X74858671Y-70908594D01*
X74861034Y-70916133D01*
X74861034Y-70916135D01*
X74870690Y-70946946D01*
X74909373Y-71070383D01*
X74914024Y-71078063D01*
X74914025Y-71078065D01*
X74992550Y-71207726D01*
X74992553Y-71207730D01*
X74997203Y-71215408D01*
X75117092Y-71335297D01*
X75124770Y-71339947D01*
X75124774Y-71339950D01*
X75254435Y-71418475D01*
X75254437Y-71418476D01*
X75262117Y-71423127D01*
X75423906Y-71473829D01*
X75496507Y-71480500D01*
X77301708Y-71480500D01*
X79108492Y-71480499D01*
X79111896Y-71480186D01*
X79111902Y-71480186D01*
X79147152Y-71476947D01*
X79181094Y-71473829D01*
X79188633Y-71471466D01*
X79188635Y-71471466D01*
X79334315Y-71425812D01*
X79334314Y-71425812D01*
X79342883Y-71423127D01*
X79350563Y-71418476D01*
X79350565Y-71418475D01*
X79480226Y-71339950D01*
X79480230Y-71339947D01*
X79487908Y-71335297D01*
X79607797Y-71215408D01*
X79612447Y-71207730D01*
X79612450Y-71207726D01*
X79690975Y-71078065D01*
X79690976Y-71078063D01*
X79695627Y-71070383D01*
X79746329Y-70908594D01*
X79753000Y-70835993D01*
X79752999Y-67224008D01*
X79751812Y-67211082D01*
X79748443Y-67174422D01*
X79746329Y-67151406D01*
X79738538Y-67126543D01*
X79698312Y-66998185D01*
X79695627Y-66989617D01*
X79681995Y-66967107D01*
X79612450Y-66852274D01*
X79612447Y-66852270D01*
X79607797Y-66844592D01*
X79487908Y-66724703D01*
X79480230Y-66720053D01*
X79480226Y-66720050D01*
X79350565Y-66641525D01*
X79350563Y-66641524D01*
X79342883Y-66636873D01*
X79181094Y-66586171D01*
X79108493Y-66579500D01*
X77303292Y-66579500D01*
X75496508Y-66579501D01*
X75493104Y-66579814D01*
X75493098Y-66579814D01*
X75462384Y-66582636D01*
X75423906Y-66586171D01*
X75416367Y-66588534D01*
X75416365Y-66588534D01*
X75376408Y-66601056D01*
X75262117Y-66636873D01*
X75254437Y-66641524D01*
X75254435Y-66641525D01*
X75124774Y-66720050D01*
X75124770Y-66720053D01*
X75117092Y-66724703D01*
X74997203Y-66844592D01*
X74992553Y-66852270D01*
X74992550Y-66852274D01*
X74923005Y-66967107D01*
X74909373Y-66989617D01*
X74858671Y-67151406D01*
X74852000Y-67224007D01*
X65075500Y-67224007D01*
X65075500Y-63001669D01*
X77054712Y-63001669D01*
X77054935Y-63006149D01*
X77054935Y-63006150D01*
X77070579Y-63320383D01*
X77070902Y-63326879D01*
X77071660Y-63331293D01*
X77071661Y-63331298D01*
X77093386Y-63457726D01*
X77126045Y-63647789D01*
X77219341Y-63959749D01*
X77225162Y-63973105D01*
X77320718Y-64192345D01*
X77349439Y-64258242D01*
X77351710Y-64262105D01*
X77351713Y-64262111D01*
X77448709Y-64427107D01*
X77514455Y-64538944D01*
X77711998Y-64797788D01*
X77939208Y-65031025D01*
X78109007Y-65167791D01*
X78183368Y-65227685D01*
X78192792Y-65235276D01*
X78196600Y-65237651D01*
X78196603Y-65237653D01*
X78305221Y-65305393D01*
X78469078Y-65407583D01*
X78764063Y-65545451D01*
X79073474Y-65646881D01*
X79077879Y-65647757D01*
X79077882Y-65647758D01*
X79292449Y-65690438D01*
X79392830Y-65710405D01*
X79397291Y-65710744D01*
X79397296Y-65710745D01*
X79529683Y-65720815D01*
X79717505Y-65735102D01*
X79721996Y-65734902D01*
X79721998Y-65734902D01*
X80038311Y-65720815D01*
X80038316Y-65720814D01*
X80042795Y-65720615D01*
X80047215Y-65719879D01*
X80047218Y-65719879D01*
X80359567Y-65667890D01*
X80363989Y-65667154D01*
X80368291Y-65665892D01*
X80368295Y-65665891D01*
X80672124Y-65576758D01*
X80672133Y-65576755D01*
X80676434Y-65575493D01*
X80975604Y-65446959D01*
X80979469Y-65444714D01*
X80979477Y-65444710D01*
X81174556Y-65331398D01*
X81257165Y-65283415D01*
X81260738Y-65280718D01*
X81260745Y-65280713D01*
X81513468Y-65089927D01*
X81513472Y-65089923D01*
X81517040Y-65087230D01*
X81699131Y-64911694D01*
X81748230Y-64864363D01*
X81748233Y-64864359D01*
X81751464Y-64861245D01*
X81911255Y-64664972D01*
X81954206Y-64612214D01*
X81957040Y-64608733D01*
X82079111Y-64415263D01*
X82128395Y-64337154D01*
X82128399Y-64337146D01*
X82130792Y-64333354D01*
X82270202Y-64039095D01*
X82373251Y-63730218D01*
X82438446Y-63411199D01*
X82438809Y-63406737D01*
X82464630Y-63089278D01*
X82464630Y-63089275D01*
X82464843Y-63086658D01*
X82465436Y-63030000D01*
X82445841Y-62704977D01*
X82387342Y-62384663D01*
X82290784Y-62073696D01*
X82255784Y-61995634D01*
X82159404Y-61780679D01*
X82157567Y-61776582D01*
X82028493Y-61562190D01*
X81991934Y-61501465D01*
X81991930Y-61501459D01*
X81989621Y-61497624D01*
X81968743Y-61470853D01*
X81792143Y-61244409D01*
X81792138Y-61244404D01*
X81789377Y-61240863D01*
X81747775Y-61199042D01*
X81655081Y-61105862D01*
X81559738Y-61010018D01*
X81304029Y-60808433D01*
X81245476Y-60772762D01*
X81029782Y-60641361D01*
X81025954Y-60639029D01*
X80889332Y-60576910D01*
X80733632Y-60506117D01*
X80733623Y-60506114D01*
X80729542Y-60504258D01*
X80703605Y-60496055D01*
X80674627Y-60486891D01*
X80419085Y-60406073D01*
X80099081Y-60345897D01*
X80043393Y-60342247D01*
X79778644Y-60324894D01*
X79778636Y-60324894D01*
X79774166Y-60324601D01*
X79559451Y-60336418D01*
X79453529Y-60342247D01*
X79453525Y-60342247D01*
X79449045Y-60342494D01*
X79128429Y-60399315D01*
X79124139Y-60400623D01*
X79124137Y-60400623D01*
X78821251Y-60492936D01*
X78821244Y-60492939D01*
X78816961Y-60494244D01*
X78519153Y-60625903D01*
X78515298Y-60628197D01*
X78515297Y-60628197D01*
X78275809Y-60770677D01*
X78239319Y-60792386D01*
X77981513Y-60991282D01*
X77978320Y-60994425D01*
X77978318Y-60994427D01*
X77953465Y-61018893D01*
X77749469Y-61219710D01*
X77746678Y-61223212D01*
X77746673Y-61223218D01*
X77549342Y-61470853D01*
X77549338Y-61470859D01*
X77546548Y-61474360D01*
X77544196Y-61478175D01*
X77544195Y-61478177D01*
X77397603Y-61715995D01*
X77375690Y-61751544D01*
X77239369Y-62047247D01*
X77139560Y-62357185D01*
X77077709Y-62676870D01*
X77054712Y-63001669D01*
X65075500Y-63001669D01*
X65075500Y-62263083D01*
X65077042Y-62241703D01*
X65103070Y-62062190D01*
X65103071Y-62062183D01*
X65103700Y-62057842D01*
X65105215Y-62000000D01*
X65100767Y-61951587D01*
X65087333Y-61805393D01*
X65086708Y-61798591D01*
X65074398Y-61754941D01*
X65033663Y-61610507D01*
X65031807Y-61603926D01*
X65021776Y-61583584D01*
X64945370Y-61428649D01*
X64942351Y-61422527D01*
X64938270Y-61417062D01*
X64938267Y-61417057D01*
X64825423Y-61265941D01*
X64825421Y-61265939D01*
X64821335Y-61260467D01*
X64672812Y-61123174D01*
X64501757Y-61015246D01*
X64495417Y-61012717D01*
X64495412Y-61012714D01*
X64320235Y-60942826D01*
X64320233Y-60942825D01*
X64313898Y-60940298D01*
X64115526Y-60900839D01*
X64015810Y-60899534D01*
X63920120Y-60898281D01*
X63920115Y-60898281D01*
X63913286Y-60898192D01*
X63906553Y-60899349D01*
X63906552Y-60899349D01*
X63720680Y-60931287D01*
X63720676Y-60931288D01*
X63713949Y-60932444D01*
X63524193Y-61002449D01*
X63350371Y-61105862D01*
X63311881Y-61139617D01*
X63224142Y-61216562D01*
X63198305Y-61239220D01*
X63194078Y-61244582D01*
X63194077Y-61244583D01*
X63092048Y-61374008D01*
X63073089Y-61398057D01*
X62978914Y-61577053D01*
X62918937Y-61770213D01*
X62918134Y-61776996D01*
X62918134Y-61776997D01*
X62897008Y-61955493D01*
X62895164Y-61971069D01*
X62899181Y-62032354D01*
X62905663Y-62131252D01*
X62908392Y-62172894D01*
X62910074Y-62179516D01*
X62919915Y-62218266D01*
X62924500Y-62254943D01*
X62924500Y-69731388D01*
X62921244Y-69762367D01*
X62920964Y-69763686D01*
X62918937Y-69770213D01*
X62915578Y-69798591D01*
X62897063Y-69955028D01*
X62895164Y-69971069D01*
X56575500Y-69971069D01*
X56575500Y-66730094D01*
X56595462Y-66655594D01*
X56650000Y-66601056D01*
X56703119Y-66582636D01*
X56758007Y-66574678D01*
X56949531Y-66509664D01*
X57126001Y-66410837D01*
X57281505Y-66281505D01*
X57410837Y-66126001D01*
X57509664Y-65949531D01*
X57574678Y-65758007D01*
X57590790Y-65646881D01*
X57603070Y-65562190D01*
X57603071Y-65562183D01*
X57603700Y-65557842D01*
X57605215Y-65500000D01*
X57604782Y-65495281D01*
X57587333Y-65305393D01*
X57586708Y-65298591D01*
X57581094Y-65278685D01*
X57575500Y-65238241D01*
X57575500Y-62602495D01*
X57575900Y-62591581D01*
X57576301Y-62586119D01*
X57577490Y-62579126D01*
X57575535Y-62489510D01*
X57575500Y-62486260D01*
X57575500Y-62448727D01*
X57575163Y-62445190D01*
X57574911Y-62442546D01*
X57574273Y-62431650D01*
X57573169Y-62381039D01*
X57573169Y-62381035D01*
X57573014Y-62373950D01*
X57566499Y-62343691D01*
X57563838Y-62326495D01*
X57561574Y-62302767D01*
X57560900Y-62295703D01*
X57558904Y-62288901D01*
X57558902Y-62288888D01*
X57544653Y-62240319D01*
X57541971Y-62229763D01*
X57529820Y-62173322D01*
X57524854Y-62161652D01*
X57517707Y-62144854D01*
X57511836Y-62128458D01*
X57505124Y-62105579D01*
X57503129Y-62098777D01*
X57476698Y-62047459D01*
X57472063Y-62037587D01*
X57452244Y-61991008D01*
X57452243Y-61991006D01*
X57449467Y-61984482D01*
X57445506Y-61978598D01*
X57445503Y-61978593D01*
X57432194Y-61958825D01*
X57423327Y-61943833D01*
X57422932Y-61943065D01*
X57409162Y-61916329D01*
X57373518Y-61870953D01*
X57367090Y-61862122D01*
X57337848Y-61818686D01*
X57337847Y-61818684D01*
X57334856Y-61814242D01*
X57331226Y-61810239D01*
X57312353Y-61791366D01*
X57300548Y-61778058D01*
X57282389Y-61754941D01*
X57277041Y-61750300D01*
X57277038Y-61750297D01*
X57237508Y-61715995D01*
X57229804Y-61708817D01*
X56625846Y-61104859D01*
X56587282Y-61038064D01*
X56587282Y-60960936D01*
X56625846Y-60894141D01*
X56692641Y-60855577D01*
X56731205Y-60850500D01*
X61457977Y-60850500D01*
X61470445Y-60851023D01*
X61520902Y-60855260D01*
X61528906Y-60854192D01*
X61528908Y-60854192D01*
X61600402Y-60844653D01*
X61604014Y-60844216D01*
X61675683Y-60836430D01*
X61675684Y-60836430D01*
X61683709Y-60835558D01*
X61691173Y-60833046D01*
X61691815Y-60832933D01*
X61691987Y-60832891D01*
X61695523Y-60832068D01*
X61695653Y-60832039D01*
X61696265Y-60831861D01*
X61704069Y-60830820D01*
X61779438Y-60803388D01*
X61782785Y-60802215D01*
X61858848Y-60776617D01*
X61865595Y-60772563D01*
X61866197Y-60772315D01*
X61866369Y-60772230D01*
X61869624Y-60770677D01*
X61869759Y-60770615D01*
X61870317Y-60770311D01*
X61877715Y-60767618D01*
X61945428Y-60724647D01*
X61948473Y-60722765D01*
X62017244Y-60681443D01*
X62022967Y-60676031D01*
X62024407Y-60675031D01*
X62028575Y-60671879D01*
X62033738Y-60668602D01*
X62037972Y-60664817D01*
X62091274Y-60611515D01*
X62094257Y-60608615D01*
X62145640Y-60560024D01*
X62151507Y-60554476D01*
X62156044Y-60547800D01*
X62158200Y-60545267D01*
X62166308Y-60536481D01*
X74233648Y-48469141D01*
X74300443Y-48430577D01*
X74339007Y-48425500D01*
X76910124Y-48425500D01*
X76984624Y-48445462D01*
X77029977Y-48486300D01*
X77031741Y-48489179D01*
X77190241Y-48674759D01*
X77375821Y-48833259D01*
X77583911Y-48960777D01*
X77589320Y-48963017D01*
X77589323Y-48963019D01*
X77684517Y-49002449D01*
X77809388Y-49054172D01*
X77815075Y-49055537D01*
X77815077Y-49055538D01*
X78041011Y-49109781D01*
X78041015Y-49109782D01*
X78046698Y-49111146D01*
X78052524Y-49111604D01*
X78052527Y-49111605D01*
X78284168Y-49129835D01*
X78290000Y-49130294D01*
X78295832Y-49129835D01*
X78527473Y-49111605D01*
X78527476Y-49111604D01*
X78533302Y-49111146D01*
X78538985Y-49109782D01*
X78538989Y-49109781D01*
X78764923Y-49055538D01*
X78764925Y-49055537D01*
X78770612Y-49054172D01*
X78895483Y-49002449D01*
X78990677Y-48963019D01*
X78990680Y-48963017D01*
X78996089Y-48960777D01*
X79204179Y-48833259D01*
X79389759Y-48674759D01*
X79393558Y-48670311D01*
X79393565Y-48670304D01*
X79446700Y-48608091D01*
X79510263Y-48564405D01*
X79587153Y-48558354D01*
X79656768Y-48591559D01*
X79673300Y-48608091D01*
X79726435Y-48670304D01*
X79726442Y-48670311D01*
X79730241Y-48674759D01*
X79915821Y-48833259D01*
X80123911Y-48960777D01*
X80129320Y-48963017D01*
X80129323Y-48963019D01*
X80224517Y-49002449D01*
X80349388Y-49054172D01*
X80355075Y-49055537D01*
X80355077Y-49055538D01*
X80581011Y-49109781D01*
X80581015Y-49109782D01*
X80586698Y-49111146D01*
X80592524Y-49111604D01*
X80592527Y-49111605D01*
X80824168Y-49129835D01*
X80830000Y-49130294D01*
X80835832Y-49129835D01*
X81067473Y-49111605D01*
X81067476Y-49111604D01*
X81073302Y-49111146D01*
X81078985Y-49109782D01*
X81078989Y-49109781D01*
X81304923Y-49055538D01*
X81304925Y-49055537D01*
X81310612Y-49054172D01*
X81435483Y-49002449D01*
X81530677Y-48963019D01*
X81530680Y-48963017D01*
X81536089Y-48960777D01*
X81744179Y-48833259D01*
X81929759Y-48674759D01*
X82088259Y-48489179D01*
X82215777Y-48281089D01*
X82309172Y-48055612D01*
X82346315Y-47900903D01*
X82364781Y-47823989D01*
X82364782Y-47823985D01*
X82366146Y-47818302D01*
X82369678Y-47773431D01*
X82384835Y-47580832D01*
X82385294Y-47575000D01*
X82376555Y-47463956D01*
X82366605Y-47337527D01*
X82366604Y-47337524D01*
X82366146Y-47331698D01*
X82309172Y-47094388D01*
X82266328Y-46990952D01*
X82218019Y-46874323D01*
X82218017Y-46874320D01*
X82215777Y-46868911D01*
X82088259Y-46660821D01*
X81988521Y-46544042D01*
X81933558Y-46479689D01*
X81929759Y-46475241D01*
X81925311Y-46471442D01*
X81925304Y-46471435D01*
X81863091Y-46418300D01*
X81819405Y-46354737D01*
X81813354Y-46277847D01*
X81846559Y-46208232D01*
X81863091Y-46191700D01*
X81925304Y-46138565D01*
X81925311Y-46138558D01*
X81929759Y-46134759D01*
X82088259Y-45949179D01*
X82215777Y-45741089D01*
X82309172Y-45515612D01*
X82319914Y-45470871D01*
X82364781Y-45283989D01*
X82364782Y-45283985D01*
X82366146Y-45278302D01*
X82385294Y-45035000D01*
X82366146Y-44791698D01*
X82364536Y-44784989D01*
X82310538Y-44560077D01*
X82310537Y-44560075D01*
X82309172Y-44554388D01*
X82215777Y-44328911D01*
X82088259Y-44120821D01*
X82013420Y-44033195D01*
X81933558Y-43939689D01*
X81929759Y-43935241D01*
X81925311Y-43931442D01*
X81925304Y-43931435D01*
X81863091Y-43878300D01*
X81819405Y-43814737D01*
X81813354Y-43737847D01*
X81846559Y-43668232D01*
X81863091Y-43651700D01*
X81925304Y-43598565D01*
X81925311Y-43598558D01*
X81929759Y-43594759D01*
X81950163Y-43570869D01*
X82084461Y-43413626D01*
X82084462Y-43413625D01*
X82088259Y-43409179D01*
X82215777Y-43201089D01*
X82226372Y-43175512D01*
X82292683Y-43015421D01*
X82309172Y-42975612D01*
X82310538Y-42969923D01*
X82364781Y-42743989D01*
X82364782Y-42743985D01*
X82366146Y-42738302D01*
X82375479Y-42619720D01*
X82384835Y-42500832D01*
X82385294Y-42495000D01*
X82377483Y-42395746D01*
X82366605Y-42257527D01*
X82366604Y-42257524D01*
X82366146Y-42251698D01*
X82336903Y-42129891D01*
X82310538Y-42020077D01*
X82310537Y-42020075D01*
X82309172Y-42014388D01*
X82215777Y-41788911D01*
X82088259Y-41580821D01*
X82032501Y-41515536D01*
X81933558Y-41399689D01*
X81929759Y-41395241D01*
X81925311Y-41391442D01*
X81925304Y-41391435D01*
X81863091Y-41338300D01*
X81819405Y-41274737D01*
X81813354Y-41197847D01*
X81846559Y-41128232D01*
X81863091Y-41111700D01*
X81925304Y-41058565D01*
X81925311Y-41058558D01*
X81929759Y-41054759D01*
X82088259Y-40869179D01*
X82215777Y-40661089D01*
X82240098Y-40602374D01*
X82276187Y-40515246D01*
X82309172Y-40435612D01*
X82310538Y-40429923D01*
X82364781Y-40203989D01*
X82364782Y-40203985D01*
X82366146Y-40198302D01*
X82385294Y-39955000D01*
X82366146Y-39711698D01*
X82309172Y-39474388D01*
X82264332Y-39366135D01*
X82218019Y-39254323D01*
X82218017Y-39254320D01*
X82215777Y-39248911D01*
X82088259Y-39040821D01*
X81929759Y-38855241D01*
X81744179Y-38696741D01*
X81536089Y-38569223D01*
X81530680Y-38566983D01*
X81530677Y-38566981D01*
X81316017Y-38478067D01*
X81310612Y-38475828D01*
X81304925Y-38474463D01*
X81304923Y-38474462D01*
X81078989Y-38420219D01*
X81078985Y-38420218D01*
X81073302Y-38418854D01*
X81067476Y-38418396D01*
X81067473Y-38418395D01*
X80835832Y-38400165D01*
X80830000Y-38399706D01*
X80824168Y-38400165D01*
X80592527Y-38418395D01*
X80592524Y-38418396D01*
X80586698Y-38418854D01*
X80581015Y-38420218D01*
X80581011Y-38420219D01*
X80355077Y-38474462D01*
X80355075Y-38474463D01*
X80349388Y-38475828D01*
X80343983Y-38478067D01*
X80129323Y-38566981D01*
X80129320Y-38566983D01*
X80123911Y-38569223D01*
X79915821Y-38696741D01*
X79911368Y-38700545D01*
X79906632Y-38703985D01*
X79905493Y-38702417D01*
X79844231Y-38731649D01*
X79767340Y-38725609D01*
X79699862Y-38677129D01*
X79695297Y-38669592D01*
X79575408Y-38549703D01*
X79567730Y-38545053D01*
X79567726Y-38545050D01*
X79438065Y-38466525D01*
X79438063Y-38466524D01*
X79430383Y-38461873D01*
X79268594Y-38411171D01*
X79195993Y-38404500D01*
X79181423Y-38404500D01*
X77996930Y-38404501D01*
X77922431Y-38384539D01*
X77867893Y-38330001D01*
X77847931Y-38255501D01*
X77867893Y-38181001D01*
X77882374Y-38160225D01*
X77906465Y-38131258D01*
X77906466Y-38131256D01*
X77910837Y-38126001D01*
X77934592Y-38083584D01*
X78006325Y-37955493D01*
X78009664Y-37949531D01*
X78074678Y-37758007D01*
X78103700Y-37557842D01*
X78105215Y-37500000D01*
X78086708Y-37298591D01*
X78031807Y-37103926D01*
X77942351Y-36922527D01*
X77938270Y-36917062D01*
X77938267Y-36917057D01*
X77881050Y-36840435D01*
X77852470Y-36768798D01*
X77863537Y-36692468D01*
X77885880Y-36656008D01*
X77906470Y-36631252D01*
X77906471Y-36631250D01*
X77910837Y-36626001D01*
X77923876Y-36602719D01*
X77997483Y-36471282D01*
X78009664Y-36449531D01*
X78074678Y-36258007D01*
X78103700Y-36057842D01*
X78105215Y-36000000D01*
X78086708Y-35798591D01*
X78031807Y-35603926D01*
X77942351Y-35422527D01*
X77938270Y-35417062D01*
X77938267Y-35417057D01*
X77825423Y-35265941D01*
X77825421Y-35265939D01*
X77821335Y-35260467D01*
X77672812Y-35123174D01*
X77501757Y-35015246D01*
X77495417Y-35012717D01*
X77495412Y-35012714D01*
X77320242Y-34942829D01*
X77313898Y-34940298D01*
X77233273Y-34924261D01*
X77164099Y-34890148D01*
X77156982Y-34883483D01*
X75195156Y-32921657D01*
X75179971Y-32903877D01*
X75177483Y-32900453D01*
X75177481Y-32900451D01*
X75172888Y-32894129D01*
X75122975Y-32849187D01*
X75117317Y-32843818D01*
X75103380Y-32829881D01*
X75088066Y-32817480D01*
X75082137Y-32812416D01*
X75038022Y-32772695D01*
X75032216Y-32767467D01*
X75021779Y-32761441D01*
X75002517Y-32748203D01*
X74993149Y-32740617D01*
X74987683Y-32737832D01*
X74936526Y-32681017D01*
X74920490Y-32605574D01*
X74944324Y-32532221D01*
X74996481Y-32483371D01*
X75126001Y-32410837D01*
X75281505Y-32281505D01*
X75410837Y-32126001D01*
X75509664Y-31949531D01*
X75574678Y-31758007D01*
X75603700Y-31557842D01*
X75605215Y-31500000D01*
X75604524Y-31492473D01*
X75587333Y-31305393D01*
X75586708Y-31298591D01*
X75575246Y-31257949D01*
X75574236Y-31180831D01*
X75611922Y-31113537D01*
X75678206Y-31074101D01*
X75751536Y-31072181D01*
X75773068Y-31077053D01*
X75855740Y-31095760D01*
X75862562Y-31096028D01*
X76051013Y-31103432D01*
X76051016Y-31103432D01*
X76057842Y-31103700D01*
X76258007Y-31074678D01*
X76405269Y-31024689D01*
X76443065Y-31011859D01*
X76443066Y-31011859D01*
X76449531Y-31009664D01*
X76524837Y-30967491D01*
X76599592Y-30948506D01*
X76673824Y-30969442D01*
X76727643Y-31024689D01*
X76746628Y-31099444D01*
X76746182Y-31109179D01*
X76734706Y-31255000D01*
X76735165Y-31260832D01*
X76751177Y-31464283D01*
X76753854Y-31498302D01*
X76755218Y-31503985D01*
X76755219Y-31503989D01*
X76769192Y-31562190D01*
X76810828Y-31735612D01*
X76813067Y-31741017D01*
X76899436Y-31949531D01*
X76904223Y-31961089D01*
X77031741Y-32169179D01*
X77190241Y-32354759D01*
X77375821Y-32513259D01*
X77583911Y-32640777D01*
X77589320Y-32643017D01*
X77589323Y-32643019D01*
X77719029Y-32696744D01*
X77809388Y-32734172D01*
X77815075Y-32735537D01*
X77815077Y-32735538D01*
X78041011Y-32789781D01*
X78041015Y-32789782D01*
X78046698Y-32791146D01*
X78052524Y-32791604D01*
X78052527Y-32791605D01*
X78284168Y-32809835D01*
X78290000Y-32810294D01*
X78295832Y-32809835D01*
X78527473Y-32791605D01*
X78527476Y-32791604D01*
X78533302Y-32791146D01*
X78538985Y-32789782D01*
X78538989Y-32789781D01*
X78764923Y-32735538D01*
X78764925Y-32735537D01*
X78770612Y-32734172D01*
X78860971Y-32696744D01*
X78990677Y-32643019D01*
X78990680Y-32643017D01*
X78996089Y-32640777D01*
X79204179Y-32513259D01*
X79389759Y-32354759D01*
X79393558Y-32350311D01*
X79393565Y-32350304D01*
X79446700Y-32288091D01*
X79510263Y-32244405D01*
X79587153Y-32238354D01*
X79656768Y-32271559D01*
X79673300Y-32288091D01*
X79726435Y-32350304D01*
X79726442Y-32350311D01*
X79730241Y-32354759D01*
X79915821Y-32513259D01*
X80123911Y-32640777D01*
X80129320Y-32643017D01*
X80129323Y-32643019D01*
X80259029Y-32696744D01*
X80349388Y-32734172D01*
X80355075Y-32735537D01*
X80355077Y-32735538D01*
X80581011Y-32789781D01*
X80581015Y-32789782D01*
X80586698Y-32791146D01*
X80592524Y-32791604D01*
X80592527Y-32791605D01*
X80824168Y-32809835D01*
X80830000Y-32810294D01*
X80835832Y-32809835D01*
X81067473Y-32791605D01*
X81067476Y-32791604D01*
X81073302Y-32791146D01*
X81078985Y-32789782D01*
X81078989Y-32789781D01*
X81304923Y-32735538D01*
X81304925Y-32735537D01*
X81310612Y-32734172D01*
X81400971Y-32696744D01*
X81530677Y-32643019D01*
X81530680Y-32643017D01*
X81536089Y-32640777D01*
X81744179Y-32513259D01*
X81929759Y-32354759D01*
X82088259Y-32169179D01*
X82215777Y-31961089D01*
X82220565Y-31949531D01*
X82306933Y-31741017D01*
X82309172Y-31735612D01*
X82350808Y-31562190D01*
X82364781Y-31503989D01*
X82364782Y-31503985D01*
X82366146Y-31498302D01*
X82368824Y-31464283D01*
X82384835Y-31260832D01*
X82385294Y-31255000D01*
X82373818Y-31109183D01*
X82366605Y-31017527D01*
X82366604Y-31017524D01*
X82366146Y-31011698D01*
X82354950Y-30965061D01*
X82310538Y-30780077D01*
X82310537Y-30780075D01*
X82309172Y-30774388D01*
X82215777Y-30548911D01*
X82088259Y-30340821D01*
X81941135Y-30168560D01*
X81933558Y-30159689D01*
X81929759Y-30155241D01*
X81925311Y-30151442D01*
X81925304Y-30151435D01*
X81863091Y-30098300D01*
X81819405Y-30034737D01*
X81813354Y-29957847D01*
X81846559Y-29888232D01*
X81863091Y-29871700D01*
X81925304Y-29818565D01*
X81925311Y-29818558D01*
X81929759Y-29814759D01*
X82088259Y-29629179D01*
X82215777Y-29421089D01*
X82309172Y-29195612D01*
X82349655Y-29026992D01*
X82364781Y-28963989D01*
X82364782Y-28963985D01*
X82366146Y-28958302D01*
X82367261Y-28944141D01*
X82384835Y-28720832D01*
X82384835Y-28720831D01*
X82385294Y-28715000D01*
X82382396Y-28678182D01*
X82366605Y-28477527D01*
X82366604Y-28477524D01*
X82366146Y-28471698D01*
X82362548Y-28456709D01*
X82310538Y-28240077D01*
X82310537Y-28240075D01*
X82309172Y-28234388D01*
X82241152Y-28070172D01*
X82218019Y-28014323D01*
X82218017Y-28014320D01*
X82215777Y-28008911D01*
X82088259Y-27800821D01*
X81929759Y-27615241D01*
X81744179Y-27456741D01*
X81536089Y-27329223D01*
X81530680Y-27326983D01*
X81530677Y-27326981D01*
X81316017Y-27238067D01*
X81310612Y-27235828D01*
X81304925Y-27234463D01*
X81304923Y-27234462D01*
X81078989Y-27180219D01*
X81078985Y-27180218D01*
X81073302Y-27178854D01*
X81067476Y-27178396D01*
X81067473Y-27178395D01*
X80835832Y-27160165D01*
X80830000Y-27159706D01*
X80824168Y-27160165D01*
X80592527Y-27178395D01*
X80592524Y-27178396D01*
X80586698Y-27178854D01*
X80581015Y-27180218D01*
X80581011Y-27180219D01*
X80355077Y-27234462D01*
X80355075Y-27234463D01*
X80349388Y-27235828D01*
X80343983Y-27238067D01*
X80129323Y-27326981D01*
X80129320Y-27326983D01*
X80123911Y-27329223D01*
X80118913Y-27332286D01*
X80035651Y-27383309D01*
X79961700Y-27405215D01*
X79886703Y-27387210D01*
X79830756Y-27334118D01*
X79808850Y-27260167D01*
X79815617Y-27211709D01*
X79831465Y-27161138D01*
X79831465Y-27161137D01*
X79833829Y-27153594D01*
X79840500Y-27080993D01*
X79840499Y-25269008D01*
X79839118Y-25253969D01*
X79835089Y-25210120D01*
X79833829Y-25196406D01*
X79825272Y-25169099D01*
X79785812Y-25043185D01*
X79783127Y-25034617D01*
X79776443Y-25023580D01*
X79699950Y-24897274D01*
X79699947Y-24897270D01*
X79695297Y-24889592D01*
X79575408Y-24769703D01*
X79567730Y-24765053D01*
X79567726Y-24765050D01*
X79438065Y-24686525D01*
X79438063Y-24686524D01*
X79430383Y-24681873D01*
X79268594Y-24631171D01*
X79195993Y-24624500D01*
X78290398Y-24624500D01*
X77384008Y-24624501D01*
X77380604Y-24624814D01*
X77380598Y-24624814D01*
X77345348Y-24628053D01*
X77311406Y-24631171D01*
X77303867Y-24633534D01*
X77303865Y-24633534D01*
X77283928Y-24639782D01*
X77149617Y-24681873D01*
X77141937Y-24686524D01*
X77141935Y-24686525D01*
X77012274Y-24765050D01*
X77012270Y-24765053D01*
X77004592Y-24769703D01*
X76884703Y-24889592D01*
X76880053Y-24897270D01*
X76880050Y-24897274D01*
X76803557Y-25023580D01*
X76796873Y-25034617D01*
X76777115Y-25097666D01*
X76748540Y-25188847D01*
X76707212Y-25253969D01*
X76639211Y-25289067D01*
X76636744Y-25289326D01*
X76615109Y-25296356D01*
X76572861Y-25310082D01*
X76565385Y-25312296D01*
X76508060Y-25327657D01*
X76508054Y-25327659D01*
X76500513Y-25329680D01*
X76489777Y-25335150D01*
X76468178Y-25344096D01*
X76456716Y-25347821D01*
X76398535Y-25381412D01*
X76391707Y-25385119D01*
X76338810Y-25412070D01*
X76338808Y-25412072D01*
X76331851Y-25415616D01*
X76325786Y-25420527D01*
X76325779Y-25420532D01*
X76322481Y-25423203D01*
X76303213Y-25436446D01*
X76292784Y-25442467D01*
X76286978Y-25447695D01*
X76242883Y-25487398D01*
X76236954Y-25492462D01*
X76224651Y-25502425D01*
X76224645Y-25502430D01*
X76221620Y-25504880D01*
X76207673Y-25518827D01*
X76202015Y-25524196D01*
X76152112Y-25569129D01*
X76147519Y-25575451D01*
X76145033Y-25578872D01*
X76129849Y-25596651D01*
X73921657Y-27804844D01*
X73903877Y-27820029D01*
X73900453Y-27822517D01*
X73894129Y-27827112D01*
X73849187Y-27877025D01*
X73843818Y-27882683D01*
X73829881Y-27896620D01*
X73818169Y-27911084D01*
X73817480Y-27911934D01*
X73812416Y-27917863D01*
X73767467Y-27967784D01*
X73763562Y-27974548D01*
X73763561Y-27974549D01*
X73761441Y-27978221D01*
X73748203Y-27997483D01*
X73740617Y-28006851D01*
X73737071Y-28013811D01*
X73737068Y-28013815D01*
X73710120Y-28066704D01*
X73706414Y-28073530D01*
X73672821Y-28131716D01*
X73670409Y-28139140D01*
X73669099Y-28143171D01*
X73660152Y-28164773D01*
X73654680Y-28175512D01*
X73652661Y-28183048D01*
X73652660Y-28183050D01*
X73637294Y-28240396D01*
X73635080Y-28247871D01*
X73614326Y-28311744D01*
X73613510Y-28319508D01*
X73613067Y-28323721D01*
X73608806Y-28346714D01*
X73605687Y-28358354D01*
X73605278Y-28366154D01*
X73605278Y-28366156D01*
X73602172Y-28425428D01*
X73601560Y-28433203D01*
X73599908Y-28448924D01*
X73599500Y-28452808D01*
X73599500Y-28472515D01*
X73599296Y-28480312D01*
X73595781Y-28547388D01*
X73597002Y-28555096D01*
X73597002Y-28555100D01*
X73597666Y-28559291D01*
X73599500Y-28582599D01*
X73599500Y-30814400D01*
X73579538Y-30888900D01*
X73576849Y-30893287D01*
X73573089Y-30898057D01*
X73569911Y-30904098D01*
X73569908Y-30904102D01*
X73566365Y-30910837D01*
X73478914Y-31077053D01*
X73418937Y-31270213D01*
X73395164Y-31471069D01*
X73399181Y-31532354D01*
X73400564Y-31553452D01*
X73408392Y-31672894D01*
X73458178Y-31868928D01*
X73461036Y-31875128D01*
X73461038Y-31875133D01*
X73498085Y-31955493D01*
X73542856Y-32052607D01*
X73659588Y-32217780D01*
X73788924Y-32343773D01*
X73828358Y-32410055D01*
X73829367Y-32487176D01*
X73791681Y-32554471D01*
X73725397Y-32593906D01*
X73684952Y-32599500D01*
X72178368Y-32599500D01*
X72098859Y-32576513D01*
X72007537Y-32518893D01*
X72007538Y-32518893D01*
X72001757Y-32515246D01*
X71995417Y-32512717D01*
X71995412Y-32512714D01*
X71820235Y-32442826D01*
X71820233Y-32442825D01*
X71813898Y-32440298D01*
X71615526Y-32400839D01*
X71515810Y-32399534D01*
X71420120Y-32398281D01*
X71420115Y-32398281D01*
X71413286Y-32398192D01*
X71406553Y-32399349D01*
X71406552Y-32399349D01*
X71220680Y-32431287D01*
X71220676Y-32431288D01*
X71213949Y-32432444D01*
X71024193Y-32502449D01*
X70850371Y-32605862D01*
X70698305Y-32739220D01*
X70694078Y-32744582D01*
X70694077Y-32744583D01*
X70611615Y-32849187D01*
X70573089Y-32898057D01*
X70478914Y-33077053D01*
X70418937Y-33270213D01*
X70418134Y-33276998D01*
X70416670Y-33289366D01*
X70388089Y-33361003D01*
X70327519Y-33408752D01*
X70293936Y-33418700D01*
X70220680Y-33431287D01*
X70220676Y-33431288D01*
X70213949Y-33432444D01*
X70024193Y-33502449D01*
X69850371Y-33605862D01*
X69698305Y-33739220D01*
X69573089Y-33898057D01*
X69478914Y-34077053D01*
X69418937Y-34270213D01*
X69418134Y-34276998D01*
X69416670Y-34289366D01*
X69388089Y-34361003D01*
X69327519Y-34408752D01*
X69293936Y-34418700D01*
X69220680Y-34431287D01*
X69220676Y-34431288D01*
X69213949Y-34432444D01*
X69024193Y-34502449D01*
X68850371Y-34605862D01*
X68698305Y-34739220D01*
X68573089Y-34898057D01*
X68478914Y-35077053D01*
X68418937Y-35270213D01*
X68395164Y-35471069D01*
X68408392Y-35672894D01*
X68458178Y-35868928D01*
X68461036Y-35875128D01*
X68461038Y-35875133D01*
X68520624Y-36004383D01*
X68542856Y-36052607D01*
X68659588Y-36217780D01*
X68664484Y-36222549D01*
X68664487Y-36222553D01*
X68799569Y-36354143D01*
X68804466Y-36358913D01*
X68972637Y-36471282D01*
X69158470Y-36551122D01*
X69355740Y-36595760D01*
X69362562Y-36596028D01*
X69551013Y-36603432D01*
X69551016Y-36603432D01*
X69557842Y-36603700D01*
X69758007Y-36574678D01*
X69949531Y-36509664D01*
X70068453Y-36443065D01*
X70110536Y-36419498D01*
X70183340Y-36400500D01*
X73065283Y-36400500D01*
X73139783Y-36420462D01*
X73170642Y-36444141D01*
X74513226Y-37786725D01*
X74551790Y-37853520D01*
X74551790Y-37930648D01*
X74539730Y-37961461D01*
X74478914Y-38077053D01*
X74418937Y-38270213D01*
X74418134Y-38276996D01*
X74418134Y-38276997D01*
X74401183Y-38420219D01*
X74395164Y-38471069D01*
X74408392Y-38672894D01*
X74458178Y-38868928D01*
X74461036Y-38875128D01*
X74461038Y-38875133D01*
X74539724Y-39045814D01*
X74542856Y-39052607D01*
X74546800Y-39058187D01*
X74629200Y-39174782D01*
X74655895Y-39247143D01*
X74642833Y-39323157D01*
X74612879Y-39366135D01*
X63811974Y-50167039D01*
X63803973Y-50174474D01*
X63799836Y-50178045D01*
X63794050Y-50182149D01*
X63789149Y-50187268D01*
X63789145Y-50187272D01*
X63732092Y-50246871D01*
X63729819Y-50249194D01*
X63703251Y-50275762D01*
X63700997Y-50278491D01*
X63700994Y-50278495D01*
X63699290Y-50280559D01*
X63692027Y-50288724D01*
X63652134Y-50330396D01*
X63648284Y-50336358D01*
X63648282Y-50336361D01*
X63635353Y-50356385D01*
X63625071Y-50370434D01*
X63605371Y-50394290D01*
X63577691Y-50444952D01*
X63572130Y-50454300D01*
X63540811Y-50502804D01*
X63529250Y-50531492D01*
X63521808Y-50547234D01*
X63510373Y-50568164D01*
X63510371Y-50568169D01*
X63506973Y-50574388D01*
X63504812Y-50581138D01*
X63504811Y-50581141D01*
X63489375Y-50629364D01*
X63485674Y-50639616D01*
X63464099Y-50693152D01*
X63462740Y-50700110D01*
X63462739Y-50700114D01*
X63458170Y-50723512D01*
X63453840Y-50740377D01*
X63446570Y-50763087D01*
X63446569Y-50763093D01*
X63444408Y-50769843D01*
X63437522Y-50827168D01*
X63435829Y-50837912D01*
X63424764Y-50894572D01*
X63424500Y-50899970D01*
X63424500Y-50926655D01*
X63423436Y-50944426D01*
X63419931Y-50973604D01*
X63420432Y-50980674D01*
X63424128Y-51032882D01*
X63424500Y-51043405D01*
X63424500Y-52231388D01*
X63421244Y-52262367D01*
X63420964Y-52263686D01*
X63418937Y-52270213D01*
X63395164Y-52471069D01*
X63398222Y-52517731D01*
X63403296Y-52595135D01*
X63408392Y-52672894D01*
X63458178Y-52868928D01*
X63461036Y-52875128D01*
X63461038Y-52875133D01*
X63539995Y-53046402D01*
X63542856Y-53052607D01*
X63609184Y-53146460D01*
X63627638Y-53172571D01*
X63659588Y-53217780D01*
X63664484Y-53222549D01*
X63664487Y-53222553D01*
X63784897Y-53339850D01*
X63804466Y-53358913D01*
X63972637Y-53471282D01*
X64158470Y-53551122D01*
X64355740Y-53595760D01*
X64362562Y-53596028D01*
X64557842Y-53603700D01*
X64557778Y-53605340D01*
X64624684Y-53619564D01*
X64681999Y-53671174D01*
X64705830Y-53744528D01*
X64689791Y-53819971D01*
X64662393Y-53857680D01*
X60513255Y-58006819D01*
X60446460Y-58045383D01*
X60407896Y-58050460D01*
X55920425Y-58050460D01*
X39183333Y-58050461D01*
X39108833Y-58030499D01*
X39054295Y-57975961D01*
X39034333Y-57901461D01*
X39042240Y-57853566D01*
X39072483Y-57764473D01*
X39074678Y-57758007D01*
X39103700Y-57557842D01*
X39105215Y-57500000D01*
X39086708Y-57298591D01*
X39031807Y-57103926D01*
X38942351Y-56922527D01*
X38938262Y-56917051D01*
X38930112Y-56906136D01*
X38901533Y-56834499D01*
X38900500Y-56816987D01*
X38900500Y-51033717D01*
X38920462Y-50959217D01*
X38975000Y-50904679D01*
X39049500Y-50884717D01*
X39124000Y-50904679D01*
X39154859Y-50928358D01*
X40232825Y-52006325D01*
X41304849Y-53078349D01*
X41320033Y-53096128D01*
X41327112Y-53105871D01*
X41332916Y-53111097D01*
X41377015Y-53150804D01*
X41382673Y-53156173D01*
X41396620Y-53170120D01*
X41411955Y-53182539D01*
X41417870Y-53187591D01*
X41467784Y-53232533D01*
X41474548Y-53236438D01*
X41474555Y-53236443D01*
X41478215Y-53238556D01*
X41497493Y-53251804D01*
X41506851Y-53259383D01*
X41513808Y-53262928D01*
X41513813Y-53262931D01*
X41566704Y-53289880D01*
X41573530Y-53293586D01*
X41631716Y-53327179D01*
X41643171Y-53330901D01*
X41664773Y-53339848D01*
X41675512Y-53345320D01*
X41683057Y-53347342D01*
X41683058Y-53347342D01*
X41740383Y-53362702D01*
X41747863Y-53364918D01*
X41796776Y-53380811D01*
X41811744Y-53385674D01*
X41819511Y-53386490D01*
X41819514Y-53386491D01*
X41823722Y-53386933D01*
X41846715Y-53391194D01*
X41858355Y-53394313D01*
X41866155Y-53394722D01*
X41866157Y-53394722D01*
X41925427Y-53397828D01*
X41933201Y-53398440D01*
X41948922Y-53400092D01*
X41948931Y-53400092D01*
X41952808Y-53400500D01*
X41972516Y-53400500D01*
X41980312Y-53400704D01*
X42047388Y-53404219D01*
X42055096Y-53402998D01*
X42055100Y-53402998D01*
X42059291Y-53402334D01*
X42082599Y-53400500D01*
X48321506Y-53400500D01*
X48396006Y-53420462D01*
X48404286Y-53425611D01*
X48472637Y-53471282D01*
X48658470Y-53551122D01*
X48855740Y-53595760D01*
X48862562Y-53596028D01*
X49051013Y-53603432D01*
X49051016Y-53603432D01*
X49057842Y-53603700D01*
X49258007Y-53574678D01*
X49449531Y-53509664D01*
X49518068Y-53471282D01*
X49620041Y-53414175D01*
X49620043Y-53414174D01*
X49626001Y-53410837D01*
X49781505Y-53281505D01*
X49910837Y-53126001D01*
X50009664Y-52949531D01*
X50074678Y-52758007D01*
X50103700Y-52557842D01*
X50105215Y-52500000D01*
X50086708Y-52298591D01*
X50078886Y-52270856D01*
X50077878Y-52193735D01*
X50115566Y-52126441D01*
X50181851Y-52087007D01*
X50200912Y-52082956D01*
X50258007Y-52074678D01*
X50449531Y-52009664D01*
X50535983Y-51961249D01*
X50620041Y-51914175D01*
X50620043Y-51914174D01*
X50626001Y-51910837D01*
X50781505Y-51781505D01*
X50910837Y-51626001D01*
X51009664Y-51449531D01*
X51074678Y-51258007D01*
X51075658Y-51251251D01*
X51075659Y-51251245D01*
X51083254Y-51198857D01*
X51113699Y-51127992D01*
X51175498Y-51081844D01*
X51252091Y-51072778D01*
X51263596Y-51074910D01*
X51292672Y-51081489D01*
X51355740Y-51095760D01*
X51362562Y-51096028D01*
X51551013Y-51103432D01*
X51551016Y-51103432D01*
X51557842Y-51103700D01*
X51758007Y-51074678D01*
X51949531Y-51009664D01*
X52026492Y-50966564D01*
X52120041Y-50914175D01*
X52120043Y-50914174D01*
X52126001Y-50910837D01*
X52281505Y-50781505D01*
X52410837Y-50626001D01*
X52439742Y-50574388D01*
X52506325Y-50455493D01*
X52509664Y-50449531D01*
X52574678Y-50258007D01*
X52586789Y-50174474D01*
X52603070Y-50062190D01*
X52603071Y-50062183D01*
X52603700Y-50057842D01*
X52605215Y-50000000D01*
X52586708Y-49798591D01*
X52531807Y-49603926D01*
X52442351Y-49422527D01*
X52438270Y-49417062D01*
X52438267Y-49417057D01*
X52325423Y-49265941D01*
X52325421Y-49265939D01*
X52321335Y-49260467D01*
X52172812Y-49123174D01*
X52001757Y-49015246D01*
X51995417Y-49012717D01*
X51995412Y-49012714D01*
X51820235Y-48942826D01*
X51820233Y-48942825D01*
X51813898Y-48940298D01*
X51615526Y-48900839D01*
X51515810Y-48899534D01*
X51420120Y-48898281D01*
X51420115Y-48898281D01*
X51413286Y-48898192D01*
X51406553Y-48899349D01*
X51406552Y-48899349D01*
X51220680Y-48931287D01*
X51220676Y-48931288D01*
X51213949Y-48932444D01*
X51024193Y-49002449D01*
X51018326Y-49005939D01*
X51018327Y-49005939D01*
X50896275Y-49078552D01*
X50820092Y-49099500D01*
X42353277Y-49099500D01*
X42278777Y-49079538D01*
X42247918Y-49055859D01*
X42053181Y-48861122D01*
X42014617Y-48794327D01*
X42009540Y-48755763D01*
X42009540Y-47424440D01*
X55304963Y-47424440D01*
X55318694Y-47662562D01*
X55371131Y-47895245D01*
X55460867Y-48116239D01*
X55464061Y-48121451D01*
X55564951Y-48286087D01*
X55585493Y-48319609D01*
X55589496Y-48324230D01*
X55589498Y-48324233D01*
X55737650Y-48495265D01*
X55741660Y-48499894D01*
X55925176Y-48652252D01*
X56131112Y-48772591D01*
X56353937Y-48857680D01*
X56587666Y-48905233D01*
X56593775Y-48905457D01*
X56819908Y-48913749D01*
X56819912Y-48913749D01*
X56826025Y-48913973D01*
X56892501Y-48905457D01*
X57056538Y-48884443D01*
X57056541Y-48884442D01*
X57062609Y-48883665D01*
X57291068Y-48815125D01*
X57505264Y-48710191D01*
X57699445Y-48571683D01*
X57868397Y-48403320D01*
X57871962Y-48398358D01*
X57871966Y-48398354D01*
X58004014Y-48214589D01*
X58004016Y-48214585D01*
X58007582Y-48209623D01*
X58081028Y-48061017D01*
X58110552Y-48001281D01*
X58110553Y-48001277D01*
X58113263Y-47995795D01*
X58182600Y-47767577D01*
X58213733Y-47531099D01*
X58215471Y-47460000D01*
X58195927Y-47222284D01*
X58162445Y-47088983D01*
X58139310Y-46996880D01*
X58137821Y-46990952D01*
X58135387Y-46985355D01*
X58135385Y-46985348D01*
X58045151Y-46777826D01*
X58042712Y-46772216D01*
X57913155Y-46571951D01*
X57752629Y-46395536D01*
X57565445Y-46247707D01*
X57560092Y-46244752D01*
X57560089Y-46244750D01*
X57461038Y-46190071D01*
X57356631Y-46132436D01*
X57131794Y-46052817D01*
X57125779Y-46051746D01*
X57125777Y-46051745D01*
X57039506Y-46036378D01*
X56896972Y-46010988D01*
X56890859Y-46010913D01*
X56890856Y-46010913D01*
X56791031Y-46009694D01*
X56658471Y-46008074D01*
X56639428Y-46010988D01*
X56428735Y-46043229D01*
X56428733Y-46043230D01*
X56422698Y-46044153D01*
X56195982Y-46118255D01*
X55984414Y-46228390D01*
X55979529Y-46232057D01*
X55979527Y-46232059D01*
X55918544Y-46277847D01*
X55793675Y-46371602D01*
X55628887Y-46544042D01*
X55494475Y-46741082D01*
X55394051Y-46957428D01*
X55392418Y-46963317D01*
X55392416Y-46963322D01*
X55331941Y-47181386D01*
X55330309Y-47187272D01*
X55304963Y-47424440D01*
X42009540Y-47424440D01*
X42009540Y-42544440D01*
X55304963Y-42544440D01*
X55318694Y-42782562D01*
X55320036Y-42788519D01*
X55320037Y-42788523D01*
X55330042Y-42832919D01*
X55371131Y-43015245D01*
X55460867Y-43236239D01*
X55464061Y-43241451D01*
X55576803Y-43425428D01*
X55585493Y-43439609D01*
X55589496Y-43444230D01*
X55589498Y-43444233D01*
X55719887Y-43594759D01*
X55741660Y-43619894D01*
X55925176Y-43772252D01*
X56131112Y-43892591D01*
X56353937Y-43977680D01*
X56587666Y-44025233D01*
X56593775Y-44025457D01*
X56819908Y-44033749D01*
X56819912Y-44033749D01*
X56826025Y-44033973D01*
X56892501Y-44025457D01*
X57056538Y-44004443D01*
X57056541Y-44004442D01*
X57062609Y-44003665D01*
X57291068Y-43935125D01*
X57505264Y-43830191D01*
X57699445Y-43691683D01*
X57868397Y-43523320D01*
X57871962Y-43518358D01*
X57871966Y-43518354D01*
X58004014Y-43334589D01*
X58004016Y-43334585D01*
X58007582Y-43329623D01*
X58083749Y-43175512D01*
X58110552Y-43121281D01*
X58110553Y-43121277D01*
X58113263Y-43115795D01*
X58182600Y-42887577D01*
X58183608Y-42879927D01*
X58213215Y-42655030D01*
X58213733Y-42651099D01*
X58215471Y-42580000D01*
X58195927Y-42342284D01*
X58180597Y-42281250D01*
X58139310Y-42116880D01*
X58137821Y-42110952D01*
X58135387Y-42105355D01*
X58135385Y-42105348D01*
X58045151Y-41897826D01*
X58042712Y-41892216D01*
X57913155Y-41691951D01*
X57752629Y-41515536D01*
X57565445Y-41367707D01*
X57560092Y-41364752D01*
X57560089Y-41364750D01*
X57388834Y-41270213D01*
X57356631Y-41252436D01*
X57131794Y-41172817D01*
X57125779Y-41171746D01*
X57125777Y-41171745D01*
X57039506Y-41156378D01*
X56896972Y-41130988D01*
X56890859Y-41130913D01*
X56890856Y-41130913D01*
X56791031Y-41129694D01*
X56658471Y-41128074D01*
X56639428Y-41130988D01*
X56428735Y-41163229D01*
X56428733Y-41163230D01*
X56422698Y-41164153D01*
X56195982Y-41238255D01*
X55984414Y-41348390D01*
X55979529Y-41352057D01*
X55979527Y-41352059D01*
X55880411Y-41426478D01*
X55793675Y-41491602D01*
X55628887Y-41664042D01*
X55494475Y-41861082D01*
X55394051Y-42077428D01*
X55392418Y-42083317D01*
X55392416Y-42083322D01*
X55337501Y-42281339D01*
X55330309Y-42307272D01*
X55304963Y-42544440D01*
X42009540Y-42544440D01*
X42009540Y-31325677D01*
X42029502Y-31251177D01*
X42053181Y-31220318D01*
X44329359Y-28944141D01*
X44396154Y-28905577D01*
X44434718Y-28900500D01*
X63417401Y-28900500D01*
X63440709Y-28902334D01*
X63444900Y-28902998D01*
X63444904Y-28902998D01*
X63452612Y-28904219D01*
X63519688Y-28900704D01*
X63527485Y-28900500D01*
X63547192Y-28900500D01*
X63551071Y-28900092D01*
X63551076Y-28900092D01*
X63566797Y-28898440D01*
X63574572Y-28897828D01*
X63633844Y-28894722D01*
X63633846Y-28894722D01*
X63641646Y-28894313D01*
X63653286Y-28891194D01*
X63676279Y-28886933D01*
X63680492Y-28886490D01*
X63688256Y-28885674D01*
X63752129Y-28864920D01*
X63759604Y-28862706D01*
X63816950Y-28847340D01*
X63816952Y-28847339D01*
X63824488Y-28845320D01*
X63835227Y-28839848D01*
X63856829Y-28830901D01*
X63868284Y-28827179D01*
X63926470Y-28793586D01*
X63933296Y-28789880D01*
X63986185Y-28762932D01*
X63986189Y-28762929D01*
X63993149Y-28759383D01*
X64002517Y-28751797D01*
X64021779Y-28738559D01*
X64025451Y-28736439D01*
X64025452Y-28736438D01*
X64032216Y-28732533D01*
X64082137Y-28687584D01*
X64088066Y-28682520D01*
X64093423Y-28678182D01*
X64103380Y-28670119D01*
X64117317Y-28656182D01*
X64122975Y-28650813D01*
X64172888Y-28605871D01*
X64177483Y-28599547D01*
X64179971Y-28596123D01*
X64195156Y-28578343D01*
X65838349Y-26935151D01*
X65856128Y-26919967D01*
X65859549Y-26917481D01*
X65865871Y-26912888D01*
X65910804Y-26862985D01*
X65916173Y-26857327D01*
X65930120Y-26843380D01*
X65942539Y-26828045D01*
X65947595Y-26822125D01*
X65987306Y-26778021D01*
X65992533Y-26772216D01*
X65996438Y-26765452D01*
X65996443Y-26765445D01*
X65998556Y-26761785D01*
X66011804Y-26742508D01*
X66014467Y-26739219D01*
X66019383Y-26733149D01*
X66022928Y-26726192D01*
X66022931Y-26726187D01*
X66049880Y-26673296D01*
X66053586Y-26666470D01*
X66087179Y-26608284D01*
X66090901Y-26596828D01*
X66099850Y-26575223D01*
X66099952Y-26575024D01*
X66105320Y-26564488D01*
X66118461Y-26515445D01*
X66122702Y-26499617D01*
X66124918Y-26492137D01*
X66143259Y-26435688D01*
X66145674Y-26428256D01*
X66146933Y-26416278D01*
X66151195Y-26393280D01*
X66154313Y-26381645D01*
X66155926Y-26350860D01*
X66157828Y-26314573D01*
X66158440Y-26306799D01*
X66160092Y-26291078D01*
X66160092Y-26291069D01*
X66160500Y-26287192D01*
X66160500Y-26267484D01*
X66160704Y-26259686D01*
X66163810Y-26200408D01*
X66164219Y-26192612D01*
X66162334Y-26180709D01*
X66160500Y-26157401D01*
X66160500Y-23555623D01*
X66180462Y-23481123D01*
X66231091Y-23428923D01*
X66262331Y-23409591D01*
X66455238Y-23246283D01*
X66621888Y-23056256D01*
X66758619Y-22843684D01*
X66862428Y-22613236D01*
X66931034Y-22369976D01*
X66943126Y-22274930D01*
X66962460Y-22122951D01*
X66962460Y-22122947D01*
X66962931Y-22119247D01*
X66965268Y-22030000D01*
X66964580Y-22020735D01*
X66961951Y-21985361D01*
X70055316Y-21985361D01*
X70067443Y-22237820D01*
X70116752Y-22485713D01*
X70118618Y-22490910D01*
X70118619Y-22490914D01*
X70164345Y-22618270D01*
X70202160Y-22723595D01*
X70321792Y-22946240D01*
X70473018Y-23148756D01*
X70652517Y-23326696D01*
X70737075Y-23388696D01*
X70851884Y-23472878D01*
X70851890Y-23472882D01*
X70856346Y-23476149D01*
X70861239Y-23478723D01*
X70861240Y-23478724D01*
X71075129Y-23591257D01*
X71075134Y-23591259D01*
X71080026Y-23593833D01*
X71085247Y-23595656D01*
X71085251Y-23595658D01*
X71312076Y-23674868D01*
X71318644Y-23677162D01*
X71566958Y-23724306D01*
X71572481Y-23724523D01*
X71813988Y-23734012D01*
X71813989Y-23734012D01*
X71819513Y-23734229D01*
X71825009Y-23733627D01*
X71825011Y-23733627D01*
X72065254Y-23707316D01*
X72070760Y-23706713D01*
X72076109Y-23705305D01*
X72076113Y-23705304D01*
X72203826Y-23671680D01*
X72315181Y-23642363D01*
X72547405Y-23542591D01*
X72762331Y-23409591D01*
X72766537Y-23406030D01*
X72766543Y-23406026D01*
X72951022Y-23249852D01*
X72955238Y-23246283D01*
X73121888Y-23056256D01*
X73258619Y-22843684D01*
X73362428Y-22613236D01*
X73431034Y-22369976D01*
X73443126Y-22274930D01*
X73462460Y-22122951D01*
X73462460Y-22122947D01*
X73462931Y-22119247D01*
X73465268Y-22030000D01*
X73464580Y-22020735D01*
X73447817Y-21795169D01*
X73446537Y-21777945D01*
X73400976Y-21576593D01*
X73391977Y-21536822D01*
X73391975Y-21536816D01*
X73390756Y-21531428D01*
X73332449Y-21381492D01*
X73301156Y-21301021D01*
X73301155Y-21301019D01*
X73299150Y-21295863D01*
X73296409Y-21291067D01*
X73296406Y-21291061D01*
X73176474Y-21081224D01*
X73176469Y-21081217D01*
X73173731Y-21076426D01*
X73141468Y-21035501D01*
X73020678Y-20882279D01*
X73020672Y-20882273D01*
X73017255Y-20877938D01*
X72881874Y-20750584D01*
X72837190Y-20708549D01*
X72833160Y-20704758D01*
X72625489Y-20560691D01*
X72398805Y-20448903D01*
X72393546Y-20447219D01*
X72393542Y-20447218D01*
X72163354Y-20373535D01*
X72158087Y-20371849D01*
X71908624Y-20331221D01*
X71774274Y-20329462D01*
X71661425Y-20327985D01*
X71661420Y-20327985D01*
X71655896Y-20327913D01*
X71650425Y-20328658D01*
X71650418Y-20328658D01*
X71504522Y-20348514D01*
X71405455Y-20361996D01*
X71400142Y-20363544D01*
X71400140Y-20363545D01*
X71284129Y-20397360D01*
X71162803Y-20432723D01*
X71157774Y-20435041D01*
X71157775Y-20435041D01*
X70938288Y-20536225D01*
X70938281Y-20536229D01*
X70933270Y-20538539D01*
X70788337Y-20633561D01*
X70737100Y-20667154D01*
X70721899Y-20677120D01*
X70717783Y-20680794D01*
X70717780Y-20680796D01*
X70656935Y-20735102D01*
X70533333Y-20845421D01*
X70529805Y-20849663D01*
X70529803Y-20849665D01*
X70484198Y-20904500D01*
X70371715Y-21039746D01*
X70349457Y-21076426D01*
X70243464Y-21251096D01*
X70243461Y-21251102D01*
X70240595Y-21255825D01*
X70238458Y-21260921D01*
X70238456Y-21260925D01*
X70187898Y-21381492D01*
X70142854Y-21488911D01*
X70141494Y-21494266D01*
X70141492Y-21494272D01*
X70082000Y-21728523D01*
X70080639Y-21733883D01*
X70055316Y-21985361D01*
X66961951Y-21985361D01*
X66947817Y-21795169D01*
X66946537Y-21777945D01*
X66900976Y-21576593D01*
X66891977Y-21536822D01*
X66891975Y-21536816D01*
X66890756Y-21531428D01*
X66832449Y-21381492D01*
X66801156Y-21301021D01*
X66801155Y-21301019D01*
X66799150Y-21295863D01*
X66796409Y-21291067D01*
X66796406Y-21291061D01*
X66676474Y-21081224D01*
X66676469Y-21081217D01*
X66673731Y-21076426D01*
X66641468Y-21035501D01*
X66520678Y-20882279D01*
X66520672Y-20882273D01*
X66517255Y-20877938D01*
X66381874Y-20750584D01*
X66337190Y-20708549D01*
X66333160Y-20704758D01*
X66125489Y-20560691D01*
X65898805Y-20448903D01*
X65893546Y-20447219D01*
X65893542Y-20447218D01*
X65663354Y-20373535D01*
X65658087Y-20371849D01*
X65408624Y-20331221D01*
X65274274Y-20329462D01*
X65161425Y-20327985D01*
X65161420Y-20327985D01*
X65155896Y-20327913D01*
X65150425Y-20328658D01*
X65150418Y-20328658D01*
X65004522Y-20348514D01*
X64905455Y-20361996D01*
X64900142Y-20363544D01*
X64900140Y-20363545D01*
X64784129Y-20397360D01*
X64662803Y-20432723D01*
X64657774Y-20435041D01*
X64657775Y-20435041D01*
X64438288Y-20536225D01*
X64438281Y-20536229D01*
X64433270Y-20538539D01*
X64288337Y-20633561D01*
X64237100Y-20667154D01*
X64221899Y-20677120D01*
X64217783Y-20680794D01*
X64217780Y-20680796D01*
X64156935Y-20735102D01*
X64033333Y-20845421D01*
X64029805Y-20849663D01*
X64029803Y-20849665D01*
X63984198Y-20904500D01*
X63871715Y-21039746D01*
X63849457Y-21076426D01*
X63743464Y-21251096D01*
X63743461Y-21251102D01*
X63740595Y-21255825D01*
X63738458Y-21260921D01*
X63738456Y-21260925D01*
X63687898Y-21381492D01*
X63642854Y-21488911D01*
X63641494Y-21494266D01*
X63641492Y-21494272D01*
X63582000Y-21728523D01*
X63580639Y-21733883D01*
X63555316Y-21985361D01*
X63567443Y-22237820D01*
X63616752Y-22485713D01*
X63618618Y-22490910D01*
X63618619Y-22490914D01*
X63664345Y-22618270D01*
X63702160Y-22723595D01*
X63821792Y-22946240D01*
X63973018Y-23148756D01*
X64152517Y-23326696D01*
X64244941Y-23394464D01*
X64298605Y-23433812D01*
X64346881Y-23493963D01*
X64359500Y-23553972D01*
X64359500Y-25805282D01*
X64339538Y-25879782D01*
X64315859Y-25910641D01*
X63170642Y-27055859D01*
X63103847Y-27094423D01*
X63065283Y-27099500D01*
X55033718Y-27099500D01*
X54959218Y-27079538D01*
X54904680Y-27025000D01*
X54884718Y-26950500D01*
X54904680Y-26876000D01*
X54928359Y-26845141D01*
X55088347Y-26685153D01*
X55106125Y-26669969D01*
X55109555Y-26667477D01*
X55109556Y-26667476D01*
X55115871Y-26662888D01*
X55160804Y-26612985D01*
X55166173Y-26607327D01*
X55180120Y-26593380D01*
X55192539Y-26578045D01*
X55197595Y-26572125D01*
X55198207Y-26571446D01*
X55242533Y-26522216D01*
X55246438Y-26515452D01*
X55246443Y-26515445D01*
X55248556Y-26511785D01*
X55261804Y-26492508D01*
X55264467Y-26489219D01*
X55269383Y-26483149D01*
X55272928Y-26476192D01*
X55272931Y-26476187D01*
X55299880Y-26423296D01*
X55303586Y-26416470D01*
X55337179Y-26358284D01*
X55340901Y-26346828D01*
X55349850Y-26325223D01*
X55351775Y-26321446D01*
X55351776Y-26321445D01*
X55355320Y-26314488D01*
X55363679Y-26283291D01*
X55372702Y-26249617D01*
X55374918Y-26242137D01*
X55393259Y-26185688D01*
X55395674Y-26178256D01*
X55396933Y-26166278D01*
X55401195Y-26143280D01*
X55404313Y-26131645D01*
X55404722Y-26123843D01*
X55407828Y-26064573D01*
X55408440Y-26056799D01*
X55410092Y-26041078D01*
X55410092Y-26041069D01*
X55410500Y-26037192D01*
X55410500Y-26017484D01*
X55410704Y-26009686D01*
X55414219Y-25942612D01*
X55412334Y-25930709D01*
X55410500Y-25907401D01*
X55410500Y-23555623D01*
X55430462Y-23481123D01*
X55481091Y-23428923D01*
X55512331Y-23409591D01*
X55705238Y-23246283D01*
X55871888Y-23056256D01*
X56008619Y-22843684D01*
X56112428Y-22613236D01*
X56181034Y-22369976D01*
X56193126Y-22274930D01*
X56212460Y-22122951D01*
X56212460Y-22122947D01*
X56212931Y-22119247D01*
X56215268Y-22030000D01*
X56214580Y-22020735D01*
X56211951Y-21985361D01*
X59305316Y-21985361D01*
X59317443Y-22237820D01*
X59366752Y-22485713D01*
X59368618Y-22490910D01*
X59368619Y-22490914D01*
X59414345Y-22618270D01*
X59452160Y-22723595D01*
X59571792Y-22946240D01*
X59723018Y-23148756D01*
X59902517Y-23326696D01*
X59987075Y-23388696D01*
X60101884Y-23472878D01*
X60101890Y-23472882D01*
X60106346Y-23476149D01*
X60111239Y-23478723D01*
X60111240Y-23478724D01*
X60325129Y-23591257D01*
X60325134Y-23591259D01*
X60330026Y-23593833D01*
X60335247Y-23595656D01*
X60335251Y-23595658D01*
X60562076Y-23674868D01*
X60568644Y-23677162D01*
X60816958Y-23724306D01*
X60822481Y-23724523D01*
X61063988Y-23734012D01*
X61063989Y-23734012D01*
X61069513Y-23734229D01*
X61075009Y-23733627D01*
X61075011Y-23733627D01*
X61315254Y-23707316D01*
X61320760Y-23706713D01*
X61326109Y-23705305D01*
X61326113Y-23705304D01*
X61453826Y-23671680D01*
X61565181Y-23642363D01*
X61797405Y-23542591D01*
X62012331Y-23409591D01*
X62016537Y-23406030D01*
X62016543Y-23406026D01*
X62201022Y-23249852D01*
X62205238Y-23246283D01*
X62371888Y-23056256D01*
X62508619Y-22843684D01*
X62612428Y-22613236D01*
X62681034Y-22369976D01*
X62693126Y-22274930D01*
X62712460Y-22122951D01*
X62712460Y-22122947D01*
X62712931Y-22119247D01*
X62715268Y-22030000D01*
X62714580Y-22020735D01*
X62697817Y-21795169D01*
X62696537Y-21777945D01*
X62650976Y-21576593D01*
X62641977Y-21536822D01*
X62641975Y-21536816D01*
X62640756Y-21531428D01*
X62582449Y-21381492D01*
X62551156Y-21301021D01*
X62551155Y-21301019D01*
X62549150Y-21295863D01*
X62546409Y-21291067D01*
X62546406Y-21291061D01*
X62426474Y-21081224D01*
X62426469Y-21081217D01*
X62423731Y-21076426D01*
X62391468Y-21035501D01*
X62270678Y-20882279D01*
X62270672Y-20882273D01*
X62267255Y-20877938D01*
X62131874Y-20750584D01*
X62087190Y-20708549D01*
X62083160Y-20704758D01*
X61875489Y-20560691D01*
X61648805Y-20448903D01*
X61643546Y-20447219D01*
X61643542Y-20447218D01*
X61413354Y-20373535D01*
X61408087Y-20371849D01*
X61158624Y-20331221D01*
X61024274Y-20329462D01*
X60911425Y-20327985D01*
X60911420Y-20327985D01*
X60905896Y-20327913D01*
X60900425Y-20328658D01*
X60900418Y-20328658D01*
X60754522Y-20348514D01*
X60655455Y-20361996D01*
X60650142Y-20363544D01*
X60650140Y-20363545D01*
X60534129Y-20397360D01*
X60412803Y-20432723D01*
X60407774Y-20435041D01*
X60407775Y-20435041D01*
X60188288Y-20536225D01*
X60188281Y-20536229D01*
X60183270Y-20538539D01*
X60038337Y-20633561D01*
X59987100Y-20667154D01*
X59971899Y-20677120D01*
X59967783Y-20680794D01*
X59967780Y-20680796D01*
X59906935Y-20735102D01*
X59783333Y-20845421D01*
X59779805Y-20849663D01*
X59779803Y-20849665D01*
X59734198Y-20904500D01*
X59621715Y-21039746D01*
X59599457Y-21076426D01*
X59493464Y-21251096D01*
X59493461Y-21251102D01*
X59490595Y-21255825D01*
X59488458Y-21260921D01*
X59488456Y-21260925D01*
X59437898Y-21381492D01*
X59392854Y-21488911D01*
X59391494Y-21494266D01*
X59391492Y-21494272D01*
X59332000Y-21728523D01*
X59330639Y-21733883D01*
X59305316Y-21985361D01*
X56211951Y-21985361D01*
X56197817Y-21795169D01*
X56196537Y-21777945D01*
X56150976Y-21576593D01*
X56141977Y-21536822D01*
X56141975Y-21536816D01*
X56140756Y-21531428D01*
X56082449Y-21381492D01*
X56051156Y-21301021D01*
X56051155Y-21301019D01*
X56049150Y-21295863D01*
X56046409Y-21291067D01*
X56046406Y-21291061D01*
X55926474Y-21081224D01*
X55926469Y-21081217D01*
X55923731Y-21076426D01*
X55891468Y-21035501D01*
X55770678Y-20882279D01*
X55770672Y-20882273D01*
X55767255Y-20877938D01*
X55631874Y-20750584D01*
X55587190Y-20708549D01*
X55583160Y-20704758D01*
X55375489Y-20560691D01*
X55148805Y-20448903D01*
X55143546Y-20447219D01*
X55143542Y-20447218D01*
X54913354Y-20373535D01*
X54908087Y-20371849D01*
X54658624Y-20331221D01*
X54524274Y-20329462D01*
X54411425Y-20327985D01*
X54411420Y-20327985D01*
X54405896Y-20327913D01*
X54400425Y-20328658D01*
X54400418Y-20328658D01*
X54254522Y-20348514D01*
X54155455Y-20361996D01*
X54150142Y-20363544D01*
X54150140Y-20363545D01*
X54034129Y-20397360D01*
X53912803Y-20432723D01*
X53907774Y-20435041D01*
X53907775Y-20435041D01*
X53688288Y-20536225D01*
X53688281Y-20536229D01*
X53683270Y-20538539D01*
X53538337Y-20633561D01*
X53487100Y-20667154D01*
X53471899Y-20677120D01*
X53467783Y-20680794D01*
X53467780Y-20680796D01*
X53406935Y-20735102D01*
X53283333Y-20845421D01*
X53279805Y-20849663D01*
X53279803Y-20849665D01*
X53234198Y-20904500D01*
X53121715Y-21039746D01*
X53099457Y-21076426D01*
X52993464Y-21251096D01*
X52993461Y-21251102D01*
X52990595Y-21255825D01*
X52988458Y-21260921D01*
X52988456Y-21260925D01*
X52937898Y-21381492D01*
X52892854Y-21488911D01*
X52891494Y-21494266D01*
X52891492Y-21494272D01*
X52832000Y-21728523D01*
X52830639Y-21733883D01*
X52805316Y-21985361D01*
X52817443Y-22237820D01*
X52866752Y-22485713D01*
X52868618Y-22490910D01*
X52868619Y-22490914D01*
X52914345Y-22618270D01*
X52952160Y-22723595D01*
X53071792Y-22946240D01*
X53223018Y-23148756D01*
X53402517Y-23326696D01*
X53494941Y-23394464D01*
X53548605Y-23433812D01*
X53596881Y-23493963D01*
X53609500Y-23553972D01*
X53609500Y-25555282D01*
X53589538Y-25629782D01*
X53565859Y-25660641D01*
X53170642Y-26055859D01*
X53103847Y-26094423D01*
X53065283Y-26099500D01*
X47533718Y-26099500D01*
X47459218Y-26079538D01*
X47404680Y-26025000D01*
X47384718Y-25950500D01*
X47404680Y-25876000D01*
X47428359Y-25845141D01*
X47578347Y-25695153D01*
X47596125Y-25679969D01*
X47599555Y-25677477D01*
X47599556Y-25677476D01*
X47605871Y-25672888D01*
X47650804Y-25622985D01*
X47656173Y-25617327D01*
X47670120Y-25603380D01*
X47682539Y-25588045D01*
X47687595Y-25582125D01*
X47711765Y-25555282D01*
X47732533Y-25532216D01*
X47736438Y-25525452D01*
X47736443Y-25525445D01*
X47738556Y-25521785D01*
X47751804Y-25502508D01*
X47754468Y-25499219D01*
X47754470Y-25499215D01*
X47759383Y-25493149D01*
X47789875Y-25433304D01*
X47793592Y-25426460D01*
X47823274Y-25375048D01*
X47823275Y-25375047D01*
X47827179Y-25368284D01*
X47830902Y-25356825D01*
X47839851Y-25335220D01*
X47841170Y-25332633D01*
X47845320Y-25324487D01*
X47847339Y-25316951D01*
X47847342Y-25316944D01*
X47862704Y-25259615D01*
X47864918Y-25252139D01*
X47883262Y-25195679D01*
X47885674Y-25188256D01*
X47886933Y-25176277D01*
X47891194Y-25153286D01*
X47892292Y-25149189D01*
X47892293Y-25149184D01*
X47894313Y-25141645D01*
X47894722Y-25133847D01*
X47897828Y-25074573D01*
X47898440Y-25066799D01*
X47900092Y-25051078D01*
X47900092Y-25051069D01*
X47900500Y-25047192D01*
X47900500Y-25027484D01*
X47900704Y-25019686D01*
X47903810Y-24960408D01*
X47904219Y-24952612D01*
X47902334Y-24940709D01*
X47900500Y-24917401D01*
X47900500Y-24246767D01*
X47920462Y-24172267D01*
X47975000Y-24117729D01*
X48014716Y-24101884D01*
X48097171Y-24082088D01*
X48097173Y-24082087D01*
X48102860Y-24080722D01*
X48196076Y-24042111D01*
X48333831Y-23985051D01*
X48333834Y-23985050D01*
X48339243Y-23982809D01*
X48557399Y-23849123D01*
X48751956Y-23682956D01*
X48918123Y-23488399D01*
X49051809Y-23270243D01*
X49149722Y-23033860D01*
X49209452Y-22785070D01*
X49213907Y-22728469D01*
X49229067Y-22535832D01*
X49229526Y-22530000D01*
X49225614Y-22480295D01*
X49209911Y-22280759D01*
X49209910Y-22280756D01*
X49209452Y-22274930D01*
X49172076Y-22119247D01*
X49151088Y-22031829D01*
X49151087Y-22031827D01*
X49149722Y-22026140D01*
X49051809Y-21789757D01*
X48918123Y-21571601D01*
X48751956Y-21377044D01*
X48557399Y-21210877D01*
X48339243Y-21077191D01*
X48333834Y-21074950D01*
X48333831Y-21074949D01*
X48108265Y-20981517D01*
X48102860Y-20979278D01*
X48097173Y-20977913D01*
X48097171Y-20977912D01*
X47859757Y-20920913D01*
X47859753Y-20920912D01*
X47854070Y-20919548D01*
X47848244Y-20919090D01*
X47848241Y-20919089D01*
X47782313Y-20913901D01*
X47662863Y-20904500D01*
X46337137Y-20904500D01*
X46217687Y-20913901D01*
X46151759Y-20919089D01*
X46151756Y-20919090D01*
X46145930Y-20919548D01*
X46140247Y-20920912D01*
X46140243Y-20920913D01*
X45902829Y-20977912D01*
X45902827Y-20977913D01*
X45897140Y-20979278D01*
X45891735Y-20981517D01*
X45666169Y-21074949D01*
X45666166Y-21074950D01*
X45660757Y-21077191D01*
X45442601Y-21210877D01*
X45248044Y-21377044D01*
X45081877Y-21571601D01*
X44948191Y-21789757D01*
X44850278Y-22026140D01*
X44848913Y-22031827D01*
X44848912Y-22031829D01*
X44827925Y-22119247D01*
X44790548Y-22274930D01*
X44790090Y-22280756D01*
X44790089Y-22280759D01*
X44774386Y-22480295D01*
X44770474Y-22530000D01*
X44770933Y-22535832D01*
X44786094Y-22728469D01*
X44790548Y-22785070D01*
X44850278Y-23033860D01*
X44948191Y-23270243D01*
X45081877Y-23488399D01*
X45248044Y-23682956D01*
X45442601Y-23849123D01*
X45660757Y-23982809D01*
X45666166Y-23985050D01*
X45666169Y-23985051D01*
X45803924Y-24042111D01*
X45897140Y-24080722D01*
X45902827Y-24082087D01*
X45902829Y-24082088D01*
X45985284Y-24101884D01*
X46053065Y-24138687D01*
X46093364Y-24204449D01*
X46099500Y-24246767D01*
X46099500Y-24565282D01*
X46079538Y-24639782D01*
X46055859Y-24670641D01*
X45670642Y-25055859D01*
X45603847Y-25094423D01*
X45565283Y-25099500D01*
X44082599Y-25099500D01*
X44059291Y-25097666D01*
X44055100Y-25097002D01*
X44055096Y-25097002D01*
X44047388Y-25095781D01*
X43980312Y-25099296D01*
X43972515Y-25099500D01*
X43952808Y-25099500D01*
X43948929Y-25099908D01*
X43948924Y-25099908D01*
X43933203Y-25101560D01*
X43925428Y-25102172D01*
X43866156Y-25105278D01*
X43866154Y-25105278D01*
X43858354Y-25105687D01*
X43846714Y-25108806D01*
X43823721Y-25113067D01*
X43820298Y-25113427D01*
X43811744Y-25114326D01*
X43751666Y-25133847D01*
X43747874Y-25135079D01*
X43740396Y-25137294D01*
X43683050Y-25152660D01*
X43683048Y-25152661D01*
X43675512Y-25154680D01*
X43664773Y-25160152D01*
X43643172Y-25169099D01*
X43631716Y-25172821D01*
X43573530Y-25206414D01*
X43566704Y-25210120D01*
X43513815Y-25237068D01*
X43513811Y-25237071D01*
X43506851Y-25240617D01*
X43497483Y-25248203D01*
X43478221Y-25261441D01*
X43467784Y-25267467D01*
X43461978Y-25272695D01*
X43417863Y-25312416D01*
X43411934Y-25317480D01*
X43396620Y-25329881D01*
X43382683Y-25343818D01*
X43377025Y-25349187D01*
X43327112Y-25394129D01*
X43322519Y-25400451D01*
X43322517Y-25400453D01*
X43320029Y-25403877D01*
X43304844Y-25421657D01*
X38921657Y-29804844D01*
X38903877Y-29820029D01*
X38900453Y-29822517D01*
X38894129Y-29827112D01*
X38853982Y-29871700D01*
X38849187Y-29877025D01*
X38843818Y-29882683D01*
X38829881Y-29896620D01*
X38818169Y-29911084D01*
X38817480Y-29911934D01*
X38812416Y-29917863D01*
X38767467Y-29967784D01*
X38763562Y-29974548D01*
X38763561Y-29974549D01*
X38761441Y-29978221D01*
X38748203Y-29997483D01*
X38740617Y-30006851D01*
X38737071Y-30013811D01*
X38737068Y-30013815D01*
X38710120Y-30066704D01*
X38706414Y-30073530D01*
X38672821Y-30131716D01*
X38670409Y-30139140D01*
X38669099Y-30143171D01*
X38660152Y-30164773D01*
X38654680Y-30175512D01*
X38652661Y-30183048D01*
X38652660Y-30183050D01*
X38637294Y-30240396D01*
X38635080Y-30247871D01*
X38614326Y-30311744D01*
X38613510Y-30319508D01*
X38613067Y-30323721D01*
X38608806Y-30346714D01*
X38605687Y-30358354D01*
X38605278Y-30366154D01*
X38605278Y-30366156D01*
X38602172Y-30425428D01*
X38601560Y-30433203D01*
X38599908Y-30448924D01*
X38599500Y-30452808D01*
X38599500Y-30472515D01*
X38599296Y-30480312D01*
X38595781Y-30547388D01*
X38597002Y-30555096D01*
X38597002Y-30555100D01*
X38597666Y-30559291D01*
X38599500Y-30582599D01*
X38599500Y-42214876D01*
X38579538Y-42289376D01*
X38525000Y-42343914D01*
X38450500Y-42363876D01*
X38395287Y-42353269D01*
X38320235Y-42323326D01*
X38320233Y-42323325D01*
X38313898Y-42320798D01*
X38115526Y-42281339D01*
X38076391Y-42280827D01*
X38002159Y-42259892D01*
X37948340Y-42204646D01*
X37929354Y-42129891D01*
X37948339Y-42059036D01*
X38006325Y-41955493D01*
X38009664Y-41949531D01*
X38074678Y-41758007D01*
X38088943Y-41659624D01*
X38103070Y-41562190D01*
X38103071Y-41562183D01*
X38103700Y-41557842D01*
X38105215Y-41500000D01*
X38104444Y-41491602D01*
X38087333Y-41305393D01*
X38086708Y-41298591D01*
X38031807Y-41103926D01*
X38027595Y-41095383D01*
X37945370Y-40928649D01*
X37942351Y-40922527D01*
X37938270Y-40917062D01*
X37938267Y-40917057D01*
X37825423Y-40765941D01*
X37825421Y-40765939D01*
X37821335Y-40760467D01*
X37672812Y-40623174D01*
X37501757Y-40515246D01*
X37495417Y-40512717D01*
X37495412Y-40512714D01*
X37320235Y-40442826D01*
X37320233Y-40442825D01*
X37313898Y-40440298D01*
X37115526Y-40400839D01*
X37015810Y-40399534D01*
X36920120Y-40398281D01*
X36920115Y-40398281D01*
X36913286Y-40398192D01*
X36906553Y-40399349D01*
X36906552Y-40399349D01*
X36720680Y-40431287D01*
X36720676Y-40431288D01*
X36713949Y-40432444D01*
X36524193Y-40502449D01*
X36350371Y-40605862D01*
X36198305Y-40739220D01*
X36194078Y-40744582D01*
X36194077Y-40744583D01*
X36092349Y-40873626D01*
X36073089Y-40898057D01*
X35978914Y-41077053D01*
X35918937Y-41270213D01*
X35918434Y-41274465D01*
X35883828Y-41342384D01*
X35878458Y-41348043D01*
X34421657Y-42804844D01*
X34403877Y-42820029D01*
X34400453Y-42822517D01*
X34394129Y-42827112D01*
X34349187Y-42877025D01*
X34343818Y-42882683D01*
X34329881Y-42896620D01*
X34318169Y-42911084D01*
X34317480Y-42911934D01*
X34312416Y-42917863D01*
X34267467Y-42967784D01*
X34263562Y-42974548D01*
X34263561Y-42974549D01*
X34261441Y-42978221D01*
X34248203Y-42997483D01*
X34240617Y-43006851D01*
X34237071Y-43013811D01*
X34237068Y-43013815D01*
X34210120Y-43066704D01*
X34206414Y-43073530D01*
X34172821Y-43131716D01*
X34170409Y-43139140D01*
X34169099Y-43143171D01*
X34160152Y-43164773D01*
X34154680Y-43175512D01*
X34152661Y-43183048D01*
X34152660Y-43183050D01*
X34137294Y-43240396D01*
X34135080Y-43247871D01*
X34114326Y-43311744D01*
X34113510Y-43319508D01*
X34113067Y-43323721D01*
X34108806Y-43346714D01*
X34105687Y-43358354D01*
X34105278Y-43366154D01*
X34105278Y-43366156D01*
X34102172Y-43425428D01*
X34101560Y-43433203D01*
X34100401Y-43444233D01*
X34099500Y-43452808D01*
X34099500Y-43472515D01*
X34099296Y-43480312D01*
X34095781Y-43547388D01*
X34097002Y-43555096D01*
X34097002Y-43555100D01*
X34097666Y-43559291D01*
X34099500Y-43582599D01*
X34099500Y-52212424D01*
X34079538Y-52286924D01*
X34025000Y-52341462D01*
X33950500Y-52361424D01*
X33876000Y-52341462D01*
X33825397Y-52293357D01*
X33726018Y-52139740D01*
X33726012Y-52139732D01*
X33722695Y-52134605D01*
X33560841Y-51956730D01*
X33372109Y-51807678D01*
X33366756Y-51804723D01*
X33366753Y-51804721D01*
X33266838Y-51749565D01*
X33161567Y-51691453D01*
X32934870Y-51611175D01*
X32928859Y-51610104D01*
X32928854Y-51610103D01*
X32704129Y-51570074D01*
X32698105Y-51569001D01*
X32691990Y-51568926D01*
X32691987Y-51568926D01*
X32596352Y-51567758D01*
X32457632Y-51566063D01*
X32451593Y-51566987D01*
X32451594Y-51566987D01*
X32225944Y-51601516D01*
X32225942Y-51601517D01*
X32219907Y-51602440D01*
X31991316Y-51677155D01*
X31777998Y-51788201D01*
X31773101Y-51791878D01*
X31773099Y-51791879D01*
X31590574Y-51928922D01*
X31590570Y-51928925D01*
X31585680Y-51932597D01*
X31419529Y-52106465D01*
X31284006Y-52305134D01*
X31182750Y-52523271D01*
X31181118Y-52529158D01*
X31181117Y-52529159D01*
X31173163Y-52557842D01*
X31118482Y-52755016D01*
X31117832Y-52761099D01*
X31097057Y-52955493D01*
X31092926Y-52994145D01*
X31099004Y-53099549D01*
X31104081Y-53187595D01*
X31106770Y-53234238D01*
X31108113Y-53240196D01*
X31108113Y-53240198D01*
X31149898Y-53425611D01*
X31159641Y-53468846D01*
X31161938Y-53474503D01*
X31161940Y-53474509D01*
X31220841Y-53619564D01*
X31250120Y-53691668D01*
X31253309Y-53696872D01*
X31253311Y-53696876D01*
X31307819Y-53785825D01*
X31375776Y-53896721D01*
X31379777Y-53901340D01*
X31379780Y-53901344D01*
X31444587Y-53976158D01*
X31533236Y-54078497D01*
X31718270Y-54232115D01*
X31723540Y-54235194D01*
X31723542Y-54235196D01*
X31920629Y-54350365D01*
X31920633Y-54350367D01*
X31925909Y-54353450D01*
X32150577Y-54439243D01*
X32386241Y-54487189D01*
X32392350Y-54487413D01*
X32620454Y-54495777D01*
X32620458Y-54495777D01*
X32626571Y-54496001D01*
X32693611Y-54487413D01*
X32859042Y-54466221D01*
X32859045Y-54466220D01*
X32865113Y-54465443D01*
X33095461Y-54396336D01*
X33311429Y-54290534D01*
X33507217Y-54150880D01*
X33677567Y-53981124D01*
X33681132Y-53976162D01*
X33681136Y-53976158D01*
X33814336Y-53790789D01*
X33817903Y-53785825D01*
X33820610Y-53780349D01*
X33822784Y-53776730D01*
X33878266Y-53723154D01*
X33953104Y-53704497D01*
X34027244Y-53725758D01*
X34080820Y-53781240D01*
X34099500Y-53853474D01*
X34099500Y-56966242D01*
X34079538Y-57040742D01*
X34055859Y-57071601D01*
X32829880Y-58297581D01*
X32740616Y-58407812D01*
X32654679Y-58576473D01*
X32605686Y-58759315D01*
X32595780Y-58948349D01*
X32625392Y-59135311D01*
X32628190Y-59142600D01*
X32685590Y-59292135D01*
X32693651Y-59368840D01*
X32679947Y-59411782D01*
X32647585Y-59476975D01*
X32645682Y-59484608D01*
X32645434Y-59485203D01*
X32645379Y-59485365D01*
X32644160Y-59488807D01*
X32644115Y-59488930D01*
X32643935Y-59489542D01*
X32640607Y-59496679D01*
X32638848Y-59504549D01*
X32623117Y-59574927D01*
X32622279Y-59578470D01*
X32604834Y-59648439D01*
X32602880Y-59656276D01*
X32602660Y-59664150D01*
X32602346Y-59665899D01*
X32601631Y-59671053D01*
X32600297Y-59677019D01*
X32599980Y-59682689D01*
X32599980Y-59758027D01*
X32599922Y-59762186D01*
X32597721Y-59840993D01*
X32599232Y-59848916D01*
X32599500Y-59852241D01*
X32599980Y-59864190D01*
X32599980Y-62087152D01*
X32580018Y-62161652D01*
X32525480Y-62216190D01*
X32450980Y-62236152D01*
X32376480Y-62216190D01*
X32321942Y-62161652D01*
X32308682Y-62131337D01*
X32292113Y-62077976D01*
X32290784Y-62073696D01*
X32255784Y-61995634D01*
X32159404Y-61780679D01*
X32157567Y-61776582D01*
X32028493Y-61562190D01*
X31991934Y-61501465D01*
X31991930Y-61501459D01*
X31989621Y-61497624D01*
X31968743Y-61470853D01*
X31792143Y-61244409D01*
X31792138Y-61244404D01*
X31789377Y-61240863D01*
X31747775Y-61199042D01*
X31655081Y-61105862D01*
X31559738Y-61010018D01*
X31304029Y-60808433D01*
X31245476Y-60772762D01*
X31029782Y-60641361D01*
X31025954Y-60639029D01*
X30889332Y-60576910D01*
X30733632Y-60506117D01*
X30733623Y-60506114D01*
X30729542Y-60504258D01*
X30703605Y-60496055D01*
X30674627Y-60486891D01*
X30419085Y-60406073D01*
X30099081Y-60345897D01*
X30043393Y-60342247D01*
X29778644Y-60324894D01*
X29778636Y-60324894D01*
X29774166Y-60324601D01*
X29559451Y-60336418D01*
X29453529Y-60342247D01*
X29453525Y-60342247D01*
X29449045Y-60342494D01*
X29128429Y-60399315D01*
X29124139Y-60400623D01*
X29124137Y-60400623D01*
X28821251Y-60492936D01*
X28821244Y-60492939D01*
X28816961Y-60494244D01*
X28519153Y-60625903D01*
X28515298Y-60628197D01*
X28515297Y-60628197D01*
X28275809Y-60770677D01*
X28239319Y-60792386D01*
X27981513Y-60991282D01*
X27978320Y-60994425D01*
X27978318Y-60994427D01*
X27953465Y-61018893D01*
X27749469Y-61219710D01*
X27746678Y-61223212D01*
X27746673Y-61223218D01*
X27549342Y-61470853D01*
X27549338Y-61470859D01*
X27546548Y-61474360D01*
X27544196Y-61478175D01*
X27544195Y-61478177D01*
X27397603Y-61715995D01*
X27375690Y-61751544D01*
X27239369Y-62047247D01*
X27139560Y-62357185D01*
X27077709Y-62676870D01*
X27054712Y-63001669D01*
X27054935Y-63006149D01*
X27054935Y-63006150D01*
X27070579Y-63320383D01*
X27070902Y-63326879D01*
X27071660Y-63331293D01*
X27071661Y-63331298D01*
X27093386Y-63457726D01*
X27126045Y-63647789D01*
X27219341Y-63959749D01*
X27225162Y-63973105D01*
X27320718Y-64192345D01*
X27349439Y-64258242D01*
X27351710Y-64262105D01*
X27351713Y-64262111D01*
X27448709Y-64427107D01*
X27514455Y-64538944D01*
X27711998Y-64797788D01*
X27840194Y-64929384D01*
X27877879Y-64996677D01*
X27876870Y-65073798D01*
X27837435Y-65140083D01*
X27784425Y-65173368D01*
X27720571Y-65196609D01*
X27717215Y-65197785D01*
X27641152Y-65223383D01*
X27634405Y-65227437D01*
X27633803Y-65227685D01*
X27633631Y-65227770D01*
X27630376Y-65229323D01*
X27630241Y-65229385D01*
X27629683Y-65229689D01*
X27622285Y-65232382D01*
X27615473Y-65236705D01*
X27615471Y-65236706D01*
X27554586Y-65275345D01*
X27551527Y-65277235D01*
X27482756Y-65318557D01*
X27477033Y-65323969D01*
X27475590Y-65324971D01*
X27471422Y-65328123D01*
X27466262Y-65331398D01*
X27462029Y-65335183D01*
X27408744Y-65388468D01*
X27405761Y-65391368D01*
X27348493Y-65445524D01*
X27343956Y-65452200D01*
X27341795Y-65454739D01*
X27333687Y-65463525D01*
X26428326Y-66368886D01*
X26419141Y-66377332D01*
X26380460Y-66410020D01*
X26375560Y-66416429D01*
X26375559Y-66416430D01*
X26331760Y-66473717D01*
X26329517Y-66476578D01*
X26279269Y-66539073D01*
X26275767Y-66546127D01*
X26268894Y-66555942D01*
X26268215Y-66556830D01*
X26265884Y-66555048D01*
X26220789Y-66598298D01*
X26145888Y-66616699D01*
X26071821Y-66595186D01*
X26018434Y-66539521D01*
X26000000Y-66467732D01*
X26000000Y-22530000D01*
X32270474Y-22530000D01*
X32270933Y-22535832D01*
X32286094Y-22728469D01*
X32290548Y-22785070D01*
X32350278Y-23033860D01*
X32448191Y-23270243D01*
X32581877Y-23488399D01*
X32748044Y-23682956D01*
X32942601Y-23849123D01*
X33160757Y-23982809D01*
X33166166Y-23985050D01*
X33166169Y-23985051D01*
X33303924Y-24042111D01*
X33397140Y-24080722D01*
X33402827Y-24082087D01*
X33402829Y-24082088D01*
X33640243Y-24139087D01*
X33640247Y-24139088D01*
X33645930Y-24140452D01*
X33651756Y-24140910D01*
X33651759Y-24140911D01*
X33717687Y-24146099D01*
X33837137Y-24155500D01*
X35162863Y-24155500D01*
X35282313Y-24146099D01*
X35348241Y-24140911D01*
X35348244Y-24140910D01*
X35354070Y-24140452D01*
X35359753Y-24139088D01*
X35359757Y-24139087D01*
X35597171Y-24082088D01*
X35597173Y-24082087D01*
X35602860Y-24080722D01*
X35696076Y-24042111D01*
X35833831Y-23985051D01*
X35833834Y-23985050D01*
X35839243Y-23982809D01*
X36057399Y-23849123D01*
X36251956Y-23682956D01*
X36418123Y-23488399D01*
X36551809Y-23270243D01*
X36649722Y-23033860D01*
X36709452Y-22785070D01*
X36713907Y-22728469D01*
X36729067Y-22535832D01*
X36729526Y-22530000D01*
X36725614Y-22480295D01*
X36709911Y-22280759D01*
X36709910Y-22280756D01*
X36709452Y-22274930D01*
X36672076Y-22119247D01*
X36651088Y-22031829D01*
X36651087Y-22031827D01*
X36649722Y-22026140D01*
X36551809Y-21789757D01*
X36418123Y-21571601D01*
X36251956Y-21377044D01*
X36057399Y-21210877D01*
X35839243Y-21077191D01*
X35833834Y-21074950D01*
X35833831Y-21074949D01*
X35608265Y-20981517D01*
X35602860Y-20979278D01*
X35597173Y-20977913D01*
X35597171Y-20977912D01*
X35359757Y-20920913D01*
X35359753Y-20920912D01*
X35354070Y-20919548D01*
X35348244Y-20919090D01*
X35348241Y-20919089D01*
X35282313Y-20913901D01*
X35162863Y-20904500D01*
X33837137Y-20904500D01*
X33717687Y-20913901D01*
X33651759Y-20919089D01*
X33651756Y-20919090D01*
X33645930Y-20919548D01*
X33640247Y-20920912D01*
X33640243Y-20920913D01*
X33402829Y-20977912D01*
X33402827Y-20977913D01*
X33397140Y-20979278D01*
X33391735Y-20981517D01*
X33166169Y-21074949D01*
X33166166Y-21074950D01*
X33160757Y-21077191D01*
X32942601Y-21210877D01*
X32748044Y-21377044D01*
X32581877Y-21571601D01*
X32448191Y-21789757D01*
X32350278Y-22026140D01*
X32348913Y-22031827D01*
X32348912Y-22031829D01*
X32327925Y-22119247D01*
X32290548Y-22274930D01*
X32290090Y-22280756D01*
X32290089Y-22280759D01*
X32274386Y-22480295D01*
X32270474Y-22530000D01*
X26000000Y-22530000D01*
X26000000Y-18001669D01*
X27054712Y-18001669D01*
X27070902Y-18326879D01*
X27126045Y-18647789D01*
X27219341Y-18959749D01*
X27349439Y-19258242D01*
X27351710Y-19262105D01*
X27351713Y-19262111D01*
X27393595Y-19333354D01*
X27514455Y-19538944D01*
X27711998Y-19797788D01*
X27939208Y-20031025D01*
X28192792Y-20235276D01*
X28196600Y-20237651D01*
X28196603Y-20237653D01*
X28273595Y-20285669D01*
X28469078Y-20407583D01*
X28674964Y-20503808D01*
X28755751Y-20541566D01*
X28764063Y-20545451D01*
X29073474Y-20646881D01*
X29077879Y-20647757D01*
X29077882Y-20647758D01*
X29383499Y-20708549D01*
X29392830Y-20710405D01*
X29397291Y-20710744D01*
X29397296Y-20710745D01*
X29529683Y-20720815D01*
X29717505Y-20735102D01*
X29721996Y-20734902D01*
X29721998Y-20734902D01*
X30038311Y-20720815D01*
X30038316Y-20720814D01*
X30042795Y-20720615D01*
X30047215Y-20719879D01*
X30047218Y-20719879D01*
X30359567Y-20667890D01*
X30363989Y-20667154D01*
X30368291Y-20665892D01*
X30368295Y-20665891D01*
X30672124Y-20576758D01*
X30672133Y-20576755D01*
X30676434Y-20575493D01*
X30975604Y-20446959D01*
X30979469Y-20444714D01*
X30979477Y-20444710D01*
X31253284Y-20285669D01*
X31257165Y-20283415D01*
X31260738Y-20280718D01*
X31260745Y-20280713D01*
X31513468Y-20089927D01*
X31513472Y-20089923D01*
X31517040Y-20087230D01*
X31751464Y-19861245D01*
X31957040Y-19608733D01*
X32032134Y-19489717D01*
X32128395Y-19337154D01*
X32128399Y-19337146D01*
X32130792Y-19333354D01*
X32270202Y-19039095D01*
X32373251Y-18730218D01*
X32438446Y-18411199D01*
X32445304Y-18326879D01*
X32464630Y-18089278D01*
X32464630Y-18089275D01*
X32464843Y-18086658D01*
X32465436Y-18030000D01*
X32463728Y-18001669D01*
X77054712Y-18001669D01*
X77070902Y-18326879D01*
X77126045Y-18647789D01*
X77219341Y-18959749D01*
X77349439Y-19258242D01*
X77351710Y-19262105D01*
X77351713Y-19262111D01*
X77393595Y-19333354D01*
X77514455Y-19538944D01*
X77711998Y-19797788D01*
X77939208Y-20031025D01*
X78192792Y-20235276D01*
X78196600Y-20237651D01*
X78196603Y-20237653D01*
X78273595Y-20285669D01*
X78469078Y-20407583D01*
X78674964Y-20503808D01*
X78755751Y-20541566D01*
X78764063Y-20545451D01*
X79073474Y-20646881D01*
X79077879Y-20647757D01*
X79077882Y-20647758D01*
X79383499Y-20708549D01*
X79392830Y-20710405D01*
X79397291Y-20710744D01*
X79397296Y-20710745D01*
X79529683Y-20720815D01*
X79717505Y-20735102D01*
X79721996Y-20734902D01*
X79721998Y-20734902D01*
X80038311Y-20720815D01*
X80038316Y-20720814D01*
X80042795Y-20720615D01*
X80047215Y-20719879D01*
X80047218Y-20719879D01*
X80359567Y-20667890D01*
X80363989Y-20667154D01*
X80368291Y-20665892D01*
X80368295Y-20665891D01*
X80672124Y-20576758D01*
X80672133Y-20576755D01*
X80676434Y-20575493D01*
X80975604Y-20446959D01*
X80979469Y-20444714D01*
X80979477Y-20444710D01*
X81253284Y-20285669D01*
X81257165Y-20283415D01*
X81260738Y-20280718D01*
X81260745Y-20280713D01*
X81513468Y-20089927D01*
X81513472Y-20089923D01*
X81517040Y-20087230D01*
X81751464Y-19861245D01*
X81957040Y-19608733D01*
X82032134Y-19489717D01*
X82128395Y-19337154D01*
X82128399Y-19337146D01*
X82130792Y-19333354D01*
X82270202Y-19039095D01*
X82373251Y-18730218D01*
X82438446Y-18411199D01*
X82445304Y-18326879D01*
X82464630Y-18089278D01*
X82464630Y-18089275D01*
X82464843Y-18086658D01*
X82465436Y-18030000D01*
X82445841Y-17704977D01*
X82387342Y-17384663D01*
X82290784Y-17073696D01*
X82157567Y-16776582D01*
X82123945Y-16720735D01*
X81991934Y-16501465D01*
X81991930Y-16501459D01*
X81989621Y-16497624D01*
X81968743Y-16470853D01*
X81792143Y-16244409D01*
X81792138Y-16244404D01*
X81789377Y-16240863D01*
X81559738Y-16010018D01*
X81304029Y-15808433D01*
X81025954Y-15639029D01*
X80889332Y-15576910D01*
X80733632Y-15506117D01*
X80733623Y-15506114D01*
X80729542Y-15504258D01*
X80703605Y-15496055D01*
X80674627Y-15486891D01*
X80419085Y-15406073D01*
X80099081Y-15345897D01*
X80043393Y-15342247D01*
X79778644Y-15324894D01*
X79778636Y-15324894D01*
X79774166Y-15324601D01*
X79559451Y-15336418D01*
X79453529Y-15342247D01*
X79453525Y-15342247D01*
X79449045Y-15342494D01*
X79128429Y-15399315D01*
X79124139Y-15400623D01*
X79124137Y-15400623D01*
X78821251Y-15492936D01*
X78821244Y-15492939D01*
X78816961Y-15494244D01*
X78519153Y-15625903D01*
X78239319Y-15792386D01*
X77981513Y-15991282D01*
X77749469Y-16219710D01*
X77746678Y-16223212D01*
X77746673Y-16223218D01*
X77549342Y-16470853D01*
X77549338Y-16470859D01*
X77546548Y-16474360D01*
X77375690Y-16751544D01*
X77239369Y-17047247D01*
X77139560Y-17357185D01*
X77077709Y-17676870D01*
X77054712Y-18001669D01*
X32463728Y-18001669D01*
X32445841Y-17704977D01*
X32387342Y-17384663D01*
X32290784Y-17073696D01*
X32157567Y-16776582D01*
X32123945Y-16720735D01*
X31991934Y-16501465D01*
X31991930Y-16501459D01*
X31989621Y-16497624D01*
X31968743Y-16470853D01*
X31792143Y-16244409D01*
X31792138Y-16244404D01*
X31789377Y-16240863D01*
X31559738Y-16010018D01*
X31304029Y-15808433D01*
X31025954Y-15639029D01*
X30889332Y-15576910D01*
X30733632Y-15506117D01*
X30733623Y-15506114D01*
X30729542Y-15504258D01*
X30703605Y-15496055D01*
X30674627Y-15486891D01*
X30419085Y-15406073D01*
X30099081Y-15345897D01*
X30043393Y-15342247D01*
X29778644Y-15324894D01*
X29778636Y-15324894D01*
X29774166Y-15324601D01*
X29559451Y-15336418D01*
X29453529Y-15342247D01*
X29453525Y-15342247D01*
X29449045Y-15342494D01*
X29128429Y-15399315D01*
X29124139Y-15400623D01*
X29124137Y-15400623D01*
X28821251Y-15492936D01*
X28821244Y-15492939D01*
X28816961Y-15494244D01*
X28519153Y-15625903D01*
X28239319Y-15792386D01*
X27981513Y-15991282D01*
X27749469Y-16219710D01*
X27746678Y-16223212D01*
X27746673Y-16223218D01*
X27549342Y-16470853D01*
X27549338Y-16470859D01*
X27546548Y-16474360D01*
X27375690Y-16751544D01*
X27239369Y-17047247D01*
X27139560Y-17357185D01*
X27077709Y-17676870D01*
X27054712Y-18001669D01*
X26000000Y-18001669D01*
X26000000Y-14149000D01*
X26019962Y-14074500D01*
X26074500Y-14019962D01*
X26149000Y-14000000D01*
X83351000Y-14000000D01*
X83425500Y-14019962D01*
G37*
%TD.AperFunction*%
%TA.AperFunction,Conductor*%
G36*
X39102036Y-60870462D02*
G01*
X39156574Y-60925000D01*
X39176536Y-60999500D01*
X39154986Y-61076685D01*
X39116873Y-61139617D01*
X39066171Y-61301406D01*
X39059500Y-61374007D01*
X39059501Y-63085992D01*
X39066171Y-63158594D01*
X39116873Y-63320383D01*
X39121524Y-63328063D01*
X39121525Y-63328065D01*
X39200050Y-63457726D01*
X39200053Y-63457730D01*
X39204703Y-63465408D01*
X39324592Y-63585297D01*
X39355433Y-63603975D01*
X39408813Y-63659640D01*
X39427211Y-63734542D01*
X39405694Y-63808608D01*
X39395176Y-63823769D01*
X39369300Y-63856534D01*
X39305918Y-63936790D01*
X39186673Y-64152802D01*
X39104309Y-64385390D01*
X39061039Y-64628306D01*
X39058025Y-64875028D01*
X39058949Y-64881066D01*
X39082326Y-65033834D01*
X39095347Y-65118930D01*
X39172003Y-65353460D01*
X39285935Y-65572321D01*
X39434083Y-65769636D01*
X39571696Y-65901141D01*
X39605905Y-65933832D01*
X39645975Y-65999734D01*
X39647725Y-66076843D01*
X39610686Y-66144495D01*
X39603243Y-66151759D01*
X39479424Y-66264426D01*
X39458842Y-66283154D01*
X39305918Y-66476790D01*
X39302963Y-66482143D01*
X39302961Y-66482146D01*
X39253093Y-66572483D01*
X39186673Y-66692802D01*
X39104309Y-66925390D01*
X39061039Y-67168306D01*
X39060964Y-67174419D01*
X39060964Y-67174422D01*
X39060317Y-67227427D01*
X39058025Y-67415028D01*
X39095347Y-67658930D01*
X39172003Y-67893460D01*
X39285935Y-68112321D01*
X39434083Y-68309636D01*
X39438503Y-68313860D01*
X39438504Y-68313861D01*
X39608044Y-68475877D01*
X39608048Y-68475881D01*
X39612468Y-68480104D01*
X39617520Y-68483551D01*
X39617521Y-68483551D01*
X39645893Y-68502905D01*
X39816300Y-68619149D01*
X40040104Y-68723035D01*
X40171205Y-68759393D01*
X40271981Y-68787341D01*
X40271986Y-68787342D01*
X40277871Y-68788974D01*
X40283948Y-68789623D01*
X40283951Y-68789624D01*
X40475339Y-68810078D01*
X40475348Y-68810078D01*
X40479292Y-68810500D01*
X41422554Y-68810500D01*
X41487367Y-68805171D01*
X41599819Y-68795926D01*
X41599821Y-68795926D01*
X41605911Y-68795425D01*
X41611837Y-68793936D01*
X41611840Y-68793936D01*
X41839289Y-68736805D01*
X41845217Y-68735316D01*
X41850817Y-68732881D01*
X41850820Y-68732880D01*
X42025112Y-68657095D01*
X42071493Y-68636928D01*
X42278661Y-68502905D01*
X42461158Y-68336846D01*
X42614082Y-68143210D01*
X42733327Y-67927198D01*
X42815691Y-67694610D01*
X42858961Y-67451694D01*
X42859422Y-67414007D01*
X42860708Y-67308648D01*
X42861975Y-67204972D01*
X42840438Y-67064223D01*
X42825577Y-66967107D01*
X42825576Y-66967104D01*
X42824653Y-66961070D01*
X42747997Y-66726540D01*
X42634065Y-66507679D01*
X42485917Y-66310364D01*
X42314095Y-66146167D01*
X42274025Y-66080266D01*
X42272275Y-66003157D01*
X42309314Y-65935505D01*
X42316757Y-65928241D01*
X42456639Y-65800958D01*
X42461158Y-65796846D01*
X42614082Y-65603210D01*
X42628685Y-65576758D01*
X42701579Y-65444710D01*
X42733327Y-65387198D01*
X42815691Y-65154610D01*
X42858961Y-64911694D01*
X42861975Y-64664972D01*
X42824653Y-64421070D01*
X42747997Y-64186540D01*
X42634065Y-63967679D01*
X42630391Y-63962786D01*
X42630387Y-63962779D01*
X42523460Y-63820365D01*
X42494692Y-63748803D01*
X42505560Y-63672444D01*
X42553151Y-63611750D01*
X42565412Y-63603463D01*
X42595408Y-63585297D01*
X42715297Y-63465408D01*
X42719947Y-63457730D01*
X42719950Y-63457726D01*
X42798475Y-63328065D01*
X42798476Y-63328063D01*
X42803127Y-63320383D01*
X42853829Y-63158594D01*
X42860500Y-63085993D01*
X42860499Y-61374008D01*
X42853829Y-61301406D01*
X42841000Y-61260467D01*
X42805812Y-61148185D01*
X42803127Y-61139617D01*
X42765014Y-61076685D01*
X42743497Y-61002620D01*
X42761895Y-60927718D01*
X42815279Y-60872050D01*
X42892464Y-60850500D01*
X47081262Y-60850500D01*
X47155762Y-60870462D01*
X47210300Y-60925000D01*
X47230262Y-60999500D01*
X47210300Y-61074000D01*
X47181541Y-61109705D01*
X47154250Y-61134538D01*
X47078842Y-61203154D01*
X46925918Y-61396790D01*
X46806673Y-61612802D01*
X46724309Y-61845390D01*
X46723238Y-61851405D01*
X46723237Y-61851407D01*
X46712667Y-61910750D01*
X46681039Y-62088306D01*
X46680964Y-62094419D01*
X46680964Y-62094422D01*
X46680548Y-62128458D01*
X46678025Y-62335028D01*
X46678949Y-62341066D01*
X46678949Y-62341067D01*
X46703239Y-62499805D01*
X46694775Y-62576467D01*
X46661312Y-62627701D01*
X43801974Y-65487039D01*
X43793973Y-65494474D01*
X43789836Y-65498045D01*
X43784050Y-65502149D01*
X43779149Y-65507268D01*
X43779145Y-65507272D01*
X43722092Y-65566871D01*
X43719819Y-65569194D01*
X43693251Y-65595762D01*
X43690997Y-65598491D01*
X43690994Y-65598495D01*
X43689290Y-65600559D01*
X43682027Y-65608724D01*
X43642134Y-65650396D01*
X43638284Y-65656358D01*
X43638282Y-65656361D01*
X43625353Y-65676385D01*
X43615071Y-65690434D01*
X43595371Y-65714290D01*
X43567691Y-65764952D01*
X43562130Y-65774300D01*
X43530811Y-65822804D01*
X43519250Y-65851492D01*
X43511808Y-65867234D01*
X43500373Y-65888164D01*
X43500371Y-65888169D01*
X43496973Y-65894388D01*
X43494812Y-65901138D01*
X43494811Y-65901141D01*
X43479375Y-65949364D01*
X43475674Y-65959616D01*
X43454099Y-66013152D01*
X43452740Y-66020110D01*
X43452739Y-66020114D01*
X43448170Y-66043512D01*
X43443840Y-66060377D01*
X43436570Y-66083087D01*
X43436569Y-66083093D01*
X43434408Y-66089843D01*
X43427522Y-66147168D01*
X43425829Y-66157912D01*
X43414764Y-66214572D01*
X43414500Y-66219970D01*
X43414500Y-66246655D01*
X43413436Y-66264426D01*
X43409931Y-66293604D01*
X43410432Y-66300674D01*
X43414128Y-66352882D01*
X43414500Y-66363405D01*
X43414500Y-71901635D01*
X43412958Y-71923015D01*
X43410898Y-71937223D01*
X43413803Y-72000000D01*
X43414341Y-72011616D01*
X43414500Y-72018505D01*
X43414500Y-78846868D01*
X43394538Y-78921368D01*
X43378800Y-78943636D01*
X43235545Y-79111366D01*
X43235540Y-79111373D01*
X43231741Y-79115821D01*
X43104223Y-79323911D01*
X43010828Y-79549388D01*
X42953854Y-79786698D01*
X42934706Y-80030000D01*
X42953854Y-80273302D01*
X42955218Y-80278985D01*
X42955219Y-80278989D01*
X42999362Y-80462854D01*
X43010828Y-80510612D01*
X43104223Y-80736089D01*
X43105815Y-80738686D01*
X43121675Y-80813294D01*
X43097843Y-80886647D01*
X43040528Y-80938258D01*
X42972879Y-80954500D01*
X30684500Y-80954500D01*
X30610000Y-80934538D01*
X30555462Y-80880000D01*
X30535500Y-80805500D01*
X30535499Y-79127431D01*
X30535499Y-79124008D01*
X30534339Y-79111374D01*
X30529552Y-79059278D01*
X30528829Y-79051406D01*
X30516932Y-79013441D01*
X30480812Y-78898185D01*
X30478127Y-78889617D01*
X30473475Y-78881935D01*
X30394950Y-78752274D01*
X30394947Y-78752270D01*
X30390297Y-78744592D01*
X30270408Y-78624703D01*
X30262730Y-78620053D01*
X30262726Y-78620050D01*
X30133065Y-78541525D01*
X30133063Y-78541524D01*
X30125383Y-78536873D01*
X29963594Y-78486171D01*
X29890993Y-78479500D01*
X28985398Y-78479500D01*
X28079008Y-78479501D01*
X28075604Y-78479814D01*
X28075598Y-78479814D01*
X28040348Y-78483053D01*
X28006406Y-78486171D01*
X27998867Y-78488534D01*
X27998865Y-78488534D01*
X27887647Y-78523388D01*
X27844617Y-78536873D01*
X27836937Y-78541524D01*
X27836935Y-78541525D01*
X27707274Y-78620050D01*
X27707270Y-78620053D01*
X27699592Y-78624703D01*
X27579703Y-78744592D01*
X27575053Y-78752270D01*
X27575050Y-78752274D01*
X27496525Y-78881935D01*
X27491873Y-78889617D01*
X27441171Y-79051406D01*
X27434500Y-79124007D01*
X27434501Y-80024168D01*
X27434501Y-80805500D01*
X27414539Y-80880000D01*
X27360001Y-80934538D01*
X27285501Y-80954500D01*
X27267205Y-80954500D01*
X27192705Y-80934538D01*
X27161846Y-80910859D01*
X26879141Y-80628154D01*
X26840577Y-80561359D01*
X26835500Y-80522795D01*
X26835500Y-75037204D01*
X26855462Y-74962704D01*
X26879141Y-74931845D01*
X27161846Y-74649141D01*
X27228641Y-74610577D01*
X27267205Y-74605500D01*
X27811868Y-74605500D01*
X27886368Y-74625462D01*
X27908636Y-74641200D01*
X28076366Y-74784455D01*
X28076373Y-74784460D01*
X28080821Y-74788259D01*
X28288911Y-74915777D01*
X28294320Y-74918017D01*
X28294323Y-74918019D01*
X28424029Y-74971744D01*
X28514388Y-75009172D01*
X28520075Y-75010537D01*
X28520077Y-75010538D01*
X28746011Y-75064781D01*
X28746015Y-75064782D01*
X28751698Y-75066146D01*
X28757524Y-75066604D01*
X28757527Y-75066605D01*
X28989168Y-75084835D01*
X28995000Y-75085294D01*
X29000832Y-75084835D01*
X29232473Y-75066605D01*
X29232476Y-75066604D01*
X29238302Y-75066146D01*
X29243985Y-75064782D01*
X29243989Y-75064781D01*
X29469923Y-75010538D01*
X29469925Y-75010537D01*
X29475612Y-75009172D01*
X29565971Y-74971744D01*
X29695677Y-74918019D01*
X29695680Y-74918017D01*
X29701089Y-74915777D01*
X29909179Y-74788259D01*
X29913632Y-74784455D01*
X29918368Y-74781015D01*
X29919507Y-74782583D01*
X29980769Y-74753351D01*
X30057660Y-74759391D01*
X30125138Y-74807871D01*
X30129703Y-74815408D01*
X30249592Y-74935297D01*
X30257270Y-74939947D01*
X30257274Y-74939950D01*
X30386935Y-75018475D01*
X30386937Y-75018476D01*
X30394617Y-75023127D01*
X30556406Y-75073829D01*
X30629007Y-75080500D01*
X31534602Y-75080500D01*
X32440992Y-75080499D01*
X32444396Y-75080186D01*
X32444402Y-75080186D01*
X32479652Y-75076947D01*
X32513594Y-75073829D01*
X32521133Y-75071466D01*
X32521135Y-75071466D01*
X32666815Y-75025812D01*
X32666814Y-75025812D01*
X32675383Y-75023127D01*
X32683063Y-75018476D01*
X32683065Y-75018475D01*
X32812726Y-74939950D01*
X32812730Y-74939947D01*
X32820408Y-74935297D01*
X32940297Y-74815408D01*
X32944947Y-74807730D01*
X32944950Y-74807726D01*
X33023475Y-74678065D01*
X33023476Y-74678063D01*
X33028127Y-74670383D01*
X33078829Y-74508594D01*
X33079552Y-74500729D01*
X33079650Y-74500238D01*
X33113854Y-74431109D01*
X33178040Y-74388344D01*
X33225748Y-74380500D01*
X33487977Y-74380500D01*
X33500445Y-74381023D01*
X33550902Y-74385260D01*
X33558906Y-74384192D01*
X33558908Y-74384192D01*
X33630402Y-74374653D01*
X33634014Y-74374216D01*
X33705683Y-74366430D01*
X33705684Y-74366430D01*
X33713709Y-74365558D01*
X33721173Y-74363046D01*
X33721815Y-74362933D01*
X33721987Y-74362891D01*
X33725523Y-74362068D01*
X33725653Y-74362039D01*
X33726265Y-74361861D01*
X33734069Y-74360820D01*
X33809438Y-74333388D01*
X33812785Y-74332215D01*
X33888848Y-74306617D01*
X33895595Y-74302563D01*
X33896197Y-74302315D01*
X33896369Y-74302230D01*
X33899624Y-74300677D01*
X33899759Y-74300615D01*
X33900317Y-74300311D01*
X33907715Y-74297618D01*
X33975428Y-74254647D01*
X33978473Y-74252765D01*
X34047244Y-74211443D01*
X34052967Y-74206031D01*
X34054407Y-74205031D01*
X34058575Y-74201879D01*
X34063738Y-74198602D01*
X34067972Y-74194817D01*
X34121274Y-74141515D01*
X34124257Y-74138615D01*
X34175640Y-74090024D01*
X34181507Y-74084476D01*
X34186044Y-74077800D01*
X34188200Y-74075267D01*
X34196308Y-74066481D01*
X36101680Y-72161109D01*
X36110866Y-72152662D01*
X36143377Y-72125188D01*
X36149540Y-72119980D01*
X36198253Y-72056266D01*
X36200494Y-72053409D01*
X36234097Y-72011616D01*
X36250731Y-71990927D01*
X36254231Y-71983876D01*
X36254606Y-71983341D01*
X36254693Y-71983197D01*
X36256595Y-71980141D01*
X36256681Y-71980007D01*
X36256996Y-71979434D01*
X36261777Y-71973180D01*
X36275242Y-71944305D01*
X36295664Y-71900509D01*
X36297243Y-71897227D01*
X36315493Y-71860462D01*
X36332895Y-71825407D01*
X36334798Y-71817774D01*
X36335046Y-71817179D01*
X36335101Y-71817017D01*
X36336320Y-71813575D01*
X36336365Y-71813452D01*
X36336545Y-71812840D01*
X36339873Y-71805703D01*
X36350705Y-71757243D01*
X36357363Y-71727455D01*
X36358201Y-71723912D01*
X36375646Y-71653943D01*
X36377600Y-71646106D01*
X36377820Y-71638232D01*
X36378134Y-71636483D01*
X36378849Y-71631329D01*
X36380183Y-71625363D01*
X36380500Y-71619693D01*
X36380500Y-71544355D01*
X36380558Y-71540195D01*
X36382534Y-71469453D01*
X36382534Y-71469451D01*
X36382759Y-71461389D01*
X36381248Y-71453466D01*
X36380980Y-71450141D01*
X36380500Y-71438192D01*
X36380500Y-62751701D01*
X36400462Y-62677201D01*
X36455000Y-62622663D01*
X36535350Y-62602816D01*
X36545954Y-62603233D01*
X36551015Y-62603432D01*
X36551017Y-62603432D01*
X36557842Y-62603700D01*
X36758007Y-62574678D01*
X36949531Y-62509664D01*
X37069380Y-62442546D01*
X37120041Y-62414175D01*
X37120043Y-62414174D01*
X37126001Y-62410837D01*
X37281505Y-62281505D01*
X37410837Y-62126001D01*
X37435320Y-62082284D01*
X37497602Y-61971069D01*
X37509664Y-61949531D01*
X37574678Y-61758007D01*
X37594896Y-61618566D01*
X37603070Y-61562190D01*
X37603071Y-61562183D01*
X37603700Y-61557842D01*
X37605215Y-61500000D01*
X37604672Y-61494085D01*
X37587333Y-61305393D01*
X37586708Y-61298591D01*
X37531807Y-61103926D01*
X37512808Y-61065400D01*
X37497762Y-60989754D01*
X37522555Y-60916719D01*
X37580543Y-60865865D01*
X37646443Y-60850500D01*
X39027536Y-60850500D01*
X39102036Y-60870462D01*
G37*
%TD.AperFunction*%
%TA.AperFunction,Conductor*%
G36*
X30723862Y-66870462D02*
G01*
X30778400Y-66925000D01*
X30798362Y-66999500D01*
X30778400Y-67074000D01*
X30727216Y-67126542D01*
X30620821Y-67191741D01*
X30616375Y-67195538D01*
X30616374Y-67195539D01*
X30587034Y-67220598D01*
X30435241Y-67350241D01*
X30276741Y-67535821D01*
X30149223Y-67743911D01*
X30055828Y-67969388D01*
X30054463Y-67975075D01*
X30054462Y-67975077D01*
X30020338Y-68117214D01*
X29998854Y-68206698D01*
X29998396Y-68212524D01*
X29998395Y-68212527D01*
X29988611Y-68336846D01*
X29979706Y-68450000D01*
X29980165Y-68455832D01*
X29998293Y-68686168D01*
X29998854Y-68693302D01*
X30000218Y-68698985D01*
X30000219Y-68698989D01*
X30036562Y-68850364D01*
X30055828Y-68930612D01*
X30149223Y-69156089D01*
X30276741Y-69364179D01*
X30280538Y-69368625D01*
X30280539Y-69368626D01*
X30354496Y-69455219D01*
X30435241Y-69549759D01*
X30439689Y-69553558D01*
X30439696Y-69553565D01*
X30501909Y-69606700D01*
X30545595Y-69670263D01*
X30551646Y-69747153D01*
X30518441Y-69816768D01*
X30501909Y-69833300D01*
X30439696Y-69886435D01*
X30439689Y-69886442D01*
X30435241Y-69890241D01*
X30431444Y-69894687D01*
X30431435Y-69894696D01*
X30378300Y-69956909D01*
X30314737Y-70000595D01*
X30237847Y-70006646D01*
X30168232Y-69973441D01*
X30151700Y-69956909D01*
X30098565Y-69894696D01*
X30098556Y-69894687D01*
X30094759Y-69890241D01*
X29995415Y-69805393D01*
X29913626Y-69735539D01*
X29913625Y-69735538D01*
X29909179Y-69731741D01*
X29701089Y-69604223D01*
X29695680Y-69601983D01*
X29695677Y-69601981D01*
X29481017Y-69513067D01*
X29475612Y-69510828D01*
X29469925Y-69509463D01*
X29469923Y-69509462D01*
X29243989Y-69455219D01*
X29243985Y-69455218D01*
X29238302Y-69453854D01*
X29232476Y-69453396D01*
X29232473Y-69453395D01*
X29000832Y-69435165D01*
X28995000Y-69434706D01*
X28989168Y-69435165D01*
X28757527Y-69453395D01*
X28757524Y-69453396D01*
X28751698Y-69453854D01*
X28746015Y-69455218D01*
X28746011Y-69455219D01*
X28520077Y-69509462D01*
X28520075Y-69509463D01*
X28514388Y-69510828D01*
X28508983Y-69513067D01*
X28294323Y-69601981D01*
X28294320Y-69601983D01*
X28288911Y-69604223D01*
X28080821Y-69731741D01*
X28080040Y-69730466D01*
X28015064Y-69755403D01*
X27938887Y-69743332D01*
X27878950Y-69694789D01*
X27851315Y-69622782D01*
X27850500Y-69607218D01*
X27850500Y-67414007D01*
X27870462Y-67339507D01*
X27894141Y-67308648D01*
X28308648Y-66894141D01*
X28375443Y-66855577D01*
X28414007Y-66850500D01*
X30649362Y-66850500D01*
X30723862Y-66870462D01*
G37*
%TD.AperFunction*%
%TD*%
M02*
