%TF.GenerationSoftware,KiCad,Pcbnew,6.0.4-6f826c9f35~116~ubuntu21.10.1*%
%TF.CreationDate,2022-04-24T13:37:27+09:00*%
%TF.ProjectId,pcb,7063622e-6b69-4636-9164-5f7063625858,rev?*%
%TF.SameCoordinates,Original*%
%TF.FileFunction,Paste,Top*%
%TF.FilePolarity,Positive*%
%FSLAX46Y46*%
G04 Gerber Fmt 4.6, Leading zero omitted, Abs format (unit mm)*
G04 Created by KiCad (PCBNEW 6.0.4-6f826c9f35~116~ubuntu21.10.1) date 2022-04-24 13:37:27*
%MOMM*%
%LPD*%
G01*
G04 APERTURE LIST*
G04 Aperture macros list*
%AMRoundRect*
0 Rectangle with rounded corners*
0 $1 Rounding radius*
0 $2 $3 $4 $5 $6 $7 $8 $9 X,Y pos of 4 corners*
0 Add a 4 corners polygon primitive as box body*
4,1,4,$2,$3,$4,$5,$6,$7,$8,$9,$2,$3,0*
0 Add four circle primitives for the rounded corners*
1,1,$1+$1,$2,$3*
1,1,$1+$1,$4,$5*
1,1,$1+$1,$6,$7*
1,1,$1+$1,$8,$9*
0 Add four rect primitives between the rounded corners*
20,1,$1+$1,$2,$3,$4,$5,0*
20,1,$1+$1,$4,$5,$6,$7,0*
20,1,$1+$1,$6,$7,$8,$9,0*
20,1,$1+$1,$8,$9,$2,$3,0*%
G04 Aperture macros list end*
%ADD10RoundRect,0.200000X0.200000X0.275000X-0.200000X0.275000X-0.200000X-0.275000X0.200000X-0.275000X0*%
%ADD11R,1.600000X0.550000*%
%ADD12R,0.550000X1.600000*%
%ADD13RoundRect,0.250000X0.450000X0.425000X-0.450000X0.425000X-0.450000X-0.425000X0.450000X-0.425000X0*%
%ADD14RoundRect,0.225000X0.250000X-0.225000X0.250000X0.225000X-0.250000X0.225000X-0.250000X-0.225000X0*%
%ADD15RoundRect,0.225000X-0.250000X0.225000X-0.250000X-0.225000X0.250000X-0.225000X0.250000X0.225000X0*%
%ADD16RoundRect,0.200000X0.275000X-0.200000X0.275000X0.200000X-0.275000X0.200000X-0.275000X-0.200000X0*%
%ADD17R,2.500000X1.800000*%
%ADD18RoundRect,0.218750X-0.218750X-0.256250X0.218750X-0.256250X0.218750X0.256250X-0.218750X0.256250X0*%
%ADD19RoundRect,0.200000X-0.275000X0.200000X-0.275000X-0.200000X0.275000X-0.200000X0.275000X0.200000X0*%
%ADD20R,2.000000X1.500000*%
%ADD21R,2.000000X3.800000*%
G04 APERTURE END LIST*
D10*
%TO.C,R2*%
X74825000Y-26000000D03*
X73175000Y-26000000D03*
%TD*%
D11*
%TO.C,U1*%
X49010000Y-49830000D03*
X49010000Y-49030000D03*
X49010000Y-48230000D03*
X49010000Y-47430000D03*
X49010000Y-46630000D03*
X49010000Y-45830000D03*
X49010000Y-45030000D03*
X49010000Y-44230000D03*
D12*
X47560000Y-42780000D03*
X46760000Y-42780000D03*
X45960000Y-42780000D03*
X45160000Y-42780000D03*
X44360000Y-42780000D03*
X43560000Y-42780000D03*
X42760000Y-42780000D03*
X41960000Y-42780000D03*
D11*
X40510000Y-44230000D03*
X40510000Y-45030000D03*
X40510000Y-45830000D03*
X40510000Y-46630000D03*
X40510000Y-47430000D03*
X40510000Y-48230000D03*
X40510000Y-49030000D03*
X40510000Y-49830000D03*
D12*
X41960000Y-51280000D03*
X42760000Y-51280000D03*
X43560000Y-51280000D03*
X44360000Y-51280000D03*
X45160000Y-51280000D03*
X45960000Y-51280000D03*
X46760000Y-51280000D03*
X47560000Y-51280000D03*
%TD*%
D13*
%TO.C,C5*%
X61610000Y-80530000D03*
X58910000Y-80530000D03*
%TD*%
D10*
%TO.C,R9*%
X32585000Y-33030000D03*
X30935000Y-33030000D03*
%TD*%
%TO.C,R8*%
X32585000Y-38030000D03*
X30935000Y-38030000D03*
%TD*%
D14*
%TO.C,C2*%
X61260000Y-47805000D03*
X61260000Y-46255000D03*
%TD*%
D15*
%TO.C,C1*%
X48000000Y-74225000D03*
X48000000Y-75775000D03*
%TD*%
D16*
%TO.C,R10*%
X51000000Y-71825000D03*
X51000000Y-70175000D03*
%TD*%
D17*
%TO.C,D1*%
X65760000Y-65530000D03*
X69760000Y-65530000D03*
%TD*%
D10*
%TO.C,R7*%
X32585000Y-43030000D03*
X30935000Y-43030000D03*
%TD*%
D18*
%TO.C,D2*%
X27472500Y-43030000D03*
X29047500Y-43030000D03*
%TD*%
D16*
%TO.C,R4*%
X50520000Y-24180000D03*
X50520000Y-22530000D03*
%TD*%
D19*
%TO.C,R11*%
X51000000Y-66175000D03*
X51000000Y-67825000D03*
%TD*%
D16*
%TO.C,R6*%
X65260000Y-26355000D03*
X65260000Y-24705000D03*
%TD*%
%TO.C,R5*%
X54260000Y-26355000D03*
X54260000Y-24705000D03*
%TD*%
D18*
%TO.C,D3*%
X27472500Y-38030000D03*
X29047500Y-38030000D03*
%TD*%
D19*
%TO.C,R3*%
X75500000Y-39675000D03*
X75500000Y-41325000D03*
%TD*%
D16*
%TO.C,R1*%
X48260000Y-59355000D03*
X48260000Y-57705000D03*
%TD*%
D13*
%TO.C,C4*%
X61610000Y-69530000D03*
X58910000Y-69530000D03*
%TD*%
D18*
%TO.C,D4*%
X27472500Y-33030000D03*
X29047500Y-33030000D03*
%TD*%
D20*
%TO.C,U2*%
X63760000Y-77330000D03*
D21*
X57460000Y-75030000D03*
D20*
X63760000Y-75030000D03*
X63760000Y-72730000D03*
%TD*%
D15*
%TO.C,C3*%
X61260000Y-42255000D03*
X61260000Y-43805000D03*
%TD*%
M02*
